<svg width="62" height="62" viewBox="0 0 62 62" fill="none" xmlns="http://www.w3.org/2000/svg">
<path d="M46.5 9.6875H43.2708V7.75C43.2708 6.6805 42.4028 5.8125 41.3333 5.8125C40.2638 5.8125 39.3958 6.6805 39.3958 7.75V9.6875H22.6042V7.75C22.6042 6.6805 21.7362 5.8125 20.6667 5.8125C19.5972 5.8125 18.7292 6.6805 18.7292 7.75V9.6875H15.5C9.2535 9.6875 5.8125 13.1285 5.8125 19.375V46.5C5.8125 52.7465 9.2535 56.1875 15.5 56.1875H46.5C52.7465 56.1875 56.1875 52.7465 56.1875 46.5V19.375C56.1875 13.1285 52.7465 9.6875 46.5 9.6875ZM15.5 13.5625H18.7292V15.5C18.7292 16.5695 19.5972 17.4375 20.6667 17.4375C21.7362 17.4375 22.6042 16.5695 22.6042 15.5V13.5625H39.3958V15.5C39.3958 16.5695 40.2638 17.4375 41.3333 17.4375C42.4028 17.4375 43.2708 16.5695 43.2708 15.5V13.5625H46.5C50.5739 13.5625 52.3125 15.3011 52.3125 19.375V21.3125H9.6875V19.375C9.6875 15.3011 11.4261 13.5625 15.5 13.5625ZM46.5 52.3125H15.5C11.4261 52.3125 9.6875 50.5739 9.6875 46.5V25.1875H52.3125V46.5C52.3125 50.5739 50.5739 52.3125 46.5 52.3125Z" fill="#36383A"/>
</svg>
