<svg width="16" height="17" viewBox="0 0 16 17" fill="none" xmlns="http://www.w3.org/2000/svg">
    <path
        d="M11.4405 0.898376H4.33101C1.95204 0.898376 0.0166016 2.83381 0.0166016 5.21281V12.3222C0.0166016 14.7012 1.95204 16.6366 4.33101 16.6366H11.4405C13.8195 16.6366 15.7549 14.7012 15.7549 12.3222V5.21281C15.7549 2.83381 13.8195 0.898376 11.4405 0.898376ZM7.88573 13.0842C5.50547 13.0842 3.56905 11.1478 3.56905 8.76751C3.56905 6.38725 5.5055 4.45086 7.88573 4.45086C10.266 4.45086 12.2024 6.38728 12.2024 8.76751C12.2024 11.1477 10.266 13.0842 7.88573 13.0842ZM12.4606 5.50415C11.7375 5.50415 11.1491 4.91581 11.1491 4.19265C11.1491 3.46949 11.7375 2.88112 12.4606 2.88112C13.1838 2.88112 13.7721 3.46946 13.7721 4.19262C13.7721 4.91578 13.1838 5.50415 12.4606 5.50415Z"
        fill="#36383A" />
</svg>