<svg width="16" height="15" viewBox="0 0 16 15" fill="none" xmlns="http://www.w3.org/2000/svg">
    <path d="M4.08847 5.2206H1.06609V14.0716H4.08847V5.2206Z" fill="#36383A" />
    <path
        d="M3.58035 1.09002C3.29229 0.915599 2.95378 0.822515 2.6075 0.82251C2.37645 0.822506 2.14767 0.863959 1.93433 0.944486C1.72099 1.02501 1.52729 1.14302 1.36438 1.29173C1.20147 1.44044 1.07256 1.61691 0.985056 1.81099C0.897555 2.00507 0.853193 2.21294 0.854521 2.42264C0.856512 2.73692 0.961011 3.04362 1.15484 3.30405C1.34866 3.56448 1.62313 3.76698 1.94362 3.88599C2.2641 4.00501 2.61625 4.03522 2.95562 3.9728C3.295 3.91038 3.60641 3.75814 3.85056 3.53527C4.09471 3.31241 4.26067 3.02891 4.3275 2.72054C4.39432 2.41217 4.35903 2.09275 4.22606 1.80256C4.09309 1.51238 3.8684 1.26444 3.58035 1.09002Z"
        fill="#36383A" />
    <path
        d="M8.93996 5.22015H6.0284L6.01833 14.0895H9.0407V9.70967C9.0407 8.55757 9.28249 7.44205 10.8541 7.44205C12.4258 7.44205 12.4258 8.76788 12.4258 9.79196V14.0712H15.4481V9.21592C15.4481 6.82943 14.8336 5.0007 11.8112 5.0007C11.2352 4.98024 10.6638 5.10212 10.1581 5.35334C9.65245 5.60456 9.23141 5.97568 8.93996 6.42711V5.22015Z"
        fill="#36383A" />
</svg>