<svg width="17" height="12" viewBox="0 0 17 12" fill="none" xmlns="http://www.w3.org/2000/svg">
    <path
        d="M13.5276 11.841H2.85799C1.45833 11.841 0.323669 10.7063 0.323669 9.30668V3.12493C0.323669 1.72527 1.45833 0.590606 2.85799 0.590606H13.5276C14.9273 0.590606 16.0619 1.72527 16.0619 3.12493V9.30671C16.0619 10.7063 14.9273 11.841 13.5276 11.841Z"
        fill="white" />
    <path
        d="M13.5286 0.590391H12.5786C13.9777 0.590391 15.1119 1.72548 15.1119 3.1257V9.30548C15.1119 10.7057 13.9777 11.8408 12.5786 11.8408H13.5286C14.9277 11.8408 16.0619 10.7057 16.0619 9.30548V3.1257C16.0619 1.72548 14.9277 0.590391 13.5286 0.590391Z"
        fill="white" />
    <path
        d="M6.31024 4.01118V8.4194C6.31024 8.71277 6.63039 8.89367 6.8814 8.74216L10.5326 6.53803C10.7754 6.39147 10.7754 6.03911 10.5326 5.89252L6.8814 3.68839C6.63039 3.53691 6.31024 3.71781 6.31024 4.01118Z"
        fill="#4179BD" />
</svg>