<svg width="17" height="12" viewBox="0 0 17 12" fill="none" xmlns="http://www.w3.org/2000/svg">
    <path
        d="M14.1414 11.7231H3.47182C2.07216 11.7231 0.9375 10.5884 0.9375 9.18873V3.00698C0.9375 1.60732 2.07216 0.472656 3.47182 0.472656H14.1415C15.5411 0.472656 16.6758 1.60732 16.6758 3.00698V9.18876C16.6758 10.5884 15.5411 11.7231 14.1414 11.7231Z"
        fill="#36383A" />
    <path
        d="M14.1424 0.472412H13.1924C14.5915 0.472412 15.7257 1.6075 15.7257 3.00772V9.1875C15.7257 10.5877 14.5915 11.7228 13.1924 11.7228H14.1424C15.5415 11.7228 16.6757 10.5877 16.6757 9.1875V3.00772C16.6757 1.6075 15.5415 0.472412 14.1424 0.472412Z"
        fill="#36383A" />
    <path
        d="M6.92383 3.89314V8.30136C6.92383 8.59473 7.24397 8.77563 7.49499 8.62412L11.1461 6.41999C11.3889 6.27343 11.3889 5.92107 11.1461 5.77448L7.49499 3.57035C7.24397 3.41887 6.92383 3.59977 6.92383 3.89314Z"
        fill="white" />
</svg>