<?xml version="1.0" encoding="UTF-8" standalone="no"?>
<svg
   data-v-0dd9719b=""
   version="1.0"
   width="236"
   height="236"
   viewBox="0 0 236 236"
   preserveAspectRatio="xMidYMid"
   color-interpolation-filters="sRGB"
   id="svg6"
   sodipodi:docname="garage-logo.svg"
   inkscape:version="1.3.2 (091e20e, 2023-11-25)"
   xmlns:inkscape="http://www.inkscape.org/namespaces/inkscape"
   xmlns:sodipodi="http://sodipodi.sourceforge.net/DTD/sodipodi-0.dtd"
   xmlns:xlink="http://www.w3.org/1999/xlink"
   xmlns="http://www.w3.org/2000/svg"
   xmlns:svg="http://www.w3.org/2000/svg">
  <defs
     id="defs1">
    <linearGradient
       id="swatch2"
       inkscape:swatch="solid">
      <stop
         style="stop-color:#127492;stop-opacity:1;"
         offset="0"
         id="stop2" />
    </linearGradient>
    <linearGradient
       id="swatch1"
       inkscape:swatch="solid">
      <stop
         style="stop-color:#000000;stop-opacity:1;"
         offset="0"
         id="stop1" />
    </linearGradient>
    <linearGradient
       inkscape:collect="always"
       xlink:href="#swatch2"
       id="linearGradient2"
       x1="25.437962"
       y1="92.179352"
       x2="143.94096"
       y2="92.179352"
       gradientUnits="userSpaceOnUse" />
    <linearGradient
       inkscape:collect="always"
       xlink:href="#swatch2"
       id="linearGradient3"
       gradientUnits="userSpaceOnUse"
       x1="25.437962"
       y1="92.179352"
       x2="143.94096"
       y2="92.179352" />
  </defs>
  <sodipodi:namedview
     id="namedview1"
     pagecolor="#ffffff"
     bordercolor="#000000"
     borderopacity="0.25"
     inkscape:showpageshadow="2"
     inkscape:pageopacity="0.0"
     inkscape:pagecheckerboard="0"
     inkscape:deskcolor="#d1d1d1"
     inkscape:zoom="1.4494888"
     inkscape:cx="-45.533294"
     inkscape:cy="94.51608"
     inkscape:window-width="1536"
     inkscape:window-height="847"
     inkscape:window-x="0"
     inkscape:window-y="25"
     inkscape:window-maximized="1"
     inkscape:current-layer="svg6" />
  <g
     id="g1"
     transform="matrix(4.7433009,0,0,4.7435032,-0.58489439,-0.58995175)">
    <path
       d="m 25.117,49.455 c -1.077,0 -2.089,-0.413 -2.85,-1.163 L 1.748,28.05 C 0.968,27.28 0.54,26.247 0.545,25.142 0.55,24.045 0.98,23.007 1.757,22.219 L 21.902,1.799 c 0.797,-0.808 1.855,-1.253 2.98,-1.253 1.077,0 2.089,0.414 2.851,1.164 l 20.52,20.242 c 0.781,0.77 1.208,1.803 1.203,2.908 -0.005,1.096 -0.436,2.134 -1.213,2.922 l -20.145,20.42 c -0.797,0.808 -1.856,1.253 -2.981,1.253 z M 24.882,3.3601848 c -0.585,0 -1.139,0.233 -1.557,0.657 L 3.9961848,23.623 c -0.407,0.439227 -0.633,0.956 -0.636,1.527 -0.002,0.563 0.213,1.087 0.607,1.476 L 23.672,46.868 c 0.795,0.784 2.192,0.75 3.002,-0.07 l 19.329815,-20.42 c 0.408,-0.414 0.635,-0.956 0.637,-1.527 0.003,-0.563 -0.213,-1.086 -0.607,-1.476 L 26.328,3.9481848 c -0.385,-0.379 -0.898,-0.588 -1.446,-0.588 z"
       id="path1"
       style="fill:#127492;fill-opacity:0.376471"
       sodipodi:nodetypes="scccccscccccssccccccccccs" />
  </g>
  <g
     id="g2"
     transform="matrix(0.91251356,0,0,0.91251356,40.719718,33.885094)"
     style="fill:url(#linearGradient2);fill-opacity:1">
    <path
       d="m 25.437962,91.828081 c 0,41.173709 26.370241,62.325099 63.755265,62.325099 18.065243,0 34.323963,-5.06831 45.163113,-12.8464 v -35.40286 h 9.58462 V 88.917569 H 84.150012 v 16.986351 h 25.115708 v 22.40592 c -5.6203,2.15779 -11.566773,3.26178 -17.889609,3.26178 -23.86118,0 -39.743542,-14.82855 -39.743542,-39.743539 0,-24.388083 15.531094,-39.216639 35.402864,-39.216639 6.674105,0 12.821307,0.727628 18.416517,1.63089 l 2.18288,21.327027 h 24.38808 V 37.632342 c -13.54893,-4.340677 -25.46697,-7.426824 -44.435483,-7.426824 -35.603589,0 -62.149465,20.975759 -62.149465,61.622563 z"
       id="path2"
       style="fill:url(#linearGradient3);fill-opacity:1;stroke-width:2.50906" />
  </g>
</svg>
