<?xml version="1.0" encoding="UTF-8" standalone="no"?>
<svg
   data-v-0dd9719b=""
   version="1.0"
   width="712.62531"
   height="235.97134"
   viewBox="0 0 712.62531 235.97135"
   preserveAspectRatio="xMidYMid"
   color-interpolation-filters="sRGB"
   id="svg5"
   sodipodi:docname="garage-logo-with-text.svg"
   inkscape:version="1.3.2 (091e20e, 2023-11-25)"
   xmlns:inkscape="http://www.inkscape.org/namespaces/inkscape"
   xmlns:sodipodi="http://sodipodi.sourceforge.net/DTD/sodipodi-0.dtd"
   xmlns="http://www.w3.org/2000/svg"
   xmlns:svg="http://www.w3.org/2000/svg">
  <defs
     id="defs5" />
  <sodipodi:namedview
     id="namedview5"
     pagecolor="#ffffff"
     bordercolor="#000000"
     borderopacity="0.25"
     inkscape:showpageshadow="2"
     inkscape:pageopacity="0.0"
     inkscape:pagecheckerboard="0"
     inkscape:deskcolor="#d1d1d1"
     inkscape:zoom="0.72031149"
     inkscape:cx="93.015314"
     inkscape:cy="88.85045"
     inkscape:window-width="1536"
     inkscape:window-height="847"
     inkscape:window-x="0"
     inkscape:window-y="25"
     inkscape:window-maximized="1"
     inkscape:current-layer="svg5" />
  <g
     id="g1"
     transform="matrix(4.6326608,0,0,4.6328583,5.4754005,3.4704594)"
     style="fill:#127492;fill-opacity:0.376471">
    <path
       d="m 25.117,49.455 c -1.077,0 -2.089,-0.413 -2.85,-1.163 L 1.748,28.05 C 0.968,27.28 0.54,26.247 0.545,25.142 0.55,24.045 0.98,23.007 1.757,22.219 L 21.902,1.799 c 0.797,-0.808 1.855,-1.253 2.98,-1.253 1.077,0 2.089,0.414 2.851,1.164 l 20.52,20.242 c 0.781,0.77 1.208,1.803 1.203,2.908 -0.005,1.096 -0.436,2.134 -1.213,2.922 l -20.145,20.42 c -0.797,0.808 -1.856,1.253 -2.981,1.253 z M 24.882,2.545 c -0.585,0 -1.139,0.233 -1.557,0.657 L 3.181,23.623 c -0.407,0.413 -0.633,0.956 -0.636,1.527 -0.002,0.563 0.213,1.087 0.607,1.476 l 20.52,20.242 c 0.795,0.784 2.192,0.75 3.002,-0.07 l 20.145,-20.42 c 0.408,-0.414 0.635,-0.956 0.637,-1.527 0.003,-0.563 -0.213,-1.086 -0.607,-1.476 L 26.328,3.133 C 25.943,2.754 25.43,2.545 24.882,2.545 Z"
       id="path1"
       style="fill:#127492;fill-opacity:0.376471" />
  </g>
  <g
     id="g2"
     transform="matrix(2.3961677,0,0,2.3961677,62.508548,60.361674)">
    <path
       transform="translate(-2.448,48.816)"
       d="m 2.45,-24.26 c 0,16.41 10.51,24.84 25.41,24.84 7.2,0 13.68,-2.02 18,-5.12 v -14.11 h 3.82 v -6.77 H 25.85 v 6.77 h 10.01 v 8.93 c -2.24,0.86 -4.61,1.3 -7.13,1.3 -9.51,0 -15.84,-5.91 -15.84,-15.84 0,-9.72 6.19,-15.63 14.11,-15.63 2.66,0 5.11,0.29 7.34,0.65 l 0.87,8.5 h 9.72 v -15.12 c -5.4,-1.73 -10.15,-2.96 -17.71,-2.96 -14.19,0 -24.77,8.36 -24.77,24.56 z"
       id="path2"
       style="fill:#127492;fill-opacity:1" />
  </g>
  <g
     id="g5"
     transform="matrix(1.8521481,0,0,1.8521481,249.45144,102.81696)"
     style="fill:#127492;fill-opacity:1">
    <path
       d="m 2.5749722,7.9942108 c 0,16.0017392 10.2541768,24.2148772 24.7863688,24.2148772 7.02117,0 13.340225,-1.959398 17.552928,-4.980133 v -13.76476 h 3.722852 V 6.8675584 H 25.401944 v 6.5966366 h 9.747998 v 8.702985 c -2.171665,0.849072 -4.490285,1.273607 -6.93953,1.273607 -9.274476,0 -15.446577,-5.76389 -15.446577,-15.4465762 0,-9.4867423 6.041474,-15.2343034 13.764762,-15.2343034 2.596202,0 4.980132,0.2775812 7.151797,0.6204751 l 0.849073,8.2947768 h 9.470415 V -13.069297 c -5.257714,-1.681816 -9.894952,-2.873782 -17.275345,-2.873782 -13.830074,0 -24.1495648,8.1314954 -24.1495648,23.9372898 z M 52.572242,13.464195 c 0,12.082944 6.596636,18.744893 15.658845,18.744893 4.490282,0 8.000869,-1.404235 10.59707,-4.212703 v 3.65754 H 93.017452 V 24.485798 H 88.380215 V -4.431625 h -9.552058 v 3.72285191 C 76.37891,-3.5988819 72.786685,-5.0031152 68.231087,-5.0031152 c -9.062209,0 -15.658845,6.6782745 -15.658845,18.4673102 z m 9.829642,0.212268 c 0,-6.4496822 3.64121,-10.1725342 8.702985,-10.1725342 3.657539,0 6.596633,2.1716636 7.723288,5.8292028 v 8.9152544 c -1.045013,3.5759 -4.065749,5.747564 -7.723288,5.747564 -5.061775,0 -8.702985,-3.85348 -8.702985,-10.319487 z m 52.234236,17.977462 v -7.168127 h -4.63726 v -6.661946 c 0.84909,-8.9968983 5.48632,-13.617807 12.5075,-13.617807 0.62048,0 1.25729,0.065312 2.0247,0.130627 v -9.2581461 c -0.55516,-0.081636 -1.11031,-0.081636 -1.6165,-0.081636 -5.89452,0 -10.10721,3.0207355 -12.9157,7.4457046 V -4.4316198 H 95.891234 v 7.0864816 h 4.555596 V 24.485803 h -4.555596 v 7.168127 z m 11.38082,-18.18973 c 0,12.082944 6.59664,18.744893 15.65884,18.744893 4.49027,0 8.00088,-1.404235 10.59708,-4.212703 v 3.65754 h 14.17295 v -7.168127 h -4.62089 V -4.431625 h -9.55206 v 3.72285191 c -2.46558,-2.89010881 -6.04148,-4.29434211 -10.59708,-4.29434211 -9.0622,0 -15.65884,6.6782745 -15.65884,18.4673102 z m 9.82965,0.212268 c 0,-6.4496822 3.6412,-10.1725342 8.70298,-10.1725342 3.6412,0 6.59665,2.1716636 7.72329,5.8292028 v 8.9152544 c -1.06135,3.5759 -4.08209,5.747564 -7.72329,5.747564 -5.06178,0 -8.70298,-3.85348 -8.70298,-10.319487 z m 33.27707,19.806232 c 0,8.066181 8.84995,11.086919 18.67959,11.086919 9.82963,0 18.59794,-3.020738 18.59794,-11.086919 0,-7.592661 -8.63769,-9.764326 -18.67959,-9.764326 -1.6165,0 -3.21668,0.06531 -4.70254,0.212266 -0.27758,-0.979697 -0.21227,-2.041037 0.21227,-3.086048 1.40423,0.342895 3.02073,0.489849 4.70255,0.489849 8.99689,0 15.38126,-4.082077 15.38126,-12.7034215 0,-2.4655732 -0.48985,-4.5066106 -1.40424,-6.1231121 l 6.46601,0.1469542 v -7.168123 l -20.50836,-0.065312 c -9.12752,0 -16.08337,4.00043321 -16.08337,13.2095945 0,4.0004359 1.33892,6.9395289 3.59223,8.9152539 -1.20829,2.236978 -1.48588,5.404669 -0.70212,8.131496 -3.37995,1.485876 -5.55163,3.869809 -5.55163,7.804929 z M 187.7216,14.590847 c -4.00042,0 -6.8089,-2.106353 -6.8089,-5.9598325 0,-4.1473883 2.31863,-6.319052 6.8089,-6.319052 4.70256,0 6.46601,2.4492448 6.46601,6.319052 0,3.2983185 -2.04104,5.9598325 -6.46601,5.9598325 z m 0.0817,22.680013 c -5.06177,0 -8.50706,-0.84907 -8.50706,-3.853478 0,-2.824796 3.44529,-3.592227 8.50706,-3.592227 5.32302,0 8.34377,1.06134 8.34377,3.592227 0,3.004408 -3.29832,3.853478 -8.34377,3.853478 z m 21.76561,-23.806665 c 0,12.082944 7.57633,18.744893 18.46731,18.744893 6.51498,0 11.08692,-2.024711 14.80976,-5.192402 l -2.2533,-7.511019 c -3.02073,2.465574 -6.10678,4.424968 -10.53176,4.424968 -5.61692,0 -9.04588,-2.743153 -10.25416,-7.233438 h 24.72103 c 0.0653,-1.045011 0.14697,-3.151361 0.14697,-4.065746 0,-10.3194885 -5.33936,-17.6345662 -16.8508,-17.6345662 -10.46644,0 -18.25505,6.6782745 -18.25505,18.4673102 z m 9.96025,-2.449247 c 0.78377,-5.1270878 4.08209,-8.2947774 8.57237,-8.2947774 5.82921,0 8.55604,4.0820739 8.55604,8.2947774 z"
       id="path5"
       style="fill:#127492;fill-opacity:1;stroke-width:1.63283" />
  </g>
</svg>
