<svg width="612" height="459" viewBox="0 0 612 459" fill="none" xmlns="http://www.w3.org/2000/svg">
    <g clipPath="url(#clip0_90_107)">
        <g opacity="0.63">
            <path
                d="M439.852 450.232C478.276 443.497 514.411 422.021 536.932 390.252C559.452 358.483 567.468 316.166 556.144 278.806C544.948 242.208 515.302 211.709 478.913 199.637C451.684 190.615 420.893 190.996 396.846 175.238C366.819 155.541 356.894 116.91 335.519 88.0639C301.802 42.5706 238.057 24.3986 183.219 38.7583C128.38 53.1179 83.5937 96.3239 60.437 147.917C37.4075 199.51 34.3538 258.728 44.4054 314.387C52.2939 357.974 78.886 413.38 107.514 447.182L439.852 450.232Z"
                fill="#C8D8EB" />
        </g>
        <path
            d="M595.333 452.138C595.333 455.95 464.154 459 302.438 459C140.722 459 9.41602 455.95 9.41602 452.138C9.41602 448.326 140.595 445.276 302.311 445.276C464.026 445.276 595.333 448.326 595.333 452.138Z"
            fill="#91C9FF" />
        <path opacity="0.33"
            d="M599.786 261.65C599.15 260.888 598.259 260.38 597.368 259.871C585.027 254.026 570.776 250.722 557.544 254.026C544.311 257.33 532.479 268.512 531.206 282.11C530.824 286.049 531.461 290.243 533.496 293.674C531.079 295.58 528.789 297.486 526.498 299.519C527.007 298.121 527.389 296.723 527.771 295.326C529.17 289.988 529.934 284.27 528.025 279.187C527.771 278.424 527.262 277.535 526.626 277.154C525.99 276.772 525.353 276.772 524.59 276.772C518.737 276.518 512.757 277.027 507.286 278.806C508.94 274.485 510.467 270.037 512.121 265.717C512.884 263.556 513.775 261.269 514.666 259.109C515.047 259.236 515.556 259.109 515.684 258.728C520.264 261.396 526.498 261.65 531.715 260.761C537.186 259.744 542.148 257.076 546.474 253.645C552.709 248.816 557.671 242.335 560.725 235.091C564.16 226.958 565.432 218.063 565.687 209.295C565.941 199.383 564.923 188.963 559.452 180.703C558.562 179.432 557.544 178.034 556.017 177.653C554.872 177.272 553.6 177.526 552.327 177.653C535.787 180.576 519.119 187.565 508.304 200.399C497.489 213.234 493.672 232.931 502.197 247.418C504.741 251.738 508.558 255.551 513.139 257.457C510.34 264.827 507.54 272.198 504.869 279.695C502.451 280.712 500.034 281.983 497.998 283.507C490.618 289.099 486.038 299.138 488.837 308.033C489.6 310.448 491 312.862 492.908 314.387C490.364 322.393 487.946 330.399 485.656 338.404C484.002 319.343 479.04 300.663 471.151 283.253C471.66 283.253 472.296 282.618 472.042 281.983C472.042 281.855 472.042 281.855 471.915 281.728C476.495 278.933 479.549 274.231 481.33 269.275C486.928 253.39 479.422 234.837 466.316 224.417C453.211 213.87 435.526 210.311 418.731 210.566C417.458 210.566 416.186 210.693 415.041 211.201C413.641 211.963 412.878 213.488 412.242 214.886C408.424 224.036 409.57 234.456 411.733 244.114C413.641 252.628 416.568 261.142 421.53 268.385C425.983 274.866 432.09 280.203 439.215 283.889C444.178 286.43 449.521 288.082 455.12 287.955C459.827 287.828 465.426 286.684 469.37 283.762C475.223 296.469 479.422 309.939 481.839 323.791C478.658 317.691 474.587 311.973 469.752 307.017C470.261 305.365 470.133 303.458 469.752 301.806C468.225 294.436 460.973 289.226 453.593 288.336C446.086 287.447 438.579 290.115 432.345 294.182C431.836 294.436 431.454 294.817 431.072 295.326C430.691 295.961 430.818 296.723 430.945 297.359C431.708 301.679 434.508 305.365 437.561 308.542C440.36 311.337 443.414 313.879 446.977 315.531C450.158 316.929 453.72 317.564 457.283 317.31C459.7 317.056 462.245 316.42 464.281 315.15C466.189 313.879 468.225 311.846 468.861 309.685C469.116 309.812 469.243 309.685 469.37 309.431C474.841 315.404 479.422 322.393 482.602 329.89C482.602 330.017 482.73 330.145 482.857 330.272C483.493 334.719 483.875 339.167 484.129 343.742C484.129 343.742 484.129 343.742 484.129 343.869C483.111 347.427 482.221 350.985 481.33 354.543C481.33 354.543 481.33 354.416 481.203 354.416C481.203 354.416 481.076 354.416 481.076 354.289C482.221 352.129 482.221 349.714 481.712 347.3C480.185 339.929 472.933 334.719 465.553 333.83C458.046 332.94 450.539 335.609 444.305 339.675C443.796 339.929 443.414 340.311 443.032 340.819C442.651 341.454 442.778 342.217 442.905 342.852C443.669 347.173 446.468 350.858 449.521 354.035C452.321 356.831 455.374 359.372 458.937 361.024C462.118 362.422 465.68 363.057 469.243 362.803C471.66 362.549 474.205 361.914 476.241 360.643C478.149 359.372 480.185 357.339 480.821 355.179C480.948 355.179 481.076 355.179 481.203 355.179C480.567 357.974 479.803 360.643 479.167 363.439C479.167 363.566 479.04 363.693 479.04 363.82C478.658 365.345 478.276 366.87 478.022 368.395C475.605 379.45 473.442 390.506 471.787 401.689H447.867C445.323 401.689 443.414 404.103 444.05 406.645L454.229 443.878L455.883 450.105C456.392 451.757 457.919 453.027 459.7 453.027H492.654C494.435 453.027 495.962 451.884 496.471 450.105L507.922 406.645C508.431 404.611 507.286 402.578 505.378 401.943C504.996 401.816 504.614 401.689 504.105 401.689H473.696C475.605 389.108 478.022 376.654 480.948 364.201C486.928 354.289 496.98 348.698 507.668 345.012C507.413 348.698 509.067 352.637 511.23 355.687C513.521 358.864 516.701 361.151 520.137 362.93C525.099 365.345 530.57 366.615 536.041 366.361C542.148 366.107 548.128 364.201 553.727 361.787C560.089 358.991 566.323 355.306 569.886 349.46C570.395 348.571 570.904 347.427 570.776 346.41C570.649 345.521 570.14 344.758 569.631 344.123C562.888 334.592 553.6 326.205 542.276 323.282C530.952 320.233 517.465 323.664 510.976 333.449C509.067 336.371 507.795 339.802 507.922 343.233C499.906 345.902 492.272 349.714 486.165 355.433C489.728 343.615 497.871 333.321 505.632 324.045C507.413 322.012 509.195 319.978 510.976 317.945C511.23 317.818 511.612 317.691 511.866 317.564C515.811 315.658 519.246 312.862 521.791 309.304C522.936 307.652 523.954 305.873 524.844 304.094C527.389 301.806 529.934 299.519 532.606 297.359C532.987 297.105 533.369 296.723 533.751 296.469C534.005 296.723 534.26 296.85 534.514 296.596C536.296 300.536 540.367 303.586 544.184 305.492C548.256 307.398 552.836 308.033 557.289 307.779C563.651 307.525 570.013 305.619 575.484 302.315C581.591 298.63 586.553 293.292 590.879 287.701C595.714 281.347 600.04 273.977 600.295 265.971C600.676 264.065 600.549 262.667 599.786 261.65ZM493.29 336.498C488.964 342.852 485.402 349.714 483.62 357.212C483.62 357.339 483.62 357.339 483.62 357.466C483.239 357.974 482.73 358.483 482.348 358.991C484.129 351.493 486.165 344.123 488.201 336.752C490.237 329.763 492.272 322.901 494.563 316.039C494.69 316.039 494.69 315.912 494.817 315.912C496.98 317.945 500.288 318.835 503.215 318.962C504.614 319.089 506.141 318.835 507.54 318.581C502.451 324.172 497.616 330.145 493.29 336.498Z"
            fill="#66A8CE" />
        <g opacity="0.7">
            <path
                d="M536.932 221.748C527.898 245.13 518.737 268.64 510.594 292.403C502.451 315.912 495.199 339.802 489.728 364.201C486.674 377.925 484.13 391.777 482.348 405.755C482.221 406.899 484.002 407.28 484.13 406.136C487.31 381.356 492.654 356.958 499.525 332.94C506.396 308.923 514.666 285.414 523.445 262.032C528.407 248.816 533.497 235.727 538.586 222.638C539.095 221.367 537.441 220.605 536.932 221.748Z"
                fill="#E28444" />
        </g>
        <g opacity="0.7">
            <path
                d="M496.853 353.654C499.907 340.692 508.686 329.509 517.083 319.47C525.226 309.812 534.26 300.79 544.184 292.911C549.655 288.463 555.508 284.27 561.488 280.458C562.506 279.822 561.488 278.297 560.47 278.933C549.528 285.922 539.349 294.055 530.061 303.077C520.773 312.1 512.121 322.012 504.869 332.686C500.543 339.04 496.98 345.902 495.199 353.4C494.817 354.543 496.598 354.924 496.853 353.654Z"
                fill="#E28444" />
        </g>
        <path
            d="M497.616 339.548C496.344 318.072 491 296.85 481.839 277.535C479.295 272.071 476.368 266.86 473.315 261.777C472.678 260.761 471.152 261.777 471.788 262.794C482.857 280.966 490.364 301.171 493.927 322.139C494.945 327.984 495.581 333.83 495.835 339.802C495.835 340.946 497.744 340.819 497.616 339.548Z"
            fill="#E28444" />
        <g opacity="0.7">
            <path
                d="M492.527 359.88C500.924 346.156 516.829 340.438 531.843 337.134C532.988 336.88 532.351 335.1 531.206 335.355C515.811 338.786 499.525 344.885 490.873 359.118C490.237 360.135 492.018 360.897 492.527 359.88Z"
                fill="#E28444" />
        </g>
        <path
            d="M495.962 325.443C490.491 312.735 481.458 301.552 470.007 293.674C468.989 293.038 467.844 294.436 468.734 295.071C479.931 302.823 488.837 313.625 494.181 326.078C494.69 327.095 496.471 326.459 495.962 325.443Z"
            fill="#E28444" />
        <g opacity="0.6">
            <path
                d="M525.48 254.026C520.518 252.247 516.447 248.18 513.775 243.605C505.123 229.119 508.94 209.549 519.882 196.587C530.824 183.625 547.365 176.763 563.905 173.841C565.178 173.586 566.45 173.459 567.595 173.841C569.122 174.349 570.14 175.62 571.03 176.89C576.501 185.15 577.519 195.571 577.265 205.483C577.01 214.251 575.865 223.146 572.303 231.279C569.122 238.522 564.16 245.003 558.052 249.832C553.726 253.263 548.637 255.932 543.293 256.948C537.822 257.965 531.079 257.584 526.498 254.534"
                fill="#F6A366" />
        </g>
        <path opacity="0.6"
            d="M559.962 218.826C550.801 228.102 540.367 236.362 529.298 243.097C532.352 231.279 538.077 220.223 544.566 209.676C550.673 207.389 556.399 204.339 561.87 200.781C562.888 200.145 561.87 198.62 560.852 199.256C556.272 202.306 551.437 204.847 546.347 207.007C548.638 203.322 551.055 199.764 553.473 196.079C554.109 195.062 552.709 193.919 552.073 194.808C547.238 202.179 542.276 209.676 537.95 217.555C537.695 216.411 537.695 215.267 537.568 213.997C537.568 211.709 537.568 209.549 537.696 207.262C537.95 203.068 538.459 198.747 539.222 194.554C539.477 193.41 537.568 193.029 537.441 194.173C536.678 198.62 536.169 203.068 535.914 207.643C535.787 209.803 535.787 212.091 535.787 214.251C535.787 216.157 535.914 217.936 536.805 219.715C534.006 225.179 531.461 230.644 529.425 236.489C523.191 227.594 520.392 216.665 521.664 205.864C521.791 204.72 520.01 204.339 519.883 205.483C518.483 217.174 521.664 229.119 528.789 238.649C528.662 239.031 528.535 239.412 528.407 239.793C527.008 244.495 526.117 249.197 525.608 254.026C525.481 255.169 527.389 255.551 527.389 254.407C527.644 251.357 528.153 248.434 528.789 245.512C540.749 238.395 551.819 229.754 561.488 219.842C562.252 219.207 560.725 217.936 559.962 218.826Z"
            fill="#E28444" />
        <path
            d="M483.494 277.916C488.074 275.12 491.255 270.419 493.036 265.463C498.634 249.578 491.128 231.025 478.022 220.605C464.917 210.057 447.232 206.499 430.437 206.753C429.164 206.753 427.892 206.88 426.747 207.389C425.347 208.151 424.584 209.676 423.948 211.074C420.131 220.223 421.276 230.644 423.439 240.301C425.347 248.816 428.274 257.33 433.236 264.573C437.689 271.054 443.796 276.391 450.921 280.076C455.884 282.618 461.227 284.27 466.826 284.143C472.297 284.016 479.04 282.364 482.857 278.424"
            fill="#F6A366" />
        <path opacity="0.23"
            d="M442.778 250.086C453.592 257.457 465.298 263.429 477.64 268.004C472.296 256.949 464.535 247.164 456.137 238.268C449.775 237.125 443.541 235.346 437.434 232.804C436.289 232.296 437.052 230.644 438.197 231.152C443.286 233.312 448.503 234.837 453.974 235.981C451.048 232.804 447.994 229.754 444.941 226.704C444.05 225.815 445.195 224.417 446.086 225.179C452.32 231.533 458.682 237.887 464.407 244.749C464.407 243.605 464.28 242.462 464.026 241.191C463.644 239.031 463.135 236.87 462.626 234.71C461.608 230.644 460.209 226.577 458.682 222.638C458.3 221.494 459.954 220.859 460.463 222.002C462.117 226.196 463.517 230.517 464.535 234.964C465.044 237.125 465.553 239.285 465.934 241.445C466.316 243.224 466.443 245.13 466.062 246.909C469.879 251.611 473.441 256.694 476.495 261.904C480.821 251.993 481.457 240.683 478.149 230.39C477.767 229.246 479.548 228.61 479.93 229.754C483.493 240.937 482.729 253.39 477.64 263.938C477.64 263.938 477.64 263.938 477.64 264.065C477.767 264.446 478.022 264.7 478.149 265.081C480.439 269.402 482.22 273.85 483.62 278.551C484.002 279.695 482.22 280.331 481.839 279.187C480.948 276.264 479.93 273.468 478.785 270.673C465.68 265.971 453.211 259.617 441.632 251.865C440.615 250.976 441.76 249.451 442.778 250.086Z"
            fill="white" />
        <path
            d="M480.694 304.983C481.839 302.823 481.839 300.409 481.33 297.994C479.804 290.624 472.551 285.414 465.172 284.524C457.665 283.635 450.158 286.303 443.923 290.37C443.414 290.624 443.033 291.005 442.651 291.513C442.269 292.149 442.396 292.911 442.524 293.546C443.287 297.867 446.086 301.552 449.14 304.729C451.939 307.525 454.993 310.066 458.555 311.718C461.736 313.116 465.299 313.752 468.861 313.497C471.279 313.243 473.824 312.608 475.859 311.337C477.895 310.066 480.058 307.906 480.567 305.492"
            fill="#F6A366" />
        <path opacity="0.23"
            d="M458.809 303.967C464.662 304.221 470.515 303.713 476.241 302.569C471.66 299.646 466.444 297.74 461.1 296.215C458.428 297.232 455.629 297.994 452.702 298.502C452.193 298.63 452.066 297.74 452.575 297.74C454.992 297.359 457.41 296.723 459.7 295.834C457.792 295.326 456.01 294.817 454.102 294.436C453.593 294.309 453.72 293.547 454.229 293.674C458.046 294.563 461.99 295.58 465.68 296.85C465.426 296.342 465.044 295.961 464.662 295.58C464.026 294.817 463.263 294.182 462.627 293.419C461.227 292.149 459.827 290.878 458.301 289.734C457.919 289.353 458.428 288.718 458.809 289.099C460.464 290.37 461.99 291.64 463.39 293.038C464.026 293.674 464.79 294.436 465.426 295.198C465.935 295.834 466.444 296.469 466.698 297.232C469.243 298.121 471.787 299.138 474.205 300.536C473.569 295.707 471.151 291.259 467.461 288.209C467.08 287.828 467.589 287.193 467.97 287.574C471.915 291.005 474.587 295.834 475.096 301.044C475.223 301.171 475.35 301.171 475.604 301.298C477.513 302.442 479.167 303.713 480.821 305.11C481.203 305.492 480.694 306.127 480.312 305.746C479.294 304.856 478.276 303.967 477.131 303.204C471.024 304.475 464.79 304.983 458.682 304.729C458.173 304.729 458.301 303.967 458.809 303.967Z"
            fill="white" />
        <path
            d="M492.781 350.223C493.926 348.062 493.926 345.648 493.417 343.233C491.89 335.863 484.638 330.653 477.258 329.763C469.752 328.874 462.245 331.542 456.01 335.609C455.501 335.863 455.12 336.244 454.738 336.752C454.356 337.388 454.483 338.15 454.611 338.786C455.374 343.106 458.173 346.791 461.227 349.968C464.026 352.764 467.08 355.306 470.642 356.958C473.823 358.355 477.386 358.991 480.948 358.737C483.366 358.482 485.91 357.847 487.946 356.576C489.982 355.306 492.145 353.145 492.654 350.731"
            fill="#F6A366" />
        <path
            d="M470.896 349.206C476.749 349.46 482.602 348.952 488.328 347.935C483.747 345.012 478.53 343.106 473.187 341.581C470.515 342.598 467.716 343.36 464.789 343.869C464.28 343.996 464.153 343.106 464.662 343.106C467.079 342.725 469.497 342.09 471.787 341.2C469.878 340.692 468.097 340.184 466.189 339.802C465.68 339.675 465.807 338.913 466.316 339.04C470.133 339.929 474.077 340.946 477.767 342.217C477.513 341.708 477.131 341.327 476.749 340.946C476.113 340.184 475.35 339.548 474.713 338.786C473.314 337.515 471.914 336.244 470.387 335.1C470.006 334.719 470.515 334.084 470.896 334.465C472.55 335.736 474.077 337.007 475.477 338.404C476.113 339.04 476.876 339.802 477.513 340.565C478.022 341.2 478.53 341.836 478.785 342.598C481.33 343.488 483.874 344.504 486.292 345.902C485.656 341.073 483.238 336.625 479.548 333.576C479.167 333.194 479.676 332.559 480.057 332.94C484.002 336.371 486.674 341.2 487.182 346.41C487.31 346.537 487.437 346.537 487.691 346.664C489.6 347.808 491.254 349.079 492.908 350.477C493.29 350.858 492.781 351.493 492.399 351.112C491.381 350.223 490.363 349.333 489.218 348.571C483.111 349.841 476.876 350.35 470.769 350.095C470.26 349.968 470.387 349.206 470.896 349.206Z"
            fill="#E28444" />
        <g opacity="0.6">
            <path
                d="M545.457 290.878C543.039 287.32 542.276 282.745 542.658 278.424C543.803 264.827 555.636 253.645 568.995 250.341C582.355 247.037 596.478 250.213 608.82 256.186C609.71 256.567 610.728 257.076 611.237 257.965C612.001 258.982 612.128 260.38 612.001 261.65C611.746 269.656 607.42 277.027 602.585 283.38C598.259 289.099 593.297 294.309 587.19 297.994C581.719 301.298 575.357 303.204 568.995 303.458C564.542 303.713 559.962 303.077 555.89 301.171C551.819 299.265 547.493 295.834 545.966 291.64"
                fill="#F6A366" />
        </g>
        <path opacity="0.23"
            d="M584.899 284.016C574.339 285.795 563.651 286.303 553.091 285.541C560.725 279.187 569.758 274.612 579.047 270.673C584.136 271.944 589.353 272.706 594.696 272.96C595.714 272.96 595.714 271.435 594.696 271.435C590.243 271.308 585.79 270.673 581.464 269.656C584.772 268.385 587.953 267.115 591.261 265.844C592.152 265.463 591.77 264.065 590.879 264.319C584.136 266.86 577.265 269.529 570.776 272.579C571.158 271.689 571.667 270.927 572.176 270.037C573.194 268.512 574.339 267.115 575.484 265.717C577.647 263.048 579.937 260.507 582.482 258.092C583.118 257.457 582.1 256.313 581.464 256.949C578.792 259.49 576.375 262.286 574.084 265.081C572.939 266.479 571.921 267.877 570.904 269.402C570.013 270.673 569.25 271.944 568.995 273.468C564.542 275.629 560.216 278.17 556.144 281.093C556.272 272.325 559.58 263.684 565.56 257.203C566.196 256.44 565.178 255.424 564.542 256.059C558.053 263.175 554.49 272.579 554.617 282.11C554.617 282.11 554.617 282.11 554.617 282.237C554.363 282.364 554.109 282.618 553.854 282.745C550.8 285.159 547.874 287.828 545.329 290.878C544.693 291.64 545.711 292.657 546.347 292.022C548.001 290.115 549.655 288.463 551.437 286.811C562.761 287.701 574.084 287.32 585.281 285.414C586.172 285.287 585.917 283.762 584.899 284.016Z"
            fill="white" />
        <g opacity="0.6">
            <path
                d="M505.378 311.21C502.96 309.558 501.306 307.017 500.416 304.221C497.616 295.326 502.07 285.287 509.577 279.695C516.956 274.104 526.753 272.452 536.041 272.96C536.678 272.96 537.441 273.087 538.077 273.341C538.841 273.723 539.222 274.612 539.477 275.375C541.385 280.458 540.622 286.176 539.222 291.513C537.95 296.215 536.296 300.79 533.369 304.729C530.825 308.287 527.262 311.083 523.445 312.989C520.646 314.26 517.72 315.149 514.666 314.895C511.612 314.768 508.05 313.752 505.887 311.464"
                fill="#F6A366" />
        </g>
        <path opacity="0.7"
            d="M528.28 296.596C522.173 300.409 515.557 303.586 508.813 305.873C511.867 299.9 516.447 294.69 521.155 289.861C524.718 289.353 528.153 288.463 531.461 287.193C532.097 286.939 531.715 286.049 531.079 286.176C528.28 287.193 525.354 288.082 522.3 288.591C523.954 286.939 525.735 285.287 527.517 283.635C528.026 283.126 527.39 282.364 526.881 282.745C523.318 286.049 519.755 289.48 516.447 293.165C516.447 292.53 516.575 291.895 516.702 291.259C516.956 290.115 517.338 288.845 517.592 287.701C518.229 285.414 518.992 283.253 520.01 281.093C520.264 280.458 519.374 280.076 519.119 280.712C518.101 282.999 517.338 285.287 516.575 287.701C516.193 288.845 515.938 289.988 515.684 291.259C515.429 292.276 515.302 293.292 515.557 294.309C513.394 296.851 511.358 299.519 509.577 302.442C507.414 296.85 507.159 290.624 509.195 285.032C509.449 284.397 508.431 284.016 508.304 284.651C506.141 290.751 506.269 297.613 508.94 303.586C508.813 303.713 508.686 303.967 508.559 304.094C507.286 306.381 506.141 308.923 505.251 311.464C504.996 312.1 506.014 312.481 506.141 311.846C506.65 310.321 507.286 308.669 508.05 307.271C515.302 304.983 522.3 301.679 528.789 297.613C529.552 297.105 528.916 296.342 528.28 296.596Z"
            fill="#E28444" />
        <g opacity="0.6">
            <path
                d="M519.374 339.294C518.992 335.609 520.392 331.924 522.427 328.874C528.916 319.216 542.403 315.785 553.727 318.708C565.051 321.757 574.339 330.017 581.083 339.548C581.592 340.311 582.101 340.946 582.228 341.836C582.355 342.979 581.846 343.996 581.337 344.885C577.775 350.731 571.54 354.543 565.178 357.212C559.58 359.626 553.6 361.532 547.493 361.787C542.022 362.041 536.423 360.77 531.588 358.355C528.153 356.704 524.972 354.289 522.682 351.112C520.392 347.935 518.61 343.615 519.246 339.802"
                fill="#F6A366" />
        </g>
        <path opacity="0.23"
            d="M551.691 350.477C543.039 347.427 534.896 343.36 527.262 338.404C535.66 336.752 544.312 337.134 552.837 338.023C556.145 341.073 559.707 343.869 563.524 346.156C564.288 346.537 564.924 345.521 564.16 345.012C560.852 343.106 557.799 340.819 555 338.277C558.053 338.659 560.98 339.04 563.906 339.421C564.669 339.548 565.051 338.277 564.288 338.15C558.18 337.261 551.946 336.371 545.839 335.99C546.475 335.482 547.238 335.1 548.002 334.719C549.401 334.084 550.801 333.448 552.2 332.813C555 331.669 557.799 330.78 560.598 330.017C561.361 329.763 561.107 328.492 560.216 328.747C557.163 329.636 554.236 330.526 551.31 331.796C549.91 332.432 548.511 332.94 547.111 333.703C545.966 334.211 544.821 334.973 543.93 335.863C539.731 335.736 535.405 335.736 531.207 336.244C534.896 329.763 541.004 324.68 548.129 322.266C548.892 322.012 548.638 320.741 547.747 320.995C539.986 323.664 533.37 329.128 529.553 336.371C529.298 336.371 529.044 336.498 528.789 336.498C525.481 337.007 522.173 337.896 518.992 339.04C518.229 339.294 518.483 340.565 519.374 340.311C521.41 339.548 523.318 339.04 525.354 338.531C533.37 343.869 542.149 348.316 551.183 351.493C552.2 352.002 552.455 350.858 551.691 350.477Z"
            fill="white" />
        <path
            d="M517.083 397.622C516.065 411.219 508.813 440.701 465.935 439.684L467.589 445.911C468.098 447.563 469.624 448.834 471.406 448.834H504.359C506.141 448.834 507.668 447.69 508.177 445.911L519.628 402.451C520.137 400.164 518.992 398.257 517.083 397.622Z"
            fill="#2D65A9" />
        <path
            d="M517.083 397.622C516.701 397.495 516.32 397.368 515.811 397.368H459.7C457.155 397.368 455.247 399.782 455.883 402.324L466.062 439.557C508.813 440.701 516.065 411.092 517.083 397.622Z"
            fill="#4179BD" />
        <path
            d="M88.9381 55.4053C100.008 77.8978 111.204 100.517 123.164 122.629C134.997 144.486 147.721 166.089 161.971 186.548C169.987 198.112 178.512 209.295 187.672 220.096C188.436 220.986 189.963 219.842 189.199 218.953C173.04 199.891 158.79 179.305 145.685 158.083C132.58 136.861 120.874 114.75 109.55 92.5116C103.188 79.9311 96.9539 67.3505 90.7194 54.7699C90.2105 53.7533 88.4292 54.3887 88.9381 55.4053Z"
            fill="#54CC85" />
        <path
            d="M159.172 174.349C151.665 163.293 149.375 149.315 147.721 136.353C146.067 123.772 145.685 111.065 146.448 98.4842C146.957 91.3679 147.721 84.3787 148.993 77.2624C149.248 76.1187 147.339 75.8646 147.212 77.0083C145.049 89.843 144.031 102.805 144.413 115.767C144.667 128.728 146.194 141.817 149.12 154.398C150.902 161.895 153.446 169.139 157.772 175.493C158.281 176.382 159.808 175.238 159.172 174.349Z"
            fill="#54CC85" />
        <path
            d="M149.247 164.183C132.579 150.586 113.367 140.165 92.7549 133.811C87.0294 132.032 81.1765 130.507 75.3237 129.364C74.1786 129.11 73.9242 131.016 75.0693 131.143C95.9358 135.209 116.039 143.469 133.725 155.033C138.687 158.21 143.394 161.768 147.975 165.581C148.993 166.47 150.138 164.945 149.247 164.183Z"
            fill="#54CC85" />
        <path
            d="M160.825 181.719C156.372 166.343 162.988 150.713 170.622 137.497C171.258 136.48 169.477 135.718 168.841 136.734C160.952 150.458 154.463 166.47 159.044 182.355C159.426 183.498 161.207 182.863 160.825 181.719Z"
            fill="#54CC85" />
        <path
            d="M137.669 155.796C124.563 151.221 110.313 150.331 96.699 153.381C95.5539 153.635 95.6811 155.542 96.9535 155.287C110.186 152.238 124.182 153 137.032 157.575C138.05 157.829 138.814 156.177 137.669 155.796Z"
            fill="#54CC85" />
        <g opacity="0.6">
            <path
                d="M104.969 85.7766C100.261 88.191 94.5358 88.4452 89.3191 87.4286C72.7786 83.9975 60.9458 67.8588 58.7828 51.2118C56.6198 34.5648 62.727 17.6636 71.7607 3.43106C72.5241 2.28737 73.2875 1.27076 74.3054 0.635374C75.705 -0.127084 77.3591 -7.81193e-06 78.8859 0.254145C88.683 1.77906 97.0805 8.13288 104.078 14.995C110.44 21.0947 116.166 27.9568 119.728 36.0897C122.909 43.333 124.309 51.3389 123.8 59.2176C123.418 64.6819 122.019 70.2732 118.965 74.848C116.038 79.5498 111.204 84.3787 105.732 85.5224"
                fill="#54CC85" />
        </g>
        <path
            d="M102.425 36.598C103.061 49.6869 102.043 62.7758 99.4984 75.6105C92.8822 65.4444 88.5562 53.6263 85.2481 41.8081C87.6656 35.8356 89.3196 29.4817 90.3375 23.1279C90.4647 21.9842 88.6835 21.7301 88.5562 22.8738C87.6656 28.338 86.266 33.5482 84.4847 38.7583C83.3396 34.5648 82.3217 30.3713 81.1766 26.1777C80.9221 25.0341 79.0136 25.2882 79.2681 26.4319C81.4311 35.0731 83.5941 43.7143 86.3932 52.2284C85.3754 51.593 84.4847 50.8306 83.5941 50.0681C81.94 48.5432 80.286 47.0183 78.7591 45.3663C75.8327 42.3165 73.0336 39.1395 70.4889 35.7085C69.7255 34.8189 68.3259 35.8356 68.962 36.8522C71.7612 40.4103 74.6876 43.8414 77.8685 47.1454C79.3953 48.6703 81.0494 50.1952 82.5762 51.7201C83.9758 52.9909 85.5026 54.1346 87.2839 54.6429C89.3196 60.3613 91.7371 66.0797 94.6635 71.417C83.9758 69.892 73.9242 64.5548 66.9263 56.2949C66.1629 55.4053 64.6361 56.549 65.3995 57.4385C73.0336 66.3339 84.103 72.1794 95.8086 73.3231C95.8086 73.3231 95.8086 73.3231 95.9359 73.3231C96.1903 73.7043 96.3176 73.9585 96.572 74.3397C99.1167 78.5332 101.916 82.4726 105.224 86.0307C105.987 86.9203 107.514 85.7766 106.751 84.8871C104.715 82.5997 102.807 80.3123 101.152 77.7708C103.952 64.1736 105.097 50.1952 104.461 36.3439C104.206 35.2002 102.298 35.4543 102.425 36.598Z"
            fill="#36BF6D" />
        <g opacity="0.6">
            <path
                d="M94.2811 132.795C95.299 127.585 94.0267 122.12 91.482 117.419C83.5934 102.551 64.8899 95.5615 48.2221 98.103C31.5543 100.645 17.0495 111.192 5.85286 123.772C5.08945 124.662 4.19881 125.679 3.94434 126.949C3.56263 128.474 4.19881 130.126 4.83498 131.524C9.03373 140.547 17.4312 146.773 25.956 151.729C33.5901 156.05 41.8603 159.735 50.5123 161.006C58.2737 162.149 66.4167 161.26 73.7963 158.464C79.0129 156.558 83.8479 153.635 87.5377 149.569C91.2275 145.375 94.5356 139.403 94.1539 133.939"
                fill="#54CC85" />
        </g>
        <path
            d="M46.1865 143.978C58.91 140.928 71.2518 136.48 82.9574 130.507C71.2518 126.949 58.7828 126.06 46.441 126.06C41.3516 129.999 35.7533 133.43 29.7732 136.099C28.6281 136.607 27.8647 134.955 29.0098 134.447C33.972 132.159 38.6797 129.364 43.1329 126.187C38.8069 126.187 34.4809 126.314 30.1549 126.568C29.0098 126.568 28.6281 124.789 29.9005 124.789C38.8069 124.535 47.7134 124.154 56.6198 124.535C55.7292 123.772 54.8385 123.01 53.8206 122.375C51.9121 121.231 50.0036 120.087 47.9678 119.071C44.1508 117.037 40.3337 115.258 36.3894 113.733C35.2443 113.352 35.8805 111.573 37.0256 111.954C41.2244 113.606 45.2959 115.512 49.3674 117.673C51.2759 118.689 53.1845 119.833 55.093 120.977C56.6198 121.993 58.1466 123.137 59.2917 124.662C65.399 125.043 71.5063 125.806 77.4863 127.203C73.1603 117.291 65.2718 109.159 55.3474 104.584C54.2023 104.076 54.9657 102.296 55.9836 102.805C66.6714 107.761 75.3233 116.656 79.6493 127.585C79.6493 127.585 79.6493 127.585 79.6493 127.712C80.031 127.839 80.4127 127.839 80.7944 127.966C85.5021 129.237 90.0826 130.889 94.4086 133.049C95.4264 133.557 94.7903 135.336 93.7724 134.828C91.1005 133.43 88.3013 132.414 85.3749 131.397C73.0331 137.878 59.9279 142.707 46.3138 145.884C45.2959 146.011 45.0414 144.232 46.1865 143.978Z"
            fill="#36BF6D" />
        <g opacity="0.6">
            <path
                d="M112.348 153.127C111.585 150.84 109.804 149.188 107.641 147.917C101.152 144.105 92.3726 145.884 86.647 150.713C80.9214 155.542 77.8678 162.912 76.5954 170.282C76.4682 170.791 76.4682 171.426 76.5954 171.934C76.8499 172.57 77.3588 173.078 77.995 173.459C81.6848 175.874 86.3925 176.255 90.7185 176.128C94.6628 176.001 98.6071 175.493 102.17 173.968C105.351 172.57 108.277 170.409 110.44 167.614C111.967 165.708 113.112 163.42 113.621 161.006C114.13 158.591 113.875 155.542 112.476 153.508"
                fill="#54CC85" />
        </g>
        <path
            d="M96.6992 168.63C100.898 164.564 104.461 159.862 107.514 154.906C102.17 156.304 97.3354 158.845 92.6277 161.768C91.6098 164.437 90.2102 167.105 88.6834 169.393C88.429 169.901 87.6655 169.393 88.0472 168.885C89.4468 166.851 90.592 164.691 91.4826 162.404C89.8285 163.42 88.1745 164.437 86.6477 165.581C86.266 165.835 85.6298 165.199 86.1387 164.945C89.4468 162.785 92.7549 160.497 96.1903 158.591C95.6813 158.464 95.1724 158.464 94.6635 158.464C93.6456 158.464 92.6277 158.464 91.7371 158.591C89.8285 158.718 87.92 158.973 86.1387 159.227C85.6298 159.354 85.5026 158.464 86.0115 158.464C88.0473 158.083 89.9558 157.829 91.9915 157.702C93.0094 157.702 93.9001 157.575 94.9179 157.575C95.8086 157.575 96.572 157.702 97.3354 157.956C99.7529 156.685 102.17 155.541 104.842 154.652C100.898 151.856 95.9358 150.713 91.2281 151.221C90.7192 151.348 90.5919 150.458 91.1009 150.458C96.3175 149.823 101.661 151.221 105.86 154.398C105.987 154.398 106.242 154.271 106.369 154.271C108.405 153.635 110.568 153.254 112.731 153C113.24 153 113.367 153.762 112.858 153.762C111.458 153.889 110.186 154.144 108.914 154.398C105.733 159.735 101.916 164.691 97.4626 169.012C96.8265 169.52 96.3175 169.012 96.6992 168.63Z"
            fill="#36BF6D" />
        <path
            d="M153.828 174.984C153.065 172.697 151.283 171.045 149.12 169.774C142.631 165.962 133.852 167.741 128.126 172.57C122.401 177.399 119.347 184.769 118.075 192.139C117.948 192.648 117.948 193.283 118.075 193.791C118.329 194.427 118.838 194.935 119.475 195.316C123.164 197.731 127.872 198.112 132.198 197.985C136.142 197.858 140.087 197.35 143.649 195.825C146.83 194.427 149.756 192.267 151.919 189.471C153.446 187.565 154.591 185.277 155.1 182.863C155.609 180.448 155.355 177.399 153.955 175.365"
            fill="#54CC85" />
        <path
            d="M138.178 190.36C142.376 186.294 145.939 181.592 148.993 176.636C143.649 178.034 138.814 180.576 134.106 183.498C133.088 186.167 131.689 188.836 130.162 191.123C129.907 191.631 129.144 191.123 129.526 190.615C130.925 188.581 132.07 186.421 132.961 184.134C131.307 185.15 129.653 186.167 128.126 187.311C127.744 187.565 127.108 186.929 127.617 186.675C130.925 184.515 134.233 182.228 137.669 180.321C137.16 180.194 136.651 180.194 136.142 180.194C135.124 180.194 134.106 180.194 133.216 180.321C131.307 180.448 129.399 180.703 127.617 180.957C127.108 181.084 126.981 180.194 127.49 180.194C129.526 179.813 131.434 179.559 133.47 179.432C134.488 179.432 135.379 179.305 136.396 179.305C137.287 179.305 138.051 179.432 138.814 179.686C141.231 178.415 143.649 177.272 146.321 176.382C142.376 173.586 137.414 172.443 132.707 172.951C132.198 173.078 132.07 172.189 132.579 172.189C137.796 171.553 143.14 172.951 147.339 176.128C147.466 176.128 147.72 176.001 147.848 176.001C149.883 175.365 152.046 174.984 154.209 174.73C154.718 174.73 154.846 175.493 154.337 175.493C152.937 175.62 151.665 175.874 150.392 176.128C147.211 181.465 143.394 186.421 138.941 190.742C138.432 191.377 137.796 190.742 138.178 190.36Z"
            fill="#36BF6D" />
        <g opacity="0.6">
            <path
                d="M145.684 96.0697C141.358 95.4343 137.541 92.8928 134.615 89.7159C125.327 79.6769 125.2 63.4111 131.689 51.3388C138.178 39.2666 150.265 31.0066 162.988 25.9236C163.879 25.5423 164.897 25.1611 165.915 25.2882C167.187 25.4152 168.205 26.3048 169.223 27.1943C174.948 32.9128 177.493 40.9186 178.893 48.9244C180.165 55.9136 180.674 63.284 179.274 70.2732C178.002 76.5 175.076 82.4726 171.004 87.4285C168.078 90.8596 164.515 93.7823 160.444 95.4343C156.372 97.0863 150.774 97.9759 146.702 96.1968"
                fill="#54CC85" />
        </g>
        <path
            d="M167.315 62.3945C161.462 71.2898 154.591 79.5498 146.957 86.7932C147.466 76.8812 150.138 67.0963 153.573 57.6927C158.027 54.897 162.098 51.4659 165.788 47.7807C166.424 47.1453 165.406 46.0016 164.643 46.7641C161.462 49.941 158.027 52.7367 154.464 55.2782C155.736 51.9742 157.009 48.6702 158.281 45.4933C158.663 44.6038 157.263 43.8413 157.009 44.7309C154.337 51.4659 151.665 58.201 149.502 65.0631C149.12 64.1736 148.866 63.284 148.611 62.2674C148.23 60.4883 147.848 58.7093 147.593 56.9302C147.084 53.4991 146.83 50.0681 146.703 46.637C146.703 45.6204 145.176 45.7475 145.176 46.637C145.303 50.3222 145.558 54.0074 146.194 57.5656C146.448 59.3447 146.83 61.1237 147.212 62.7757C147.593 64.3006 147.975 65.6985 148.866 66.9692C147.466 71.7981 146.448 76.627 145.812 81.583C139.45 75.6104 135.379 67.2234 134.615 58.4551C134.488 57.4385 132.961 57.5656 133.089 58.4551C133.979 67.9858 138.432 77.0083 145.558 83.3621C145.558 83.6162 145.43 83.9975 145.43 84.2516C145.049 88.191 145.176 92.1304 145.558 96.0697C145.685 97.0863 147.212 96.9593 147.084 96.0697C146.83 93.6553 146.703 91.2408 146.703 88.6993C154.973 81.0747 162.353 72.3064 168.46 62.9028C169.223 62.2674 167.824 61.5049 167.315 62.3945Z"
            fill="#36BF6D" />
        <g opacity="0.6">
            <path
                d="M133.598 139.276C130.798 140.038 127.745 139.403 125.073 138.132C116.675 134.193 112.222 124.154 113.24 114.877C114.131 105.601 119.602 97.3405 126.218 90.8596C126.727 90.3513 127.236 89.843 127.872 89.716C128.763 89.4618 129.653 89.716 130.417 90.0972C135.506 92.1304 139.196 96.5781 142.122 101.153C144.794 105.219 146.957 109.667 147.848 114.369C148.739 118.689 148.484 123.137 147.084 127.203C146.194 130.126 144.667 132.922 142.504 134.955C140.341 136.988 137.16 139.022 134.106 139.022"
                fill="#54CC85" />
        </g>
        <path
            d="M138.305 112.59C137.033 119.706 134.87 126.568 131.943 133.176C129.653 126.822 128.763 119.96 128.508 113.225C130.544 110.302 132.198 107.125 133.597 103.821C133.852 103.186 132.834 102.805 132.58 103.44C131.434 106.236 130.035 108.904 128.381 111.446C128.254 109.032 128.254 106.617 128.254 104.33C128.254 103.694 127.236 103.567 127.236 104.203C127.363 109.032 127.363 113.988 127.872 118.943C127.363 118.562 126.981 117.927 126.6 117.419C125.836 116.402 125.2 115.385 124.564 114.369C123.291 112.336 122.274 110.302 121.256 108.142C121.001 107.507 119.983 108.015 120.365 108.523C121.383 110.811 122.528 112.971 123.8 115.131C124.437 116.148 125.073 117.164 125.836 118.181C126.472 119.071 127.108 119.833 127.999 120.341C128.381 123.645 129.017 126.949 129.908 130.253C124.309 128.093 119.602 124.027 116.802 118.689C116.548 118.054 115.53 118.562 115.912 119.071C118.965 124.789 124.055 129.237 130.289 131.397C130.289 131.651 130.417 131.778 130.417 132.032C131.307 134.574 132.325 136.988 133.597 139.403C133.979 139.911 134.87 139.53 134.488 139.022C133.725 137.624 132.961 136.099 132.325 134.574C135.506 127.585 137.923 120.214 139.196 112.717C139.45 111.954 138.432 111.827 138.305 112.59Z"
            fill="#36BF6D" />
        <g opacity="0.6">
            <path
                d="M163.752 148.044C160.825 145.757 158.917 142.326 158.153 138.767C155.481 127.331 161.97 115.131 171.895 108.904C181.819 102.551 194.161 101.407 205.866 102.932C206.757 103.059 207.648 103.186 208.284 103.694C209.175 104.33 209.556 105.473 209.938 106.49C211.847 113.098 210.32 120.214 208.157 126.695C206.121 132.414 203.576 138.132 199.632 142.834C196.069 147.027 191.489 150.204 186.272 152.237C182.71 153.635 178.765 154.398 174.948 153.889C171.131 153.381 166.678 151.856 164.261 148.806"
                fill="#54CC85" />
        </g>
        <path
            d="M193.906 131.778C185.89 136.099 177.366 139.276 168.459 141.563C172.912 134.32 179.02 128.22 185.509 122.502C189.962 122.247 194.415 121.358 198.741 120.087C199.505 119.833 199.123 118.562 198.359 118.816C194.67 119.96 190.98 120.595 187.163 120.977C189.453 119.071 191.743 117.037 194.161 115.258C194.797 114.75 194.161 113.606 193.525 114.115C188.69 118.054 183.982 121.993 179.401 126.314C179.529 125.551 179.656 124.662 179.91 123.899C180.419 122.375 180.801 120.977 181.437 119.452C182.455 116.656 183.727 113.988 185 111.319C185.381 110.556 184.236 109.921 183.855 110.684C182.455 113.479 181.183 116.402 180.038 119.325C179.529 120.723 179.02 122.248 178.638 123.645C178.256 124.916 178.002 126.187 178.129 127.458C175.075 130.507 172.276 133.684 169.859 137.115C167.569 129.999 167.95 122.12 171.004 115.131C171.386 114.369 170.241 113.733 169.859 114.496C166.551 121.993 166.169 130.635 168.841 138.259C168.714 138.513 168.586 138.64 168.332 138.895C166.423 141.69 164.897 144.613 163.624 147.79C163.37 148.552 164.388 149.188 164.769 148.425C165.533 146.519 166.551 144.613 167.569 142.834C176.984 140.547 186.018 137.115 194.67 132.541C195.306 132.541 194.67 131.397 193.906 131.778Z"
            fill="#36BF6D" />
        <path opacity="0.74"
            d="M152.428 228.229C142.758 229.5 133.088 230.135 123.418 230.39C116.548 228.356 111.585 223.273 107.641 217.428C109.931 217.047 111.967 215.395 113.494 213.615C115.021 211.836 115.911 209.549 116.42 207.135C117.057 203.831 116.929 200.272 116.039 197.096C114.894 193.41 112.858 190.233 110.568 187.184C107.896 183.88 104.715 180.703 100.643 179.432C100.007 179.178 99.2437 179.051 98.6075 179.305C98.0985 179.559 97.7168 179.94 97.3351 180.321C92.6274 185.913 89.0649 192.775 89.0649 200.018C89.0649 207.262 93.2636 214.759 100.134 217.174C102.17 217.936 104.46 218.063 106.496 217.428C109.422 221.748 112.858 225.815 117.184 228.483C109.55 228.229 102.043 224.925 95.2994 221.748C93.7726 220.986 92.2457 220.223 90.7189 219.461C90.5917 219.334 90.4644 219.207 90.3372 219.08C88.5559 217.047 86.3929 215.395 83.8482 214.378C82.7031 213.87 81.4308 213.615 80.2856 213.361C78.5044 212.218 76.7231 210.947 75.069 209.676C74.8145 209.549 74.5601 209.295 74.4328 209.168C74.5601 209.041 74.5601 208.787 74.4328 208.659C76.4686 207.007 77.741 204.085 78.2499 201.543C78.7588 198.875 78.3771 195.952 77.6137 193.283C76.4686 189.471 74.3056 186.04 71.5064 183.244C68.3256 180.194 64.3813 178.034 60.3098 176.255C55.7293 174.349 50.6399 172.951 45.805 173.968C45.0416 174.095 44.2782 174.349 43.7692 174.984C43.3875 175.493 43.2603 176.128 43.1331 176.763C41.479 185.15 41.7335 194.173 45.9322 201.543C50.0037 208.914 58.5285 214.378 66.926 212.853C69.3434 212.472 71.7609 211.455 73.5422 209.676C75.069 210.82 76.5958 211.963 78.1227 212.98C77.232 212.853 76.3414 212.853 75.3235 212.853C71.8881 212.853 68.3256 213.234 65.6536 215.267C65.2719 215.522 64.763 215.903 64.6357 216.411C64.5085 216.792 64.6357 217.301 64.6357 217.682C65.3992 221.24 66.6715 224.671 68.58 227.721C65.6536 227.467 62.8545 227.213 59.9281 226.831C58.5285 226.704 57.0017 226.577 55.6021 226.323C55.6021 226.069 55.4748 225.815 55.2204 225.815C56.111 222.638 55.2204 218.826 53.948 215.903C52.5484 212.853 50.131 210.184 47.3318 208.151C43.3875 205.228 38.8071 203.195 33.9721 202.56C28.6283 201.797 23.0299 202.433 17.6861 203.703C11.706 205.101 5.59875 207.262 1.52723 211.836C0.891057 212.599 0.254883 213.361 0.254883 214.378C0.254883 215.14 0.509353 215.903 0.891057 216.538C5.21704 226.069 12.0877 234.837 21.5031 239.285C30.9185 243.733 43.2603 242.97 50.6399 235.6C52.8029 233.312 54.5842 230.517 54.9659 227.467C59.8008 227.975 64.763 228.483 69.5979 228.865C70.6158 230.135 71.6337 231.406 73.0333 232.423C77.4865 235.981 84.2299 237.125 89.1921 234.075C90.5917 233.185 91.7368 232.042 92.373 230.644C97.5896 230.898 102.806 231.152 108.023 231.279C96.8262 235.218 86.3929 241.191 77.1048 248.689C76.9775 248.307 76.5958 248.053 76.2141 248.307L76.0869 248.434C73.6694 246.147 70.3613 245.003 67.1805 244.749C56.7472 243.86 46.8229 251.23 42.6241 260.761C38.2981 270.292 38.9343 281.347 41.7335 291.386C41.9879 292.149 42.1152 292.911 42.7513 293.419C43.3875 294.182 44.4054 294.309 45.4233 294.436C51.5306 295.198 57.6378 293.038 63.1089 290.115C67.9439 287.574 72.6516 284.524 76.2141 280.458C79.395 276.772 81.6852 272.198 82.7031 267.496C83.4665 264.192 83.5938 260.634 82.7031 257.33C81.9397 254.534 80.2856 251.357 77.9954 249.451C84.7389 243.987 92.1185 239.285 100.007 235.727C96.8262 238.649 94.1543 241.953 91.864 245.512C90.7189 245.512 89.701 245.766 88.6832 246.274C84.4844 248.307 82.4487 253.517 83.0848 258.092C83.721 262.667 86.5202 266.733 89.9555 269.91C90.21 270.164 90.4644 270.419 90.8462 270.419C91.2279 270.546 91.7368 270.419 92.1185 270.164C94.6632 269.021 96.4445 266.733 97.8441 264.446C99.1164 262.413 100.134 260.125 100.516 257.711C100.898 255.551 100.643 253.263 100.007 251.23C99.4981 249.832 98.7347 248.434 97.5896 247.418C96.5717 246.401 95.0449 245.512 93.5181 245.512C93.5181 245.385 93.3909 245.257 93.2636 245.257C96.0628 241.064 99.4981 237.252 103.442 234.075L103.57 233.948C106.114 232.931 108.786 231.914 111.458 231.025C113.748 231.025 116.039 231.025 118.329 231.025C118.329 231.025 118.202 231.025 118.202 231.152C118.202 231.152 118.202 231.152 118.202 231.279C116.802 230.898 115.275 231.279 113.876 231.914C109.677 233.948 107.641 239.158 108.277 243.733C108.914 248.307 111.713 252.374 115.148 255.551C115.402 255.805 115.657 256.059 116.039 256.059C116.42 256.186 116.929 256.059 117.311 255.805C119.856 254.661 121.637 252.374 123.037 250.086C124.309 248.053 125.327 245.766 125.709 243.351C126.09 241.191 125.836 238.904 125.2 236.87C124.691 235.473 123.927 234.075 122.782 233.058C121.764 232.042 120.237 231.152 118.711 231.152C118.711 231.025 118.711 231.025 118.583 231.025C120.365 231.025 122.146 231.025 123.8 230.898C123.927 230.898 123.927 230.898 124.054 230.898C125.072 230.898 125.963 230.898 126.981 230.771C135.76 230.517 144.412 229.754 153.064 228.61C153.318 229.246 153.191 228.102 152.428 228.229ZM106.114 230.39C101.661 230.262 97.0807 230.135 92.6274 229.881C92.6274 229.881 92.5002 229.881 92.5002 229.754C93.3908 228.229 93.3908 226.069 93.0091 224.29C92.8819 223.4 92.5002 222.511 92.1185 221.748C96.3173 223.909 100.77 225.815 105.224 227.34C109.677 228.865 114.385 230.008 119.22 229.881H119.347C119.728 230.008 120.11 230.262 120.492 230.39C115.657 230.517 110.822 230.517 106.114 230.39Z"
            fill="url(#paint0_linear_90_107)" />
        <g opacity="0.7">
            <path
                d="M411.733 28.0839C412.751 28.7193 413.641 29.6088 414.532 30.3712C411.096 34.1835 407.661 37.9958 404.226 41.8081C403.717 42.3164 403.335 42.8247 402.826 43.333C401.808 42.5706 400.918 41.681 400.154 40.6644C399.773 40.1561 399.136 40.7915 399.518 41.2998C400.409 42.4435 401.554 43.4601 402.699 44.3497C403.971 45.3663 405.244 46.1287 406.643 46.8912C406.77 47.1453 406.898 47.2724 407.152 47.1453C408.806 47.9078 410.46 48.5432 412.114 48.9244C414.532 49.5598 416.949 49.8139 419.367 49.8139C420.257 49.8139 421.021 49.8139 421.911 49.6869C421.911 50.3222 421.911 51.0847 422.039 51.7201C422.166 52.9908 422.293 54.2616 422.548 55.4053C422.675 55.7865 422.802 56.2948 422.929 56.6761V56.8031C423.438 58.9634 424.202 60.9967 425.22 62.9028C425.728 63.9194 426.365 64.809 427.001 65.6985C428.019 67.0963 429.164 68.4942 430.691 69.3837C431.2 69.6379 431.709 69.0025 431.2 68.6212C430.436 68.1129 429.8 67.6046 429.164 66.8422C432.599 63.0299 435.907 59.2176 439.343 55.4053C439.724 54.897 440.233 54.5158 440.615 54.0075C441.378 54.6428 442.142 55.2782 442.778 56.0407C443.16 56.549 443.796 55.9136 443.414 55.4053C442.523 54.3887 441.378 53.4992 440.361 52.7367C439.215 51.9742 437.943 51.3389 436.671 50.8305C436.543 50.7035 436.543 50.7035 436.416 50.7035C434.508 49.941 432.599 49.3056 430.563 49.0515C430.436 49.0515 430.309 49.0515 430.182 49.0515C430.054 49.0515 430.054 49.0515 429.927 49.0515C427.637 48.6702 425.22 48.6703 422.802 48.7973C422.802 48.5432 422.802 48.4161 422.802 48.1619C422.675 45.6204 422.293 43.0789 421.657 40.6644C421.021 38.5041 420.13 36.4709 418.985 34.5648C418.985 34.4377 418.858 34.4377 418.858 34.3106C418.094 33.0399 417.331 31.8962 416.44 30.8796C415.295 29.6088 413.896 28.211 412.496 27.3214C411.733 27.0673 411.224 27.8297 411.733 28.0839ZM404.099 44.3497C403.971 44.2226 403.717 44.0955 403.59 43.9684C407.025 40.1561 410.46 36.3438 413.896 32.4045C414.277 31.8962 414.659 31.5149 415.168 31.0066C416.186 32.1503 417.076 33.294 417.84 34.5648C414.659 37.9958 411.351 41.4269 408.17 44.858C407.788 45.2392 407.407 45.6204 407.025 46.0016C406.007 45.6204 404.989 44.985 404.099 44.3497ZM420.385 40.0291C418.222 42.4435 416.186 44.858 414.023 47.1453C413.768 47.5266 413.387 47.7807 413.132 48.1619C411.351 47.7807 409.57 47.1453 407.916 46.3829C411.096 43.0789 414.15 39.7749 417.331 36.3438C417.713 35.9626 417.967 35.5814 418.349 35.3272C419.112 36.9792 419.876 38.5041 420.385 40.0291ZM423.693 56.9302C425.601 54.897 427.383 52.8638 429.291 50.7035C429.546 50.4493 429.8 50.1952 429.927 49.941C431.836 50.1952 433.617 50.7035 435.398 51.4659C432.472 54.6428 429.418 57.9468 426.492 61.1237C426.237 61.505 425.856 61.7591 425.601 62.1404C424.838 60.4884 424.202 58.7093 423.693 56.9302ZM438.706 52.9908C439.088 53.245 439.47 53.3721 439.724 53.6262C436.289 57.4385 432.981 61.2508 429.546 65.0631C429.164 65.5714 428.782 65.9526 428.4 66.4609C428.273 66.3339 428.146 66.2068 428.019 66.0797C427.255 65.0631 426.619 64.0465 425.983 63.0299C429.037 59.7259 432.09 56.4219 435.017 53.1179C435.398 52.7367 435.78 52.3555 436.162 51.8472C437.18 52.2284 437.943 52.6096 438.706 52.9908ZM423.565 49.5598C424.965 49.5598 426.237 49.5598 427.637 49.6869C428.019 49.6869 428.528 49.8139 428.909 49.8139C427.128 51.7201 425.474 53.6262 423.693 55.5324C423.565 55.6595 423.565 55.7865 423.438 55.7865C422.929 53.7533 422.802 51.593 422.675 49.5598C423.057 49.6869 423.311 49.6869 423.565 49.5598ZM421.784 48.7973C419.367 48.9244 417.076 48.9244 414.659 48.5432C414.532 48.5432 414.277 48.4161 414.15 48.4161C416.186 46.1287 418.222 43.8413 420.385 41.554C420.512 41.4269 420.639 41.2998 420.766 41.0457C421.403 43.0789 421.657 45.2392 421.784 47.3995C421.784 47.9078 421.784 48.289 421.784 48.7973Z"
                fill="#54CC85" />
            <path opacity="0.63"
                d="M480.184 92.0033C479.039 91.2408 477.767 90.6054 476.622 89.843C477.64 85.5224 478.657 81.2018 479.548 76.7541C479.675 76.1187 478.912 75.6104 478.403 76.1187C473.314 81.2018 468.097 86.2848 462.88 91.3679C461.99 92.1304 461.226 93.0199 460.336 93.7823C460.972 89.843 461.735 85.7765 462.371 81.8372C462.371 81.583 462.371 81.2018 462.117 81.0747C460.59 80.1852 459.063 79.2956 457.536 78.279C456.773 77.8978 456.137 79.0415 456.9 79.4227C458.3 80.3122 459.699 81.0747 461.099 81.9642C460.336 86.539 459.572 90.9867 458.809 95.4343C458.682 96.0697 459.445 96.578 459.954 96.0697C465.171 91.1137 470.387 86.0307 475.477 80.9476C476.24 80.1852 477.131 79.2956 477.894 78.5332C477.003 82.3455 476.24 86.0307 475.349 89.843C475.222 90.0971 475.349 90.4784 475.604 90.6054C477.003 91.3679 478.276 92.2574 479.675 93.0199C480.311 93.5282 480.948 92.3845 480.184 92.0033Z"
                fill="url(#paint1_linear_90_107)" />
            <path
                d="M508.94 124.789C509.957 126.822 512.375 127.585 514.411 126.568C516.446 125.552 517.21 123.137 516.192 121.104L511.739 112.336L504.486 115.894L508.94 124.789Z"
                fill="url(#paint2_linear_90_107)" />
            <path
                d="M501.688 110.302L504.487 115.894L511.739 112.336L508.94 106.744C507.922 104.711 505.505 103.949 503.469 104.965C501.56 105.855 500.67 108.396 501.688 110.302Z"
                fill="#F6A366" />
            <path
                d="M400.153 110.556C403.716 112.844 408.551 111.827 410.841 108.142C413.131 104.584 412.113 99.755 408.424 97.4676L392.519 87.4286L384.249 100.517L400.153 110.556Z"
                fill="#91C9FF" />
            <path
                d="M373.943 94.0365L384.122 100.517L392.392 87.4286L382.213 80.9477C378.651 78.6603 373.816 79.6769 371.526 83.3621C369.236 87.0473 370.381 91.7492 373.943 94.0365Z"
                fill="#4179BD" />
            <path
                d="M280.171 77.3895C275.209 81.2018 274.319 88.5722 278.39 93.9094C282.462 99.2466 289.841 100.39 294.803 96.578L316.942 79.6769L302.31 60.4883L280.171 77.3895Z"
                fill="url(#paint3_linear_90_107)" />
            <path opacity="0.8"
                d="M316.434 49.8139L302.311 60.6154L316.943 79.8039L331.066 69.0025C336.028 65.1902 336.918 57.8197 332.847 52.4825C328.775 47.1453 321.396 46.0016 316.434 49.8139Z"
                fill="#F6A366" />
        </g>
        <path d="M342.262 358.355H245.945V442.353H342.262V358.355Z" fill="#4179BD" />
        <path
            d="M382.723 450.74H195.688C192.761 450.74 190.344 448.326 190.344 445.403C190.344 442.48 192.761 440.066 195.688 440.066H382.723C385.649 440.066 388.067 442.48 388.067 445.403C388.067 448.326 385.649 450.74 382.723 450.74Z"
            fill="#2D65A9" />
        <path d="M342.262 375.511L245.945 373.859V415.794L342.262 395.589V375.511Z" fill="#2D65A9" />
        <path
            d="M492.908 132.922C488.455 128.728 482.475 126.187 475.859 126.187H124.309C110.822 126.187 100.007 137.115 100.007 150.458V349.841C367.455 353.654 464.408 197.223 492.908 132.922Z"
            fill="#4179BD" />
        <path
            d="M492.908 132.922C464.408 197.223 367.455 353.654 100.007 349.841V363.82C100.007 370.301 105.223 375.638 111.84 375.638H485.91C494.181 375.638 500.797 369.03 500.797 360.77V150.967C500.67 143.851 497.743 137.37 492.908 132.922Z"
            fill="#4179BD" />
        <path
            d="M298.875 343.742C302.056 345.648 304.092 349.206 304.092 353.145C304.092 359.245 299.13 364.328 292.895 364.328C289.587 364.328 286.661 362.93 284.625 360.516C286.534 364.455 290.605 367.124 295.313 367.124C301.929 367.124 307.273 361.787 307.273 355.179C307.4 349.841 303.837 345.267 298.875 343.742Z"
            fill="#2D65A9" />
        <path
            d="M293.022 364.328C299.129 364.328 304.219 359.372 304.219 353.145C304.219 349.206 302.183 345.648 299.002 343.742C297.857 343.36 296.712 343.233 295.44 343.233C288.823 343.233 283.479 348.571 283.479 355.179C283.479 357.085 283.988 358.864 284.752 360.516C286.66 362.803 289.714 364.328 293.022 364.328Z"
            fill="#5F97DB" />
        <path d="M478.785 143.978H118.074V336.498H478.785V143.978Z" fill="#C8DBF1" />
        <path opacity="0.88" d="M320.76 151.475H132.07V325.697H320.76V151.475Z" fill="white" />
        <path opacity="0.88" d="M464.28 151.475H336.409V325.697H464.28V151.475Z" fill="white" />
        <path
            d="M353.077 187.183C354.985 187.056 356.894 188.2 358.802 187.565C360.329 187.056 361.347 185.786 361.983 184.388C362.747 182.863 363.001 181.338 363.383 179.686C363.765 178.034 364.401 176.128 365.928 175.111C365.673 174.984 365.291 174.984 365.037 174.857C365.928 176.636 366.055 178.796 366.055 180.703C366.055 182.863 365.928 185.023 366.055 187.183C366.182 189.344 366.437 191.504 366.818 193.664C367.073 195.189 367.454 196.841 368.981 197.604C369.363 197.858 369.999 197.604 369.999 197.095C370.126 191.885 371.271 186.802 373.434 182.1C373.053 182.1 372.671 181.973 372.289 181.973C372.926 183.88 374.58 185.15 376.488 185.659C377.633 185.913 378.906 186.04 380.178 185.913C381.196 185.786 382.468 185.786 383.486 185.404C384.377 185.023 384.631 184.134 384.886 183.244C385.14 182.228 385.267 181.084 385.522 179.94C385.903 177.78 386.412 175.62 387.812 173.84C387.43 173.713 387.049 173.586 386.667 173.332C387.176 178.034 387.685 182.863 388.194 187.565C388.194 187.946 388.575 188.327 388.957 188.2C389.848 187.946 390.484 187.311 391.12 186.548C391.629 185.786 392.011 184.769 392.774 184.261C393.665 183.625 394.428 184.515 394.937 185.277C395.573 186.04 396.21 186.929 397.227 187.311C397.609 187.438 397.991 187.056 397.991 186.675C398.372 183.752 399.009 180.957 399.772 178.161C399.899 177.526 400.154 176.763 400.408 176.255C400.663 175.874 400.79 175.62 401.044 176.128C401.172 176.255 401.172 176.509 401.172 176.763C401.426 178.288 401.553 179.813 401.681 181.338C401.935 184.261 402.062 187.183 402.062 189.979C402.062 192.521 402.317 194.935 403.462 197.223C403.716 197.731 404.48 197.604 404.607 197.095C405.243 194.3 406.007 191.504 406.643 188.835C406.77 188.2 407.024 187.565 407.152 186.802C407.279 186.167 407.406 185.404 407.661 184.896C408.297 183.88 409.442 184.134 410.46 184.388C412.368 184.896 414.277 185.404 415.931 184.007C417.458 182.863 418.221 180.83 418.603 179.051C419.112 176.763 419.112 173.84 421.148 172.316C420.893 172.188 420.511 172.188 420.257 172.061C421.275 174.349 421.402 176.89 421.402 179.305C421.402 180.448 421.529 181.719 421.656 182.863C421.784 183.752 421.911 184.642 422.802 184.896C423.311 185.023 424.074 184.896 424.583 184.896C425.219 184.896 425.855 184.769 426.491 184.769C427.509 184.642 428.4 184.642 429.418 184.388C430.945 184.007 432.599 182.99 432.853 181.338C432.471 181.465 432.09 181.465 431.708 181.592C434.762 184.896 434.38 190.106 438.197 192.902C438.579 193.156 439.088 192.902 439.215 192.521C439.724 190.996 440.106 189.471 440.487 187.946C440.869 186.675 441.123 185.277 441.632 184.134C442.777 181.592 445.704 182.1 447.867 182.863C448.63 183.117 449.012 181.846 448.249 181.592C445.831 180.83 442.777 180.194 440.996 182.609C440.106 183.752 439.851 185.277 439.469 186.675C438.96 188.454 438.451 190.36 437.815 192.139C438.197 192.012 438.451 191.885 438.833 191.758C437.052 190.487 436.288 188.2 435.652 186.294C434.889 184.261 434.126 182.228 432.726 180.703C432.344 180.321 431.708 180.448 431.581 180.957C431.326 182.482 429.672 182.99 428.4 183.244C427.509 183.371 426.491 183.498 425.601 183.625C425.092 183.625 424.583 183.752 424.074 183.752C423.438 183.752 423.183 183.752 423.056 182.99C422.42 179.178 423.056 175.111 421.402 171.426C421.275 171.172 420.766 171.045 420.511 171.172C418.73 172.57 418.094 174.476 417.712 176.636C417.33 178.669 417.076 181.084 415.549 182.609C413.768 184.388 411.732 183.117 409.569 182.863C408.679 182.736 407.661 182.863 406.897 183.625C406.007 184.515 405.879 185.786 405.625 186.929C404.861 190.233 403.971 193.537 403.207 196.714C403.589 196.714 403.971 196.587 404.353 196.587C403.207 194.427 403.08 192.012 403.08 189.598C403.08 186.929 402.953 184.134 402.698 181.465C402.571 180.194 402.444 178.924 402.317 177.653C402.19 176.763 402.19 175.492 401.426 174.857C400.79 174.222 399.899 174.476 399.39 175.111C398.754 175.874 398.5 177.144 398.245 178.034C397.482 180.957 396.846 183.88 396.464 186.802C396.718 186.548 396.973 186.421 397.227 186.167C396.21 185.786 395.701 184.642 394.937 183.88C394.174 183.117 393.283 182.736 392.265 183.117C391.375 183.371 390.738 184.261 390.229 185.023C389.721 185.786 389.212 186.802 388.194 187.056C388.448 187.311 388.703 187.438 388.957 187.692C388.448 182.99 387.939 178.161 387.43 173.459C387.43 172.951 386.667 172.57 386.285 172.951C383.868 175.747 383.74 179.559 382.977 182.99C382.85 183.498 382.85 184.007 382.214 184.261C381.832 184.388 381.196 184.388 380.814 184.515C379.669 184.642 378.651 184.769 377.506 184.642C375.597 184.515 373.689 183.625 373.053 181.719C372.926 181.211 372.162 181.084 371.908 181.592C369.745 186.548 368.472 191.885 368.345 197.223C368.727 197.095 368.981 196.841 369.363 196.714C367.836 195.952 367.836 193.664 367.582 192.139C367.2 189.979 367.073 187.692 367.073 185.531C366.945 181.846 367.709 177.907 365.928 174.349C365.8 174.095 365.291 173.968 365.037 174.095C362.111 176.001 362.111 179.559 361.22 182.609C360.838 184.007 360.075 185.659 358.675 186.294C356.894 187.184 354.858 186.04 352.95 186.04C352.313 185.913 352.313 187.183 353.077 187.183Z"
            fill="#A6CADD" />
        <path
            d="M441.887 205.482H357.149C356.64 205.482 356.131 204.974 356.131 204.466C356.131 203.958 356.64 203.449 357.149 203.449H441.887C442.396 203.449 442.905 203.958 442.905 204.466C442.905 205.101 442.523 205.482 441.887 205.482Z"
            fill="#A6CADD" />
        <path
            d="M441.887 210.947H357.149C356.64 210.947 356.131 210.438 356.131 209.93C356.131 209.422 356.64 208.914 357.149 208.914H441.887C442.396 208.914 442.905 209.422 442.905 209.93C442.905 210.566 442.523 210.947 441.887 210.947Z"
            fill="#A6CADD" />
        <path
            d="M441.887 216.411H357.149C356.64 216.411 356.131 215.903 356.131 215.394C356.131 214.886 356.64 214.378 357.149 214.378H441.887C442.396 214.378 442.905 214.886 442.905 215.394C442.905 216.03 442.523 216.411 441.887 216.411Z"
            fill="#A6CADD" />
        <path
            d="M441.887 222.002H357.149C356.64 222.002 356.131 221.494 356.131 220.986C356.131 220.478 356.64 219.969 357.149 219.969H441.887C442.396 219.969 442.905 220.478 442.905 220.986C442.905 221.494 442.523 222.002 441.887 222.002Z"
            fill="#A6CADD" />
        <path
            d="M441.887 273.595H357.149C356.64 273.595 356.131 273.087 356.131 272.579C356.131 272.071 356.64 271.562 357.149 271.562H441.887C442.396 271.562 442.905 272.071 442.905 272.579C442.905 273.214 442.523 273.595 441.887 273.595Z"
            fill="#A6CADD" />
        <path
            d="M441.887 279.187H357.149C356.64 279.187 356.131 278.679 356.131 278.17C356.131 277.662 356.64 277.154 357.149 277.154H441.887C442.396 277.154 442.905 277.662 442.905 278.17C442.905 278.679 442.523 279.187 441.887 279.187Z"
            fill="#A6CADD" />
        <path
            d="M441.887 284.651H357.149C356.64 284.651 356.131 284.143 356.131 283.635C356.131 283.126 356.64 282.618 357.149 282.618H441.887C442.396 282.618 442.905 283.126 442.905 283.635C442.905 284.143 442.523 284.651 441.887 284.651Z"
            fill="#A6CADD" />
        <path
            d="M441.887 290.115H357.149C356.64 290.115 356.131 289.607 356.131 289.099C356.131 288.591 356.64 288.082 357.149 288.082H441.887C442.396 288.082 442.905 288.591 442.905 289.099C442.905 289.607 442.523 290.115 441.887 290.115Z"
            fill="#A6CADD" />
        <path
            d="M378.651 261.269C387.365 261.269 394.428 254.214 394.428 245.512C394.428 236.809 387.365 229.754 378.651 229.754C369.938 229.754 362.874 236.809 362.874 245.512C362.874 254.214 369.938 261.269 378.651 261.269Z"
            fill="#54CC85" />
        <path
            d="M393.283 237.887C392.901 238.649 392.265 239.412 391.629 240.047C388.702 237.633 385.903 235.218 382.977 232.804C382.595 232.423 382.213 232.169 381.832 231.787C382.34 231.025 382.977 230.262 383.74 229.754C384.122 229.5 383.613 228.992 383.231 229.246C382.468 229.881 381.704 230.771 381.068 231.66C380.432 232.55 379.796 233.566 379.287 234.583C379.16 234.71 379.032 234.837 379.16 234.964C378.651 236.108 378.269 237.379 378.014 238.649C377.633 240.429 377.506 242.208 377.633 243.987C377.633 244.622 377.76 245.257 377.76 245.766C377.251 245.766 376.742 245.893 376.233 245.893C375.343 246.02 374.452 246.147 373.561 246.401C373.18 246.528 372.925 246.528 372.671 246.655H372.543C371.017 247.164 369.49 247.672 368.09 248.561C367.327 248.943 366.691 249.451 366.054 249.959C365.037 250.722 364.146 251.611 363.51 252.755C363.255 253.136 363.891 253.39 364.019 253.136C364.273 252.628 364.782 252.12 365.291 251.611C368.217 254.026 371.017 256.313 373.943 258.728C374.325 258.982 374.706 259.363 374.961 259.617C374.579 260.252 374.07 260.761 373.561 261.142C373.18 261.396 373.688 261.904 374.07 261.65C374.834 261.015 375.47 260.125 375.979 259.363C376.488 258.473 376.997 257.584 377.378 256.694C377.378 256.694 377.506 256.567 377.506 256.44C378.014 255.042 378.396 253.644 378.651 252.12C378.651 251.992 378.651 251.992 378.651 251.865V251.738C378.905 249.959 378.905 248.307 378.651 246.528C378.778 246.528 378.905 246.528 379.16 246.528C380.941 246.401 382.849 246.02 384.631 245.512C386.157 245.003 387.684 244.241 388.957 243.351C388.957 243.351 389.084 243.351 389.084 243.224C389.975 242.716 390.738 242.08 391.501 241.318C392.392 240.429 393.41 239.412 394.046 238.268C394.046 237.887 393.537 237.506 393.283 237.887ZM381.195 232.677C381.323 232.55 381.323 232.423 381.45 232.296C384.376 234.71 387.175 237.125 390.102 239.539C390.484 239.793 390.738 240.174 391.12 240.429C390.356 241.191 389.466 241.826 388.575 242.462C386.03 240.174 383.358 237.887 380.814 235.6C380.559 235.345 380.177 235.091 379.923 234.837C380.432 234.202 380.814 233.439 381.195 232.677ZM384.758 244.495C382.977 242.97 381.195 241.572 379.414 240.047C379.16 239.793 378.905 239.666 378.651 239.412C378.905 238.141 379.287 236.743 379.796 235.6C382.34 237.76 384.885 240.047 387.303 242.208C387.557 242.462 387.812 242.716 388.066 242.97C387.048 243.478 385.903 244.114 384.758 244.495ZM372.543 247.418C374.07 248.688 375.597 250.086 377.251 251.357C377.378 251.484 377.633 251.611 377.76 251.865C377.633 253.263 377.251 254.534 376.869 255.932C374.452 253.899 372.034 251.738 369.49 249.705C369.235 249.451 368.981 249.324 368.726 249.07C369.999 248.307 371.271 247.799 372.543 247.418ZM375.724 258.219C375.597 258.473 375.47 258.728 375.215 258.982C372.289 256.567 369.49 254.28 366.563 251.865C366.182 251.611 365.927 251.357 365.545 250.976C365.673 250.849 365.8 250.849 365.8 250.722C366.436 250.086 367.2 249.578 367.963 249.197C370.508 251.357 372.925 253.517 375.47 255.551C375.724 255.805 376.106 256.059 376.36 256.313C376.36 257.076 376.106 257.711 375.724 258.219ZM377.887 247.036C378.014 248.053 378.014 249.07 377.887 249.959C377.887 250.213 377.887 250.595 377.76 250.849C376.36 249.578 374.834 248.434 373.434 247.164C373.307 247.036 373.307 247.036 373.18 246.909C374.706 246.528 376.233 246.274 377.76 246.147C377.887 246.655 377.887 246.909 377.887 247.036ZM378.396 245.766C378.269 243.987 378.142 242.335 378.396 240.556C378.396 240.429 378.396 240.301 378.523 240.174C380.305 241.572 381.959 243.097 383.74 244.495C383.867 244.622 383.995 244.749 384.122 244.749C382.595 245.257 381.068 245.512 379.541 245.639C379.16 245.766 378.778 245.766 378.396 245.766Z"
            fill="white" />
        <path
            d="M422.547 261.269C431.26 261.269 438.324 254.214 438.324 245.512C438.324 236.809 431.26 229.754 422.547 229.754C413.833 229.754 406.77 236.809 406.77 245.512C406.77 254.214 413.833 261.269 422.547 261.269Z"
            fill="#54CC85" />
        <path
            d="M431.581 244.114C430.563 244.114 429.545 244.114 428.527 244.114C427.509 241.064 426.491 237.887 425.473 234.837C425.346 234.456 424.71 234.329 424.583 234.837C423.31 239.92 421.911 245.13 420.511 250.213C420.257 251.103 420.002 251.865 419.875 252.755C418.857 249.959 417.712 247.164 416.694 244.495C416.567 244.241 416.44 244.114 416.185 244.114C414.913 244.114 413.513 244.114 412.241 244.114C411.605 244.114 411.605 245.13 412.241 245.13C413.386 245.13 414.658 245.13 415.803 245.13C417.076 248.307 418.221 251.357 419.493 254.534C419.62 254.915 420.257 255.042 420.384 254.534C421.783 249.451 423.183 244.368 424.455 239.285C424.71 238.522 424.837 237.633 425.092 236.87C425.982 239.539 426.873 242.208 427.763 244.876C427.891 245.13 428.018 245.257 428.272 245.257C429.418 245.257 430.563 245.257 431.708 245.257C432.217 245.003 432.217 244.114 431.581 244.114Z"
            fill="white" />
        <g opacity="0.7">
            <path
                d="M346.079 124.408C347.351 128.22 347.733 132.414 347.097 136.607C344.807 153.635 327.503 165.326 308.417 162.785C299.511 161.641 291.75 157.448 286.279 151.729L272.283 153.127L267.193 158.337L288.06 156.177C293.531 161.895 301.292 166.089 310.199 167.233C329.284 169.774 346.588 158.083 348.878 141.055C349.769 135.209 348.751 129.491 346.079 124.408Z"
                fill="#E89256" />
            <path
                d="M308.545 162.658C327.63 165.199 344.934 153.508 347.224 136.48C347.733 132.287 347.351 128.22 346.206 124.281C341.371 114.623 331.192 107.252 318.723 105.6C299.638 103.059 282.334 114.75 280.044 131.778C279.535 135.972 279.917 140.165 281.189 144.105L272.537 153L286.533 151.602C291.877 157.448 299.511 161.514 308.545 162.658Z"
                fill="#F6A366" />
            <path
                d="M336.282 130.889H292.64C292.258 130.889 292.004 130.635 292.004 130.253V129.872C292.004 129.491 292.258 129.237 292.64 129.237H336.282C336.663 129.237 336.918 129.491 336.918 129.872V130.253C336.918 130.507 336.663 130.889 336.282 130.889Z"
                fill="white" />
            <path
                d="M336.282 135.463H292.64C292.258 135.463 292.004 135.209 292.004 134.828V134.447C292.004 134.066 292.258 133.811 292.64 133.811H336.282C336.663 133.811 336.918 134.066 336.918 134.447V134.828C336.918 135.209 336.663 135.463 336.282 135.463Z"
                fill="white" />
            <path
                d="M336.282 140.165H292.64C292.258 140.165 292.004 139.911 292.004 139.53V139.149C292.004 138.767 292.258 138.513 292.64 138.513H336.282C336.663 138.513 336.918 138.767 336.918 139.149V139.53C336.918 139.911 336.663 140.165 336.282 140.165Z"
                fill="white" />
            <path
                d="M336.282 144.867H292.64C292.258 144.867 292.004 144.613 292.004 144.232V143.85C292.004 143.469 292.258 143.215 292.64 143.215H336.282C336.663 143.215 336.918 143.469 336.918 143.85V144.232C336.918 144.486 336.663 144.867 336.282 144.867Z"
                fill="white" />
        </g>
        <path opacity="0.35"
            d="M397.482 198.747C397.355 198.239 396.719 198.112 396.21 198.112C394.301 198.239 392.52 198.493 390.739 198.875C381.96 200.145 373.18 200.272 364.401 199.129C364.783 198.875 365.037 198.62 365.419 198.366C367.328 197.223 370.763 195.443 371.399 193.41C371.654 192.648 371.781 191.758 371.399 191.123C370.89 190.487 370.381 190.488 369.491 190.742C368.727 190.996 368.091 191.504 367.455 192.012C365.928 193.156 364.274 194.173 362.62 194.808C360.202 195.825 357.53 196.206 354.986 197.095C354.095 197.477 353.459 197.477 352.568 197.858C352.187 197.985 351.678 198.239 351.296 198.366C347.224 200.272 344.934 204.466 343.662 205.737C341.499 207.897 340.608 208.659 339.718 209.803L338.191 207.77C337.809 207.135 336.918 207.007 336.282 207.389L305.873 224.29C303.074 225.434 297.857 229.246 295.949 229.119C295.949 229.119 295.949 229.119 295.822 229.119C295.185 228.992 294.295 228.483 293.404 227.721C278.645 212.472 255.997 189.471 255.997 189.471C251.162 185.277 242.637 181.465 236.148 179.051C232.204 170.409 225.588 170.536 225.333 170.536V170.918C224.952 165.708 225.333 160.497 226.987 155.796C227.878 154.779 228.769 153.635 229.532 152.492C230.423 155.414 232.84 157.575 235.639 158.718C238.439 159.862 241.619 159.989 244.673 159.608C254.343 158.337 263.249 151.475 266.939 142.453C268.339 139.022 268.975 135.082 267.321 131.778V131.651C264.903 127.203 258.796 125.806 255.997 121.485C252.943 116.783 254.852 110.556 253.198 105.219C251.544 99.755 245.691 96.0697 240.093 96.578C236.912 96.9593 233.731 98.4842 230.55 98.3571C225.842 98.103 222.28 94.4177 217.954 92.6387C213.119 90.7325 207.393 91.3679 203.194 94.5448C201.922 95.5614 200.777 96.7051 199.759 98.103C196.705 97.9759 193.27 98.4842 191.107 99.755C188.817 101.153 186.145 103.567 185.127 106.236C183.728 110.048 184.109 115.64 182.582 119.325C181.056 123.01 177.62 125.806 174.694 128.601C171.64 131.524 168.841 134.701 167.314 138.513C165.406 143.469 166.042 149.188 168.587 153.889C169.986 156.304 171.767 158.464 173.93 160.243C175.966 161.895 178.384 163.293 180.928 164.31C185.254 165.962 190.344 166.597 194.542 164.564C197.723 163.039 200.014 160.116 200.777 156.812C200.904 156.304 201.031 155.923 201.031 155.414C201.668 156.05 202.177 156.685 202.813 157.193C203.576 158.973 204.085 161.006 204.212 163.674C204.34 167.614 204.34 168.249 204.467 168.63C204.467 169.774 204.34 170.791 204.212 171.934L204.085 171.299C203.831 171.299 198.868 171.934 194.797 177.653C187.29 180.067 174.821 184.515 168.968 189.598C168.968 189.598 161.334 209.93 148.992 253.899C146.448 263.048 146.066 272.579 147.847 281.983L156.372 326.586L173.803 326.968C183.982 327.73 203.958 329.001 208.92 326.459C208.92 326.459 209.047 326.459 209.047 326.332C212.483 326.459 215.791 326.586 219.226 326.459C228.641 331.288 260.323 326.459 260.323 326.459C257.015 307.652 255.997 268.639 255.87 236.997L288.824 260.38C290.605 261.65 292.895 261.65 294.549 260.38L347.352 223.019C347.988 222.511 348.242 221.494 347.733 220.859L345.189 217.428C346.97 216.03 348.751 214.759 350.66 213.361C351.805 212.472 353.077 211.582 354.35 210.947C359.693 208.024 366.182 208.787 372.29 208.532C376.743 208.405 381.069 207.77 385.395 206.626C389.594 205.61 393.792 203.831 396.337 200.527L396.464 200.399C396.719 200.018 396.973 199.637 397.228 199.256C397.482 199.256 397.482 199.002 397.482 198.747ZM234.621 178.288C233.985 178.034 233.349 177.78 232.84 177.653C229.659 176.509 227.496 175.874 227.496 175.874C227.369 176.382 227.242 176.89 227.115 177.526C226.987 177.526 226.733 177.526 226.606 177.653C226.224 175.747 225.842 173.84 225.715 171.807C226.097 171.68 231.059 171.934 234.621 178.288ZM203.958 172.443C203.831 173.84 203.576 175.111 203.194 176.509C202.431 176.382 201.668 176.128 201.031 175.874C201.031 175.62 200.904 175.492 200.904 175.492L197.469 176.636C197.214 176.636 197.087 176.763 196.833 176.763C200.014 173.332 203.194 172.57 203.958 172.443Z"
            fill="#0C4666" />
        <path
            d="M401.172 198.366C390.866 197.731 378.906 201.035 368.091 198.747C370.254 197.223 374.198 195.571 375.216 193.029C375.852 191.631 375.089 189.598 373.308 190.36C368.218 194.173 362.365 195.698 356.385 197.477C352.187 198.747 348.751 203.958 347.479 205.355C343.789 209.041 343.662 208.787 341.117 213.361L344.68 220.35C349.26 217.046 353.586 213.361 358.294 210.439C371.145 204.72 392.266 212.726 401.172 198.366Z"
            fill="#F7B196" />
        <path
            d="M385.268 204.085C385.395 204.085 397.228 202.56 400.282 200.145C400.282 200.145 397.228 203.068 391.248 204.212C385.777 205.61 380.942 204.974 385.268 204.085Z"
            fill="#E8957C" />
        <path
            d="M205.102 153.762C210.446 163.166 207.901 175.238 204.084 184.896C203.448 186.167 203.575 187.692 205.229 187.692C215.154 188.836 226.35 192.394 235.766 187.946C226.478 178.796 227.368 160.37 233.603 149.696"
            fill="#F7B196" />
        <path
            d="M231.567 152.746C228.386 162.531 218.335 169.393 208.156 168.376C208.665 162.404 206.375 154.017 201.667 148.552C203.703 149.061 205.611 149.696 207.647 150.204"
            fill="#E8957C" />
        <path
            d="M201.922 102.551C185.636 119.452 193.779 156.177 217.063 162.277C235.258 160.879 242.637 136.226 236.784 121.104C231.059 106.363 206.248 95.6885 197.469 113.098"
            fill="#F7B196" />
        <path
            d="M209.938 131.651C207.266 129.237 201.286 129.618 200.904 133.557C202.304 133.938 203.195 131.143 204.976 131.27C206.248 130.38 211.083 134.447 209.938 131.651Z"
            fill="#B7624E" />
        <path
            d="M231.822 129.237C229.15 126.822 223.17 127.203 222.788 131.143C224.188 131.524 225.078 128.728 226.86 128.855C228.132 127.966 233.094 132.032 231.822 129.237Z"
            fill="#B7624E" />
        <path d="M217.954 130.253C217.445 139.784 230.932 141.563 218.081 143.215L217.954 130.253Z"
            fill="#E8957C" />
        <path
            d="M202.176 124.789C202.176 124.789 208.156 123.391 210.065 124.154C211.973 124.916 210.574 126.06 207.647 126.187C204.721 126.314 197.978 127.712 197.978 127.712C197.978 127.712 198.868 125.806 202.176 124.789Z"
            fill="#232850" />
        <path d="M211.592 147.536L226.606 145.757C226.478 145.757 221.643 158.591 211.592 147.536Z"
            fill="white" />
        <path opacity="0.11"
            d="M210.956 140.038C212.101 144.359 201.541 146.773 200.65 142.326C199.632 138.132 210.065 135.718 210.956 140.038Z"
            fill="#FF4F5B" />
        <path opacity="0.11"
            d="M236.402 137.37C236.784 141.817 225.969 142.453 225.842 138.005C225.46 133.557 236.275 132.922 236.402 137.37Z"
            fill="#FF4F5B" />
        <path
            d="M200.395 115.131C214.009 113.987 206.884 128.093 221.007 128.983C230.677 129.237 219.48 107.507 209.302 107.888C199.123 108.269 194.67 110.938 200.395 115.131Z"
            fill="#E8957C" />
        <path
            d="M222.661 105.473C231.822 108.904 226.859 120.468 233.221 125.551C237.802 127.585 243.527 127.076 247.344 130.507C255.106 141.055 264.521 145.757 271.137 131.143C268.72 126.568 262.612 125.17 259.813 120.977C255.487 111.065 260.831 96.0697 243.909 96.0697C234.621 99.3737 229.659 96.9593 221.77 92.1304C213.627 88.6993 203.448 93.6553 201.285 102.296C208.41 100.644 216.299 101.788 222.661 105.473Z"
            fill="#232850" />
        <path
            d="M269.101 135.082C261.086 145.757 253.452 138.386 247.217 130.635C243.273 127.076 237.547 127.585 233.094 125.679C228.259 122.502 230.295 115.385 228.132 110.811C222.661 102.424 210.446 100.39 201.285 102.424C200.395 105.092 200.522 108.142 201.794 110.556C205.611 108.777 212.482 112.208 213.881 116.148C215.027 119.198 214.263 123.01 216.553 125.297C222.533 128.855 232.585 129.491 233.857 138.005C234.748 142.58 232.076 147.409 233.348 151.856C243.273 171.426 278.008 149.569 271.137 131.397C270.628 132.541 269.992 133.811 269.101 135.082Z"
            fill="#101638" />
        <path
            d="M211.464 99.5008C231.313 100.263 236.147 104.076 242.127 122.502C250.652 128.601 260.958 135.336 256.632 147.663C260.195 143.978 257.141 133.557 252.815 129.618C249.507 126.187 244.036 125.297 241.746 120.723C239.074 114.242 238.565 105.982 230.931 102.932C225.46 100.517 215.917 97.9759 211.464 99.5008Z"
            fill="black" />
        <path
            d="M242.637 103.821C248.108 105.6 246.835 112.717 249.126 116.91C253.197 124.789 262.231 127.076 263.376 135.845C263.885 126.822 253.324 124.408 249.889 117.291C247.217 112.844 248.744 105.219 242.764 103.313C242.382 103.186 242.255 103.694 242.637 103.821Z"
            fill="black" />
        <path
            d="M180.928 159.481C212.355 150.458 178.129 124.154 202.939 107.634C202.939 107.634 207.647 98.2301 207.647 98.103C190.852 94.4178 188.053 104.965 186.017 118.689C175.838 132.287 159.298 142.834 177.493 159.608C178.765 159.735 179.91 159.735 180.928 159.481Z"
            fill="#232850" />
        <path
            d="M196.833 135.336C196.578 130.126 201.922 125.806 202.304 120.596C202.304 116.275 200.268 111.7 203.067 107.761C194.033 114.242 190.216 125.806 194.67 135.972C198.996 147.663 190.089 160.37 177.62 159.735C188.817 170.791 211.465 163.802 202.94 146.519C200.904 142.707 197.087 139.53 196.833 135.336Z"
            fill="#101638" />
        <path
            d="M201.413 105.092C191.107 110.302 192.507 122.756 188.563 131.778C184.873 137.37 176.857 146.265 180.547 152.238C179.02 144.613 184.364 138.767 188.563 133.049C193.27 122.502 191.744 112.081 201.413 105.092Z"
            fill="black" />
        <path
            d="M175.584 147.917C173.93 141.944 176.729 135.718 180.547 131.143C180.801 130.889 180.419 130.507 180.165 130.762C176.602 134.701 172.149 144.486 175.584 147.917Z"
            fill="black" />
        <path
            d="M204.339 175.492C213.627 178.542 223.043 178.288 232.458 177.144C238.693 181.084 251.162 183.625 252.943 191.25C255.106 201.416 255.233 211.836 255.36 222.13C254.215 253.136 258.923 284.27 261.468 314.514C241.873 331.924 208.538 326.332 184.745 321.503C181.564 320.995 179.528 318.708 179.528 315.531C175.711 277.789 177.365 239.666 179.147 201.67C179.91 188.708 195.687 183.117 204.339 175.492Z"
            fill="#4179BD" />
        <path
            d="M231.058 175.492C231.058 175.492 251.161 181.592 259.813 189.09C259.813 189.09 258.159 291.64 264.139 326.078C264.139 326.078 232.331 330.907 223.043 326.078C213.627 321.249 224.569 200.908 231.058 175.492Z"
            fill="#C7DDEB" />
        <path
            d="M204.594 175.365C204.594 175.365 181.31 181.592 172.531 189.09C172.531 189.09 177.493 291.513 171.386 325.951C171.386 325.951 205.739 329.382 212.483 325.951C222.025 321.122 211.083 200.781 204.594 175.365Z"
            fill="#C7DDEB" />
        <path
            d="M221.007 259.871L239.583 211.201L230.295 206.372L240.601 204.974L236.403 177.272L231.059 175.492C231.059 175.492 220.498 231.914 221.007 259.871Z"
            fill="#A6CADD" />
        <path
            d="M214.773 259.617L196.197 210.947L205.485 206.118L195.179 204.72L199.377 177.017L204.721 175.238C204.721 175.111 215.155 231.66 214.773 259.617Z"
            fill="#A6CADD" />
        <path
            d="M179.528 221.875C179.528 221.875 184.49 224.544 184.618 253.772C184.872 282.999 198.613 324.045 184.618 321.63C170.749 318.962 168.713 238.904 179.528 221.875Z"
            fill="#A6CADD" />
        <path
            d="M240.092 216.03L238.82 215.649C240.346 213.742 246.963 171.807 229.022 171.299V170.028C248.362 170.155 242 213.361 240.092 216.03Z"
            fill="#5A92D6" />
        <path
            d="M244.672 219.461C244.799 227.848 231.567 227.848 231.694 219.461C231.567 211.074 244.799 211.074 244.672 219.461Z"
            fill="#5A92D6" />
        <path
            d="M241.746 219.461C241.873 224.036 234.621 224.036 234.621 219.461C234.494 214.886 241.873 214.886 241.746 219.461Z"
            fill="#C7DDEB" />
        <path
            d="M259.814 189.09C259.814 189.09 282.971 212.726 297.73 227.848C298.748 228.865 300.402 229.119 301.674 228.483L340.099 207.135C340.735 206.753 341.499 207.007 342.008 207.516C342.135 208.787 354.349 221.621 351.296 222.638C282.334 266.86 311.598 272.452 257.651 235.091C257.524 235.091 255.106 203.068 259.814 189.09Z"
            fill="#C7DDEB" />
        <path
            d="M293.277 223.4C299.512 231.533 300.911 228.737 309.563 224.036C309.563 224.036 316.307 224.798 313.762 228.61C311.217 232.423 308.927 228.865 305.619 231.025C302.311 233.185 306.128 241.318 299.512 240.556C292.895 239.793 297.985 232.931 295.44 231.406C292.895 230.008 286.661 233.058 287.806 228.61C288.824 224.036 293.277 223.4 293.277 223.4Z"
            fill="#A6CADD" />
        <path
            d="M341.626 211.201C341.626 213.615 337.809 213.615 337.809 211.201C337.809 208.787 341.753 208.787 341.626 211.201Z"
            fill="#A6CADD" />
        <path
            d="M172.658 189.09C172.658 189.09 165.024 209.422 152.682 253.39C150.137 262.54 149.755 272.071 151.537 281.474L160.061 326.078L189.58 326.84L177.493 276.772C173.167 243.351 193.651 230.262 172.658 189.09Z"
            fill="#C7DDEB" />
        <path
            d="M182.582 317.564C182.582 319.978 178.765 319.978 178.765 317.564C178.765 315.149 182.582 315.149 182.582 317.564Z"
            fill="#A6CADD" />
        <path
            d="M249.253 306.889C245.181 306.127 229.404 310.702 229.531 303.204L228.641 281.093C228.514 278.678 230.422 276.518 232.967 276.518C237.038 277.281 252.815 272.706 252.688 280.203L253.579 302.315C253.579 304.729 251.67 306.762 249.253 306.889Z"
            fill="#A6CADD" />
        <path d="M250.741 280.784L230.274 281.643L230.328 282.912L250.794 282.053L250.741 280.784Z"
            fill="#C7DDEB" />
        <path
            d="M202.43 234.329C199.631 231.533 182.2 175.111 207.647 170.791L207.774 172.061C183.6 176.763 201.031 231.66 203.575 233.821L202.43 234.329Z"
            fill="#5A92D6" />
        <path
            d="M208.283 262.794C182.582 235.218 216.045 218.19 219.098 257.584C219.225 258.346 220.498 258.473 220.371 257.584C219.989 225.561 187.035 224.925 201.031 255.042C201.54 256.313 208.283 266.987 208.283 262.794Z"
            fill="#5A92D6" />
        <path
            d="M199.504 248.816C199.249 238.395 206.374 233.185 214.645 241.318C219.607 241.445 205.484 232.677 202.43 237.252C200.013 237.506 196.068 251.865 199.504 248.816Z"
            fill="#5A92D6" />
        <path
            d="M210.192 264.319C210.192 266.606 206.629 266.606 206.756 264.319C206.629 262.031 210.192 262.031 210.192 264.319Z"
            fill="#5A92D6" />
        <path
            d="M221.389 257.965C221.389 260.252 217.826 260.252 217.954 257.965C217.826 255.678 221.389 255.678 221.389 257.965Z"
            fill="#5A92D6" />
    </g>
    <defs>
        <linearGradient id="paint0_linear_90_107" x1="325.924" y1="123.518" x2="-53.4198"
            y2="275.993" gradientUnits="userSpaceOnUse">
            <stop stop-color="#4A97C3" />
            <stop offset="1" stop-color="#DFEAF5" />
        </linearGradient>
        <linearGradient id="paint1_linear_90_107" x1="456.529" y1="78.6028" x2="480.416" y2="92.877"
            gradientUnits="userSpaceOnUse">
            <stop stop-color="#4A97C3" />
            <stop offset="1" stop-color="#DFEAF5" />
        </linearGradient>
        <linearGradient id="paint2_linear_90_107" x1="497.579" y1="112.217" x2="519.441"
            y2="123.862" gradientUnits="userSpaceOnUse">
            <stop stop-color="#4A97C3" />
            <stop offset="1" stop-color="#DFEAF5" />
        </linearGradient>
        <linearGradient id="paint3_linear_90_107" x1="308.543" y1="38.7134" x2="285.685"
            y2="106.092" gradientUnits="userSpaceOnUse">
            <stop stop-color="#4A97C3" />
            <stop offset="1" stop-color="#DFEAF5" />
        </linearGradient>
        <clipPath id="clip0_90_107">
            <rect width="612" height="459" fill="white" />
        </clipPath>
    </defs>
</svg>