<svg width="506" height="378" viewBox="0 0 506 378" fill="none" xmlns="http://www.w3.org/2000/svg">
    <path
        d="M386.555 378H198.238C191.347 378 185.717 372.37 185.717 365.479C185.717 358.588 191.347 352.958 198.238 352.958H386.555C393.445 352.958 399.076 358.588 399.076 365.479C399.076 372.37 393.445 378 386.555 378Z"
        fill="#73ABEF" />
    <path
        d="M378.15 372.538H206.639C202.27 372.538 198.74 369.008 198.74 364.639C198.74 360.269 202.27 356.74 206.639 356.74H378.15C382.52 356.74 386.049 360.269 386.049 364.639C386.049 369.008 382.52 372.538 378.15 372.538Z"
        fill="#73ABEF" />
    <path d="M348.484 346.235H236.217L249.998 294.639H334.703L348.484 346.235Z" fill="#F7FDFF" />
    <path
        d="M292.351 341.362C273.191 341.362 255.04 339.261 239.074 335.563L236.217 346.236H348.484L345.627 335.563C329.661 339.261 311.594 341.362 292.351 341.362Z"
        fill="#F7FDFF" />
    <path
        d="M292.35 301.866C308.4 301.866 323.778 303.295 337.728 305.984L334.703 294.724H249.998L246.973 306.068C260.922 303.295 276.3 301.866 292.35 301.866Z"
        fill="#F7FDFF" />
    <path
        d="M493.444 295.312H91.3485C84.878 295.312 79.668 290.102 79.668 283.631V56.5752C79.668 50.1047 84.878 44.8947 91.3485 44.8947H493.444C499.915 44.8947 505.125 50.1047 505.125 56.5752V283.631C505.125 290.102 499.915 295.312 493.444 295.312Z"
        fill="#91C9FF" />
    <path
        d="M492.939 287.077H91.7674C90.0867 287.077 88.7422 285.732 88.7422 284.051V56.1551C88.7422 54.4744 90.0867 53.1299 91.7674 53.1299H492.939C494.62 53.1299 495.964 54.4744 495.964 56.1551V284.051C495.964 285.732 494.62 287.077 492.939 287.077Z"
        fill="#2D65A9" />
    <path
        d="M492.939 53.2139H353.865V287.077H493.023C494.704 287.077 496.048 285.732 496.048 284.051V56.1551C495.964 54.5584 494.62 53.2139 492.939 53.2139Z"
        fill="#73ABEF" />
    <path opacity="0.1"
        d="M367.142 139.263L381.176 134.894H473.024C476.637 134.894 479.662 131.869 479.662 128.255V102.373C479.662 98.7597 476.637 95.7346 473.024 95.7346H377.647C374.033 95.7346 371.008 98.7597 371.008 102.373V125.986L368.823 130.104L365.126 137.079C364.537 138.171 365.714 139.684 367.142 139.263Z"
        fill="black" />
    <path opacity="0.1"
        d="M473.024 214.305C476.637 214.305 479.662 211.279 479.662 207.666V195.733C479.662 192.12 476.637 189.095 473.024 189.095H377.647C374.033 189.095 371.008 192.12 371.008 195.733V205.313L368.823 209.431L365.126 216.405C364.454 217.666 365.63 219.178 367.059 218.758L381.092 214.389H473.024V214.305Z"
        fill="black" />
    <path opacity="0.1"
        d="M479.578 169.095V152.961C479.578 149.347 476.553 146.322 472.939 146.322H377.646C374.033 146.322 371.008 149.347 371.008 152.961V171.448C371.008 175.061 374.033 178.086 377.646 178.086H469.494L483.527 182.456C484.956 182.876 486.132 181.448 485.46 180.103L481.763 173.128L479.578 169.095Z"
        fill="black" />
    <path opacity="0.1"
        d="M481.763 251.195L479.578 247.077V230.943C479.578 227.33 476.553 224.304 472.939 224.304H377.646C374.033 224.304 371.008 227.33 371.008 230.943V249.43C371.008 253.043 374.033 256.069 377.646 256.069H469.494L483.527 260.438C484.956 260.859 486.132 259.43 485.46 258.085L481.763 251.195Z"
        fill="black" />
    <path
        d="M492.939 53.2139H353.865V82.5413H493.023C494.704 82.5413 496.048 82.3732 496.048 82.1211V56.1551C495.964 54.5584 494.62 53.2139 492.939 53.2139Z"
        fill="#5F97DB" />
    <path
        d="M372.941 118.675L365.126 133.381C364.454 134.641 365.63 136.154 367.059 135.734L384.453 130.272L372.941 118.675Z"
        fill="white" />
    <path opacity="0.15"
        d="M372.94 118.675L368.822 126.406C368.99 129.936 371.847 132.877 375.461 133.045L384.536 130.188L372.94 118.675Z"
        fill="black" />
    <path
        d="M473.021 131.364H377.644C374.031 131.364 371.006 128.339 371.006 124.726V98.8435C371.006 95.2301 374.031 92.205 377.644 92.205H473.021C476.635 92.205 479.66 95.2301 479.66 98.8435V124.726C479.576 128.339 476.635 131.364 473.021 131.364Z"
        fill="white" />
    <path d="M381.006 101.196H469.66" stroke="#D3E2ED" stroke-width="2.0852" stroke-miterlimit="10"
        stroke-linecap="round" stroke-linejoin="round" />
    <path d="M381.006 108.255H469.66" stroke="#D3E2ED" stroke-width="2.0852" stroke-miterlimit="10"
        stroke-linecap="round" stroke-linejoin="round" />
    <path d="M381.006 115.23H469.66" stroke="#D3E2ED" stroke-width="2.0852" stroke-miterlimit="10"
        stroke-linecap="round" stroke-linejoin="round" />
    <path d="M381.006 122.289H449.576" stroke="#D3E2ED" stroke-width="2.0852" stroke-miterlimit="10"
        stroke-linecap="round" stroke-linejoin="round" />
    <path
        d="M372.941 198.086L365.126 212.792C364.454 214.052 365.63 215.565 367.059 215.145L384.453 209.683L372.941 198.086Z"
        fill="white" />
    <path opacity="0.15"
        d="M372.94 198.086L368.822 205.817C368.99 209.347 371.847 212.288 375.461 212.456L384.536 209.599L372.94 198.086Z"
        fill="black" />
    <path
        d="M473.021 210.775H377.644C374.031 210.775 371.006 207.75 371.006 204.137V192.204C371.006 188.59 374.031 185.565 377.644 185.565H473.021C476.635 185.565 479.66 188.59 479.66 192.204V204.137C479.576 207.75 476.635 210.775 473.021 210.775Z"
        fill="white" />
    <path d="M381.006 194.641H469.66" stroke="#D3E2ED" stroke-width="2.0852" stroke-miterlimit="10"
        stroke-linecap="round" stroke-linejoin="round" />
    <path d="M381.006 201.7H449.576" stroke="#D3E2ED" stroke-width="2.0852" stroke-miterlimit="10"
        stroke-linecap="round" stroke-linejoin="round" />
    <path
        d="M477.643 161.868L485.458 176.574C486.131 177.834 484.954 179.347 483.526 178.926L466.131 173.464L477.643 161.868Z"
        fill="white" />
    <path opacity="0.15"
        d="M477.643 161.868L481.761 169.599C481.593 173.128 478.736 176.069 475.122 176.237L466.047 173.38L477.643 161.868Z"
        fill="black" />
    <path
        d="M377.644 174.557H473.021C476.635 174.557 479.66 171.532 479.66 167.918V149.431C479.66 145.818 476.635 142.793 473.021 142.793H377.644C374.031 142.793 371.006 145.818 371.006 149.431V167.918C371.006 171.532 374.031 174.557 377.644 174.557Z"
        fill="white" />
    <path d="M469.66 151.868H381.006" stroke="#D3E2ED" stroke-width="2.0852" stroke-miterlimit="10"
        stroke-linecap="round" stroke-linejoin="round" />
    <path d="M469.66 158.843H381.006" stroke="#D3E2ED" stroke-width="2.0852" stroke-miterlimit="10"
        stroke-linecap="round" stroke-linejoin="round" />
    <path d="M469.66 165.481H401.09" stroke="#D3E2ED" stroke-width="2.0852" stroke-miterlimit="10"
        stroke-linecap="round" stroke-linejoin="round" />
    <path
        d="M477.643 239.934L485.458 254.64C486.131 255.901 484.954 257.413 483.526 256.993L466.131 251.531L477.643 239.934Z"
        fill="white" />
    <path opacity="0.15"
        d="M477.643 239.934L481.761 247.665C481.593 251.195 478.736 254.136 475.122 254.304L466.047 251.447L477.643 239.934Z"
        fill="black" />
    <path
        d="M377.644 252.539H473.021C476.635 252.539 479.66 249.514 479.66 245.9V227.413C479.66 223.8 476.635 220.775 473.021 220.775H377.644C374.031 220.775 371.006 223.8 371.006 227.413V245.9C371.006 249.598 374.031 252.539 377.644 252.539Z"
        fill="white" />
    <path d="M469.66 229.85H381.006" stroke="#D3E2ED" stroke-width="2.0852" stroke-miterlimit="10"
        stroke-linecap="round" stroke-linejoin="round" />
    <path d="M469.66 236.909H381.006" stroke="#D3E2ED" stroke-width="2.0852" stroke-miterlimit="10"
        stroke-linecap="round" stroke-linejoin="round" />
    <path d="M469.66 243.548H401.09" stroke="#D3E2ED" stroke-width="2.0852" stroke-miterlimit="10"
        stroke-linecap="round" stroke-linejoin="round" />
    <path
        d="M358.318 367.244H226.387C220.673 367.244 216.051 362.538 216.051 356.908V356.656C216.051 350.942 220.757 346.32 226.387 346.32H358.318C364.032 346.32 368.654 351.026 368.654 356.656V356.908C368.738 362.538 364.032 367.244 358.318 367.244Z"
        fill="#2D65A9" />
    <path opacity="0.05"
        d="M358.318 360.185H226.387C221.849 360.185 217.984 357.244 216.639 353.21C216.303 354.303 216.051 355.395 216.051 356.572V356.824C216.051 362.538 220.757 367.16 226.387 367.16H358.318C364.032 367.16 368.654 362.454 368.654 356.824V356.572C368.654 355.395 368.402 354.219 368.066 353.21C366.721 357.244 362.856 360.185 358.318 360.185Z"
        fill="#73ABEF" />
    <path
        d="M280.506 44.8947V55.987C280.506 62.5416 285.884 67.8356 292.354 67.8356C298.825 67.8356 304.203 62.5416 304.203 55.987V44.8947H280.506Z"
        fill="#98C1E0" />
    <path
        d="M292.355 63.3819C295.186 63.3819 297.48 61.0869 297.48 58.2559C297.48 55.4249 295.186 53.1299 292.355 53.1299C289.524 53.1299 287.229 55.4249 287.229 58.2559C287.229 61.0869 289.524 63.3819 292.355 63.3819Z"
        fill="#E0F4FF" />
    <path
        d="M292.355 60.6088C293.654 60.6088 294.708 59.5553 294.708 58.2559C294.708 56.9564 293.654 55.903 292.355 55.903C291.055 55.903 290.002 56.9564 290.002 58.2559C290.002 59.5553 291.055 60.6088 292.355 60.6088Z"
        fill="white" />
    <path
        d="M79.582 268.505V283.631C79.582 290.102 84.792 295.312 91.2626 295.312H493.443C499.913 295.312 505.123 290.102 505.123 283.631V268.505H79.582Z"
        fill="#2D65A9" />
    <path
        d="M481.762 289.682H470.585C469.409 289.682 468.4 288.673 468.4 287.497V276.321C468.4 275.144 469.409 274.136 470.585 274.136H481.762C482.938 274.136 483.946 275.144 483.946 276.321V287.497C483.946 288.757 482.938 289.682 481.762 289.682Z"
        fill="white" />
    <path
        d="M480.838 288.421H471.511C470.502 288.421 469.662 287.581 469.662 286.572V277.245C469.662 276.236 470.502 275.396 471.511 275.396H480.838C481.847 275.396 482.687 276.236 482.687 277.245V286.572C482.603 287.581 481.847 288.421 480.838 288.421Z"
        fill="#98C1E0" />
    <path opacity="0.2"
        d="M470.5 279.85C472.013 281.531 474.029 282.539 476.214 282.539C478.399 282.539 480.332 281.531 481.928 279.85V277.833C481.928 276.993 481.172 276.237 480.332 276.237H472.181C471.34 276.237 470.584 276.993 470.584 277.833V279.85H470.5Z"
        fill="white" />
    <path
        d="M461.761 285.48H456.635C456.047 285.48 455.627 285.06 455.627 284.472V279.346C455.627 278.757 456.047 278.337 456.635 278.337H461.761C462.35 278.337 462.77 278.757 462.77 279.346V284.472C462.77 285.06 462.35 285.48 461.761 285.48Z"
        fill="#E0F4FF" />
    <path
        d="M461.173 284.64H457.223C456.803 284.64 456.467 284.304 456.467 283.883V279.934C456.467 279.514 456.803 279.178 457.223 279.178H461.173C461.593 279.178 461.929 279.514 461.929 279.934V283.883C461.929 284.304 461.593 284.64 461.173 284.64Z"
        fill="#98C1E0" />
    <path
        d="M451.091 285.48H445.965C445.377 285.48 444.957 285.06 444.957 284.472V279.346C444.957 278.757 445.377 278.337 445.965 278.337H451.091C451.68 278.337 452.1 278.757 452.1 279.346V284.472C452.1 285.06 451.596 285.48 451.091 285.48Z"
        fill="#E0F4FF" />
    <path
        d="M450.421 284.64H446.471C446.051 284.64 445.715 284.304 445.715 283.883V279.934C445.715 279.514 446.051 279.178 446.471 279.178H450.421C450.841 279.178 451.177 279.514 451.177 279.934V283.883C451.261 284.304 450.841 284.64 450.421 284.64Z"
        fill="#98C1E0" />
    <path
        d="M440.334 285.48H435.208C434.619 285.48 434.199 285.06 434.199 284.472V279.346C434.199 278.757 434.619 278.337 435.208 278.337H440.334C440.922 278.337 441.342 278.757 441.342 279.346V284.472C441.342 285.06 440.922 285.48 440.334 285.48Z"
        fill="#E0F4FF" />
    <path
        d="M439.745 284.64H435.795C435.375 284.64 435.039 284.304 435.039 283.883V279.934C435.039 279.514 435.375 279.178 435.795 279.178H439.745C440.165 279.178 440.501 279.514 440.501 279.934V283.883C440.501 284.304 440.165 284.64 439.745 284.64Z"
        fill="#98C1E0" />
    <path
        d="M367.564 68.4239C367.564 66.8273 367.985 65.4827 368.909 64.5584C369.749 63.634 370.926 63.1298 372.27 63.1298C373.195 63.1298 374.035 63.3819 374.707 63.8021C375.464 64.2222 375.968 64.8105 376.388 65.6508C376.808 66.4071 376.976 67.3315 376.976 68.2558C376.976 69.2642 376.808 70.1886 376.388 70.9449C375.968 71.7011 375.379 72.2894 374.707 72.7095C373.951 73.1297 373.195 73.2978 372.354 73.2978C371.43 73.2978 370.59 73.0457 369.833 72.6255C369.077 72.2053 368.573 71.5331 368.153 70.7768C367.733 70.1045 367.564 69.2642 367.564 68.4239ZM368.909 68.4239C368.909 69.6003 369.245 70.5247 369.833 71.1969C370.506 71.8692 371.262 72.2053 372.27 72.2053C373.279 72.2053 374.035 71.8692 374.707 71.1969C375.379 70.5247 375.632 69.5163 375.632 68.2558C375.632 67.4155 375.463 66.7432 375.211 66.155C374.959 65.5668 374.539 65.0626 374.035 64.7264C373.531 64.3903 372.943 64.2222 372.27 64.2222C371.346 64.2222 370.59 64.5584 369.917 65.1466C369.245 65.9029 368.909 66.9113 368.909 68.4239Z"
        fill="white" />
    <path
        d="M378.656 73.2138V63.382H380.001L385.211 71.113V63.382H386.471V73.2138H385.043L379.833 65.4828V73.2138H378.656Z"
        fill="white" />
    <path d="M388.488 73.2138V63.382H389.833V72.0373H394.707V73.2138H388.488Z" fill="white" />
    <path d="M396.473 73.2138V63.382H397.817V73.2138H396.473Z" fill="white" />
    <path
        d="M400.084 73.2138V63.382H401.428L406.639 71.113V63.382H407.899V73.2138H406.554L401.344 65.4828V73.2138H400.084Z"
        fill="white" />
    <path
        d="M410 73.2138V63.382H417.143V64.5584H411.345V67.5836H416.807V68.76H411.345V72.1213H417.395V73.2978H410V73.2138Z"
        fill="white" />
    <path
        d="M425.125 73.2138V63.382H428.486C429.243 63.382 429.831 63.466 430.251 63.55C430.839 63.7181 431.259 63.8862 431.68 64.2223C432.184 64.6424 432.604 65.2307 432.856 65.9029C433.108 66.5752 433.276 67.3315 433.276 68.2558C433.276 69.0121 433.192 69.6844 433.024 70.2726C432.856 70.8609 432.604 71.365 432.352 71.7012C432.1 72.1213 431.764 72.3734 431.427 72.6255C431.091 72.8776 430.671 73.0457 430.251 73.1297C429.831 73.2138 429.243 73.2978 428.654 73.2978H425.125V73.2138ZM426.385 72.0373H428.486C429.159 72.0373 429.663 71.9533 429.999 71.8692C430.335 71.7852 430.671 71.6172 430.923 71.3651C431.259 71.0289 431.511 70.6088 431.68 70.1046C431.848 69.6004 431.932 68.9281 431.932 68.1718C431.932 67.1634 431.764 66.3231 431.427 65.8189C431.091 65.2307 430.671 64.8945 430.167 64.7265C429.831 64.5584 429.243 64.5584 428.486 64.5584H426.385V72.0373Z"
        fill="white" />
    <path
        d="M434.621 68.4239C434.621 66.8273 435.041 65.4828 435.966 64.5584C436.806 63.6341 437.982 63.1299 439.327 63.1299C440.251 63.1299 441.092 63.382 441.764 63.8021C442.52 64.2223 443.024 64.8105 443.445 65.6509C443.865 66.4072 444.033 67.3315 444.033 68.2559C444.033 69.2643 443.865 70.1886 443.445 70.9449C443.024 71.7012 442.436 72.2894 441.764 72.7096C441.008 73.1298 440.251 73.2978 439.411 73.2978C438.487 73.2978 437.646 73.0457 436.89 72.6256C436.134 72.2054 435.629 71.5331 435.209 70.7768C434.789 70.1046 434.621 69.2643 434.621 68.4239ZM435.966 68.4239C435.966 69.6004 436.302 70.5247 436.89 71.197C437.562 71.8693 438.319 72.2054 439.327 72.2054C440.335 72.2054 441.092 71.8693 441.764 71.197C442.436 70.5247 442.688 69.5164 442.688 68.2559C442.688 67.4155 442.52 66.7433 442.268 66.1551C442.016 65.5668 441.596 65.0626 441.092 64.7265C440.587 64.3904 439.999 64.2223 439.327 64.2223C438.403 64.2223 437.646 64.5584 436.974 65.1467C436.302 65.903 435.966 66.9114 435.966 68.4239Z"
        fill="white" />
    <path
        d="M452.772 69.7685L454.116 70.1046C453.864 71.197 453.36 71.9533 452.604 72.5415C451.847 73.1298 451.007 73.3819 449.999 73.3819C448.906 73.3819 448.066 73.1298 447.394 72.7096C446.721 72.2895 446.217 71.6172 445.881 70.8609C445.545 70.1046 445.377 69.1802 445.377 68.2559C445.377 67.2475 445.545 66.3231 445.965 65.5668C446.385 64.8106 446.89 64.2223 447.646 63.8022C448.402 63.382 449.158 63.2139 449.999 63.2139C451.007 63.2139 451.847 63.466 452.52 63.9702C453.192 64.4744 453.696 65.1467 453.948 66.071L452.688 66.4072C452.436 65.6509 452.1 65.1467 451.679 64.8105C451.259 64.4744 450.671 64.3064 449.999 64.3064C449.242 64.3064 448.57 64.4744 448.066 64.8105C447.562 65.1467 447.226 65.6509 446.974 66.2391C446.721 66.8273 446.637 67.4996 446.637 68.1719C446.637 69.0122 446.721 69.7685 446.974 70.3567C447.226 70.9449 447.562 71.4491 448.15 71.7853C448.654 72.1214 449.242 72.2895 449.831 72.2895C450.587 72.2895 451.175 72.0374 451.679 71.6172C452.268 71.197 452.604 70.6088 452.772 69.7685Z"
        fill="white" />
    <path d="M458.15 73.2138V64.4744H454.873V63.2979H462.688V64.4744H459.411V73.2138H458.15Z"
        fill="white" />
    <path
        d="M463.443 68.4239C463.443 66.8273 463.864 65.4828 464.788 64.5584C465.712 63.6341 466.805 63.1299 468.149 63.1299C469.074 63.1299 469.914 63.382 470.586 63.8021C471.342 64.2223 471.847 64.8105 472.267 65.6509C472.687 66.4072 472.855 67.3315 472.855 68.2559C472.855 69.2643 472.687 70.1886 472.267 70.9449C471.847 71.7012 471.258 72.2894 470.586 72.7096C469.914 73.1298 469.074 73.2978 468.233 73.2978C467.309 73.2978 466.469 73.0457 465.712 72.6256C464.956 72.2054 464.452 71.5331 464.032 70.7768C463.611 70.1046 463.443 69.2643 463.443 68.4239ZM464.788 68.4239C464.788 69.6004 465.124 70.5247 465.712 71.197C466.385 71.8693 467.141 72.2054 468.149 72.2054C469.158 72.2054 469.914 71.8693 470.586 71.197C471.258 70.5247 471.511 69.5164 471.511 68.2559C471.511 67.4155 471.342 66.7433 471.09 66.1551C470.838 65.5668 470.418 65.0626 469.914 64.7265C469.41 64.3904 468.821 64.2223 468.149 64.2223C467.225 64.2223 466.469 64.5584 465.796 65.1467C465.124 65.903 464.788 66.9114 464.788 68.4239Z"
        fill="white" />
    <path
        d="M474.537 73.2138V63.382H478.907C479.747 63.382 480.419 63.466 480.924 63.6341C481.344 63.8021 481.764 64.1382 482.016 64.5584C482.268 64.9786 482.436 65.4828 482.436 66.071C482.436 66.7433 482.184 67.3315 481.764 67.8357C481.344 68.3399 480.587 68.592 479.663 68.76C479.999 68.9281 480.251 69.0962 480.419 69.2642C480.84 69.6004 481.176 70.0205 481.512 70.6088L483.192 73.2978H481.512L480.167 71.281C479.747 70.6928 479.495 70.2726 479.243 69.9365C478.991 69.6004 478.739 69.4323 478.571 69.2642C478.403 69.1802 478.15 69.0121 477.982 69.0121C477.814 69.0121 477.562 68.9281 477.226 68.9281H475.714V73.2978H474.537V73.2138ZM475.882 67.6676H478.655C479.243 67.6676 479.747 67.5836 480.083 67.4995C480.419 67.4155 480.671 67.1634 480.84 66.9113C481.008 66.6592 481.092 66.3231 481.092 65.987C481.092 65.4828 480.924 65.1466 480.587 64.8105C480.251 64.4744 479.747 64.3903 478.991 64.3903H475.882V67.6676Z"
        fill="white" />
    <path opacity="0.05" d="M88.8262 257.665L495.964 263.8V268.505H88.8262V257.665Z" fill="black" />
    <path opacity="0.05"
        d="M90.8431 221.783C90.9271 221.783 91.0112 221.783 91.1792 221.783C91.6834 221.783 92.2717 221.783 92.7758 221.783C92.8599 221.783 92.9439 221.783 93.0279 221.783C93.6162 221.783 94.2044 221.699 94.7926 221.699C94.9607 221.699 95.0447 221.699 95.2128 221.699C95.801 221.615 96.3893 221.531 96.9775 221.447C97.5657 221.363 98.1539 221.279 98.7422 221.111C98.9102 221.111 98.9943 221.027 99.1623 221.027C99.7506 220.859 100.255 220.775 100.843 220.607C100.927 220.607 101.011 220.523 101.179 220.523C101.683 220.355 102.188 220.187 102.692 220.019C102.776 220.019 102.86 219.935 102.944 219.935C103.532 219.766 104.036 219.514 104.54 219.346C104.708 219.262 104.793 219.262 104.961 219.178C105.549 218.926 106.053 218.758 106.557 218.506H106.641C107.145 218.254 107.65 218.002 108.238 217.75C108.322 217.666 108.49 217.666 108.574 217.582C109.078 217.33 109.582 217.077 110.087 216.741C110.171 216.657 110.255 216.657 110.423 216.573C110.843 216.321 111.347 216.069 111.767 215.817C111.851 215.733 111.935 215.733 112.019 215.649C112.524 215.313 113.028 215.061 113.532 214.725C113.616 214.641 113.784 214.556 113.868 214.472C114.372 214.136 114.876 213.8 115.297 213.464L115.381 213.38C115.885 213.044 116.305 212.708 116.725 212.372C116.809 212.288 116.977 212.204 117.061 212.12C117.481 211.783 117.986 211.447 118.406 211.111C118.49 211.027 118.574 210.943 118.658 210.859C119.078 210.523 119.498 210.187 119.834 209.935C119.918 209.851 120.002 209.767 120.086 209.767C120.507 209.43 120.927 209.01 121.347 208.674C121.431 208.59 121.599 208.506 121.683 208.422C122.103 208.086 122.523 207.666 122.944 207.33L123.028 207.246C123.448 206.91 123.784 206.489 124.204 206.153C124.288 206.069 124.372 205.985 124.456 205.901C124.876 205.565 125.212 205.145 125.633 204.809C125.717 204.725 125.801 204.641 125.885 204.557C126.221 204.22 126.557 203.884 126.893 203.548C126.977 203.464 126.977 203.464 127.061 203.38C127.397 202.96 127.817 202.624 128.154 202.288C128.238 202.204 128.322 202.12 128.406 202.036C128.742 201.615 129.078 201.279 129.498 200.943C129.834 200.607 130.17 200.187 130.506 199.851C130.591 199.767 130.591 199.683 130.675 199.683C131.011 199.347 131.347 198.926 131.599 198.59C131.599 198.506 131.683 198.506 131.683 198.422C132.019 198.086 132.271 197.75 132.523 197.414L132.607 197.33C132.943 196.994 133.196 196.658 133.448 196.321C133.448 196.237 133.532 196.237 133.532 196.153C133.784 195.901 133.952 195.649 134.204 195.313L133.868 200.607C133.784 201.784 134.792 202.708 136.053 202.708H138.069L137.901 206.237C137.901 206.741 137.985 207.162 138.237 207.582L138.069 268.758H240.841L241.009 266.993L248.908 194.809C248.992 194.977 249.833 196.321 251.345 198.338L251.429 198.422C251.597 198.674 251.85 198.926 252.018 199.178L252.102 199.263C252.27 199.515 252.522 199.851 252.774 200.103C253.026 200.355 253.194 200.691 253.446 200.943C253.53 201.027 253.53 201.027 253.614 201.111C253.866 201.363 254.118 201.699 254.371 202.036C254.455 202.12 254.455 202.12 254.539 202.204C254.791 202.54 255.043 202.792 255.295 203.128C255.295 203.128 255.295 203.128 255.295 203.212C255.547 203.548 255.883 203.884 256.135 204.22C256.219 204.304 256.219 204.389 256.303 204.389C256.555 204.725 256.892 205.061 257.228 205.397C257.312 205.481 257.312 205.565 257.396 205.565C257.732 205.901 258.068 206.237 258.404 206.573C258.74 206.91 259.076 207.246 259.412 207.582C259.497 207.666 259.581 207.75 259.665 207.75C260.001 208.086 260.337 208.422 260.673 208.758C260.757 208.842 260.841 208.926 260.925 209.01C261.261 209.346 261.681 209.683 262.018 210.019L262.102 210.103C262.438 210.439 262.858 210.775 263.194 211.027C263.278 211.111 263.362 211.195 263.446 211.195C263.866 211.531 264.202 211.867 264.623 212.204C264.707 212.288 264.791 212.372 264.875 212.456C265.295 212.792 265.715 213.128 266.135 213.464C266.219 213.464 266.219 213.548 266.303 213.548C266.723 213.884 267.143 214.136 267.564 214.472C267.648 214.556 267.732 214.556 267.816 214.64C268.236 214.977 268.656 215.229 269.16 215.565C269.244 215.649 269.328 215.733 269.496 215.733C269.917 216.069 270.421 216.321 270.925 216.657C271.009 216.741 271.093 216.741 271.177 216.825C271.597 217.077 272.101 217.33 272.522 217.666C272.606 217.75 272.69 217.75 272.774 217.834C273.278 218.086 273.782 218.338 274.286 218.674C274.37 218.758 274.538 218.758 274.622 218.842C275.127 219.094 275.631 219.346 276.135 219.598C276.219 219.598 276.303 219.682 276.387 219.682C276.891 219.935 277.395 220.103 277.9 220.355C277.984 220.355 278.068 220.439 278.152 220.439C278.656 220.691 279.244 220.859 279.748 221.111C279.832 221.195 280 221.195 280.085 221.279C280.589 221.447 281.177 221.699 281.765 221.867C281.849 221.867 281.933 221.951 282.017 221.951C282.521 222.119 283.11 222.287 283.698 222.456C283.782 222.456 283.782 222.456 283.866 222.54C284.454 222.708 285.042 222.792 285.631 222.96C285.715 222.96 285.883 223.044 285.967 223.044C286.555 223.128 287.143 223.296 287.731 223.38C287.816 223.38 287.984 223.38 288.068 223.464C288.656 223.548 289.244 223.632 289.916 223.716H290C290.589 223.8 291.261 223.8 291.849 223.8C291.933 223.8 292.101 223.8 292.185 223.8C292.773 223.8 293.446 223.8 294.034 223.8C294.118 223.8 294.286 223.8 294.37 223.8C295.042 223.8 295.715 223.716 296.387 223.716C296.891 223.716 297.311 223.632 297.815 223.548C297.983 223.548 298.067 223.548 298.236 223.464C298.656 223.38 298.992 223.296 299.412 223.296C299.496 223.296 299.664 223.296 299.748 223.212C300.252 223.128 300.757 222.96 301.261 222.876C301.345 222.876 301.513 222.792 301.597 222.792C302.017 222.708 302.437 222.54 302.857 222.456C303.025 222.372 303.193 222.371 303.278 222.287C303.782 222.119 304.286 221.951 304.79 221.783C304.79 221.783 304.79 221.783 304.874 221.783C305.378 221.615 305.967 221.363 306.471 221.195C306.639 221.111 306.807 221.111 306.975 221.027C307.395 220.859 307.815 220.691 308.319 220.523C308.488 220.439 308.572 220.439 308.74 220.355C309.328 220.103 309.832 219.851 310.42 219.682C310.504 219.598 310.672 219.598 310.84 219.514C311.261 219.346 311.765 219.094 312.185 218.926C312.353 218.842 312.521 218.758 312.689 218.674C313.193 218.422 313.782 218.17 314.286 217.918C314.37 217.918 314.37 217.834 314.454 217.834C315.042 217.582 315.63 217.246 316.219 216.993C316.387 216.909 316.555 216.825 316.723 216.741C317.143 216.489 317.647 216.237 318.067 215.985C318.235 215.901 318.403 215.817 318.487 215.733C319.076 215.397 319.664 215.061 320.252 214.809C320.42 214.725 320.504 214.641 320.672 214.556C321.176 214.304 321.597 214.052 322.101 213.716C322.269 213.632 322.437 213.548 322.605 213.38C323.109 213.044 323.697 212.708 324.202 212.456C324.286 212.456 324.286 212.372 324.37 212.372C324.958 212.035 325.546 211.615 326.134 211.279C326.302 211.195 326.47 211.111 326.639 210.943C327.143 210.691 327.563 210.355 328.067 210.103C328.235 210.019 328.403 209.935 328.487 209.851C329.076 209.515 329.664 209.094 330.252 208.758C330.336 208.674 330.504 208.59 330.588 208.506C331.092 208.17 331.596 207.834 332.101 207.582C332.269 207.498 332.437 207.33 332.605 207.246C333.109 206.91 333.697 206.489 334.201 206.153C334.286 206.153 334.286 206.069 334.37 206.069C334.958 205.649 335.546 205.313 336.134 204.893C336.302 204.809 336.386 204.725 336.554 204.557C337.059 204.22 337.479 203.884 337.983 203.548C338.067 203.464 338.235 203.38 338.319 203.296C338.907 202.876 339.496 202.456 340 202.12C340.084 202.036 340.084 202.036 340.168 201.952C340.672 201.615 341.176 201.195 341.68 200.859C341.764 200.775 341.932 200.691 342.017 200.607C342.521 200.187 343.109 199.851 343.613 199.431C344.201 199.01 344.706 198.59 345.294 198.17C345.378 198.086 345.462 198.086 345.546 198.002C346.05 197.666 346.47 197.33 346.974 196.91C347.058 196.826 347.143 196.826 347.143 196.742C348.235 195.901 349.243 195.145 350.252 194.389C350.336 194.305 350.336 194.305 350.42 194.221C351.428 193.464 352.437 192.708 353.361 191.952C353.361 191.952 353.361 191.952 353.445 191.952C360.588 186.322 365.294 182.204 365.294 182.204L365.21 182.036C366.386 182.288 367.562 182.372 368.823 182.372C373.529 182.372 376.89 180.691 379.327 177.918C384.873 176.658 390.419 173.633 389.411 170.439C388.739 168.339 386.302 167.75 383.277 168.002C383.277 167.918 383.277 167.834 383.277 167.75C387.31 165.649 390.251 162.876 389.159 160.355C388.234 158.339 385.798 157.834 382.856 158.339C382.772 158.171 382.772 157.919 382.688 157.75C385.629 155.566 387.478 153.045 386.302 150.944C385.209 148.927 382.688 148.591 379.747 149.179C386.806 142.204 399.999 128.339 393.276 127.163C385.797 125.902 369.999 143.381 364.957 149.263C361.344 146.994 356.974 146.574 353.529 150.86C351.764 153.129 350.756 155.566 350.336 157.919C306.135 178.927 296.807 184.053 296.807 184.053C296.807 184.053 278.656 159.179 260.001 142.036C249.833 132.709 230.757 128.003 230.757 128.003C228.993 127.415 227.144 126.91 225.211 126.658C225.043 126.49 224.959 126.322 224.791 126.154H224.707C222.438 123.549 220.001 121.28 217.228 119.348L217.9 122.205L213.699 119.768V119.348H217.228C216.136 118.591 215.043 117.919 213.867 117.247L213.951 116.154C225.547 111.364 234.455 101.533 237.228 89.8521C248.236 93.0453 255.295 69.5162 245.631 67.6675C244.875 67.4994 244.119 67.4154 243.446 67.4154C244.539 62.2894 244.035 57.7516 242.942 54.0542H160.422C158.91 57.7516 157.901 62.2054 158.405 67.4154C157.733 67.4154 156.977 67.4994 156.136 67.6675C146.221 69.5162 150.674 93.0453 162.103 89.8521C163.615 101.533 171.43 111.364 182.439 116.154L182.355 117.247C181.094 117.919 179.834 118.591 178.573 119.432H182.187V119.768L176.808 122.709L178.573 119.432C175.716 121.28 173.027 123.549 170.506 126.154H170.422C170.254 126.322 170.086 126.49 169.918 126.658C167.649 126.995 165.464 127.583 163.363 128.339C163.363 128.339 147.649 129.179 134.12 140.44C117.818 154.053 93.3641 185.901 93.3641 185.901C93.3641 185.901 92.1036 183.885 88.5742 178.927V222.54C88.6583 222.54 88.7423 222.54 88.8263 222.54C89.6666 221.699 90.2549 221.783 90.8431 221.783Z"
        fill="black" />
    <path
        d="M169.076 102.121C174.874 98.0033 181.429 95.5663 188.488 95.5663C195.462 95.5663 202.017 97.9193 207.731 101.953"
        stroke="#49547A" stroke-width="4.2182" stroke-miterlimit="10" stroke-linecap="round"
        stroke-linejoin="round" />
    <path
        d="M221.68 111.365C221.68 111.365 241.007 116.407 251.679 126.491C271.259 144.894 290.839 171.616 290.839 171.616C290.839 171.616 300.082 166.07 344.619 142.709L359.241 169.767C359.241 169.767 316.468 212.12 292.687 214.389C264.62 217.078 243.864 183.633 243.864 183.633C243.864 183.633 241.679 135.566 221.68 111.365Z"
        fill="#F7FDFF" />
    <path opacity="0.03"
        d="M291.761 209.347C274.45 211.027 256.971 193.885 245.375 185.902C250.585 193.381 269.072 216.658 292.601 214.389C309.24 212.792 335.122 191.616 349.239 179.011C329.744 189.431 304.618 208.086 291.761 209.347Z"
        fill="black" />
    <path
        d="M355.545 136.238C355.545 136.238 375.04 108.928 384.116 110.524C393.192 112.205 367.898 138.339 367.898 138.339L355.545 136.238Z"
        fill="#E6AE9C" />
    <path
        d="M376.467 152.121C376.467 161.952 372.518 169.851 362.686 169.851C352.854 169.851 344.955 161.868 344.955 152.121C344.955 142.373 352.938 134.39 362.686 134.39C372.518 134.39 376.467 142.373 376.467 152.121Z"
        fill="#E6AE9C" />
    <path
        d="M378.486 136.154C382.183 142.961 360.419 153.381 357.225 147.667C354.032 141.953 374.368 128.759 378.486 136.154Z"
        fill="#FFC2AD" />
    <path
        d="M381.846 146.322C384.955 152.877 363.779 161.448 361.174 155.818C358.653 150.272 378.485 139.095 381.846 146.322Z"
        fill="#FFC2AD" />
    <path
        d="M382.602 157.162C384.702 163.549 364.535 169.095 362.77 163.717C361.005 158.339 380.333 150.188 382.602 157.162Z"
        fill="#FFC2AD" />
    <path
        d="M347.058 160.44C347.058 160.44 338.318 146.826 345.713 135.986C353.108 125.146 367.393 142.541 363.528 145.986C359.662 149.431 353.696 144.642 353.696 144.642C353.696 144.642 360.923 155.734 347.058 160.44Z"
        fill="#FFC2AD" />
    <path
        d="M154.371 111.701C154.371 111.701 138.657 112.625 125.8 124.726C110.254 139.347 87.6494 173.549 87.6494 173.549C87.6494 173.549 80.2545 161.7 49.0784 122.289L24.709 141.112C24.709 141.112 55.2969 206.994 82.9436 212.54C110.59 218.086 133.111 178.002 133.111 178.002C133.111 178.002 134.372 135.902 154.371 111.701Z"
        fill="#F7FDFF" />
    <path opacity="0.03"
        d="M83.8689 207.414C65.1297 203.632 40.0039 164.557 26.3906 144.389C33.1132 157.919 59.1633 207.666 83.0286 212.456C105.129 216.91 124.037 192.12 130.675 182.036C119.583 191.364 101.768 211.027 83.8689 207.414Z"
        fill="black" />
    <path
        d="M58.238 108.507C53.028 108.171 49.3306 118.927 48.4062 122.037C46.8936 119.684 44.9609 115.314 42.0197 111.112C37.9862 101.533 31.7677 88.0875 27.8182 87.4993C20.9275 86.4909 29.4989 105.902 33.3644 113.97C33.2803 113.97 33.1963 114.054 33.1123 114.054C26.8939 105.482 16.6419 92.8774 10.8436 93.8857C4.96134 94.8941 17.4822 110.272 25.9695 119.852C25.8014 120.104 25.6334 120.356 25.4653 120.524C18.6587 114.222 8.32265 105.818 3.28069 107.499C-2.68562 109.432 13.3646 122.289 21.8519 128.675C21.6838 129.179 21.5998 129.684 21.5158 130.188C14.7932 124.978 5.80167 119.096 1.85214 121.112C-4.87047 124.558 25.2972 143.045 25.2972 143.045C26.2216 143.801 27.314 144.473 28.6585 145.062C34.6249 147.583 41.2634 146.49 45.9693 142.625C45.9693 142.625 52.7759 139.515 57.9019 124.642C58.0699 124.726 64.2043 109.012 58.238 108.507Z"
        fill="#FFC2AD" />
    <path
        d="M239.58 268.505L245.714 145.314C245.714 125.566 229.496 109.348 209.748 109.348H167.144C147.396 109.348 131.178 125.566 131.178 145.314L137.312 268.505H239.58Z"
        fill="#5F97DB" />
    <path
        d="M188.49 126.07C179.834 126.07 172.691 119.012 172.691 110.272V77.6675C172.691 69.0122 179.75 61.8694 188.49 61.8694C197.145 61.8694 204.288 68.9281 204.288 77.6675V110.272C204.288 119.012 197.145 126.07 188.49 126.07Z"
        fill="#FFC2AD" />
    <path
        d="M188.49 61.8694C179.834 61.8694 172.691 68.9281 172.691 77.6675V100.02C179.078 104.81 186.977 107.583 195.464 107.583C198.489 107.583 201.431 107.247 204.204 106.575V77.6675C204.288 69.0122 197.145 61.8694 188.49 61.8694Z"
        fill="#E6AE9C" />
    <path
        d="M188.49 240.775L199.079 228.086L193.364 137.331L188.49 132.289L183.617 137.331L177.902 228.086L188.49 240.775Z"
        fill="#4179BD" />
    <path
        d="M195.393 133.388C196.01 129.585 193.428 126.003 189.625 125.385C185.823 124.768 182.24 127.351 181.623 131.153C181.006 134.955 183.588 138.538 187.391 139.155C191.193 139.772 194.776 137.19 195.393 133.388Z"
        fill="#4179BD" />
    <path
        d="M172.694 102.457C172.694 102.457 176.728 116.659 188.492 120.608V126.07L179.837 138.507C179.837 138.507 162.442 131.616 161.35 109.348L172.694 102.457Z"
        fill="#4179BD" />
    <path
        d="M204.29 102.457C204.29 102.457 200.257 116.659 188.492 120.608V126.07L197.148 138.507C197.148 138.507 214.542 131.616 215.635 109.348L204.29 102.457Z"
        fill="#4179BD" />
    <path
        d="M215.799 109.852C216.891 114.81 224.622 155.313 188.488 184.893C152.354 155.313 160.085 114.81 161.177 109.852C144.203 112.709 131.178 127.583 131.178 145.314L137.312 268.505H188.404H239.496L245.63 145.314C245.798 127.583 232.773 112.709 215.799 109.852Z"
        fill="white" />
    <path
        d="M188.993 184.473C188.825 184.641 188.657 184.725 188.489 184.893C188.321 184.725 188.153 184.641 187.985 184.473C187.565 192.792 187.229 211.952 187.229 234.388C187.229 247.329 187.313 259.178 187.481 268.506H188.489H189.497C189.665 259.178 189.749 247.329 189.749 234.388C189.749 211.952 189.413 192.792 188.993 184.473Z"
        fill="#DCE7EB" />
    <path opacity="0.05"
        d="M187.312 264.724C169.749 264.724 152.859 262.959 136.893 259.766L137.313 268.505H188.405H239.496L239.917 259.346C223.446 262.875 205.715 264.724 187.312 264.724Z"
        fill="black" />
    <path
        d="M161.176 110.608C159.244 111.028 157.395 111.533 155.63 112.205C155.378 112.541 144.034 124.642 143.193 160.776L155.126 164.977L147.983 179.599C147.983 179.599 160.924 203.044 188.403 211.447V186.406C148.571 158.423 159.916 115.734 161.176 110.608Z"
        fill="#DCE7EB" />
    <path
        d="M215.799 110.608C217.732 111.028 219.58 111.533 221.345 112.205C221.597 112.541 232.941 124.642 233.782 160.776L221.849 164.977L228.992 179.599C228.992 179.599 216.051 203.044 188.572 211.447V186.406C228.488 158.423 217.059 115.734 215.799 110.608Z"
        fill="#DCE7EB" />
    <path
        d="M161.177 109.852C159.497 110.104 157.816 110.524 156.135 111.113C155.967 111.449 145.127 130.608 145.127 158.927L158.32 163.801L150.253 180.271C150.253 180.271 163.614 199.767 188.404 209.515V184.977C152.354 155.314 160.085 114.81 161.177 109.852Z"
        fill="#F7FDFF" />
    <path
        d="M215.799 109.852C217.479 110.104 219.16 110.524 220.841 111.113C221.009 111.449 231.849 130.608 231.849 158.927L218.656 163.801L226.723 180.271C226.723 180.271 213.362 199.767 188.572 209.515V184.977C224.622 155.314 216.891 114.81 215.799 109.852Z"
        fill="#F7FDFF" />
    <path
        d="M196.892 218.254C198.238 218.254 199.329 217.163 199.329 215.817C199.329 214.471 198.238 213.38 196.892 213.38C195.546 213.38 194.455 214.471 194.455 215.817C194.455 217.163 195.546 218.254 196.892 218.254Z"
        fill="#DCE7EB" />
    <path
        d="M199.329 229.934C199.329 231.279 198.237 232.371 196.892 232.371C195.547 232.371 194.455 231.279 194.455 229.934C194.455 228.59 195.547 227.497 196.892 227.497C198.237 227.497 199.329 228.59 199.329 229.934Z"
        fill="#DCE7EB" />
    <path
        d="M199.329 244.052C199.329 245.396 198.237 246.489 196.892 246.489C195.547 246.489 194.455 245.396 194.455 244.052C194.455 242.707 195.547 241.615 196.892 241.615C198.237 241.615 199.329 242.707 199.329 244.052Z"
        fill="#DCE7EB" />
    <path
        d="M196.892 260.606C198.238 260.606 199.329 259.515 199.329 258.169C199.329 256.823 198.238 255.732 196.892 255.732C195.546 255.732 194.455 256.823 194.455 258.169C194.455 259.515 195.546 260.606 196.892 260.606Z"
        fill="#DCE7EB" />
    <path
        d="M222.184 54.8947C222.184 54.8947 222.436 44.3906 233.276 46.5755C244.116 48.7603 235.797 79.7683 222.184 68.1718V54.8947Z"
        fill="#E6AE9C" />
    <path
        d="M154.79 54.8947C154.79 54.8947 154.538 44.3906 143.698 46.5755C132.858 48.7603 141.177 79.7683 154.79 68.1718V54.8947Z"
        fill="#E6AE9C" />
    <path
        d="M188.487 102.121C167.479 102.121 150.336 84.9784 150.336 63.9702V42.4579C150.336 21.4497 167.479 4.30707 188.487 4.30707C209.495 4.30707 226.638 21.4497 226.638 42.4579V63.9702C226.638 84.9784 209.495 102.121 188.487 102.121Z"
        fill="#FFC2AD" />
    <path
        d="M222.69 20.021C222.69 20.021 239.244 35.8191 226.639 59.2642C226.639 59.2642 226.387 59.0121 226.051 58.592C223.95 56.071 217.144 46.3232 218.572 27.4999L222.69 20.021Z"
        fill="#49547A" />
    <path
        d="M202.018 73.6339C203.363 73.6339 204.455 74.8104 204.203 76.2389C202.943 83.8859 196.388 89.6841 188.321 89.6841C180.254 89.6841 173.699 83.8859 172.439 76.2389C172.187 74.8944 173.279 73.6339 174.624 73.6339C174.792 73.6339 202.018 73.6339 202.018 73.6339Z"
        fill="white" />
    <path
        d="M188.404 64.9785C185.295 64.9785 182.606 63.1298 181.346 60.5248V61.6172C181.346 65.4827 184.539 68.6759 188.404 68.6759C192.27 68.6759 195.463 65.4827 195.463 61.6172V60.6088C194.203 63.2138 191.514 64.9785 188.404 64.9785Z"
        fill="#E6AE9C" />
    <path
        d="M164.203 56.071V51.3652C164.203 48.0039 166.892 45.2308 170.169 45.2308C173.447 45.2308 176.136 48.0039 176.136 51.3652V56.071"
        stroke="#49547A" stroke-width="2.3074" stroke-miterlimit="10" stroke-linecap="round"
        stroke-linejoin="round" />
    <path
        d="M200.842 56.071V51.3652C200.842 48.0039 203.531 45.2308 206.808 45.2308C210.085 45.2308 212.774 48.0039 212.774 51.3652V56.071"
        stroke="#49547A" stroke-width="2.3074" stroke-miterlimit="10" stroke-linecap="round"
        stroke-linejoin="round" />
    <path
        d="M150.338 59.3483C150.338 59.3483 150.59 59.0962 150.926 58.6761C153.027 56.1551 159.834 46.4073 158.405 27.584C158.405 27.584 171.262 34.1386 202.102 33.6344C225.043 33.2982 230.673 22.2059 228.656 8.67668C228.656 8.67668 221.934 10.6935 201.934 3.21456C179.917 -4.9366 154.876 3.04649 154.372 20.0211C154.287 20.0211 137.733 35.8192 150.338 59.3483Z"
        fill="#49547A" />
    <path
        d="M176.975 41.2813C176.471 41.2813 175.967 41.1132 175.546 40.6931C174.79 39.9368 172.941 38.9284 170.168 38.9284C167.395 38.9284 165.547 39.8527 164.79 40.6931C164.034 41.4493 162.858 41.5334 162.017 40.7771C161.261 40.0208 161.177 38.8443 161.933 38.004C163.698 36.1553 166.723 35.0629 170.168 35.0629C173.53 35.0629 176.639 36.1553 178.404 38.004C179.16 38.7603 179.076 40.0208 178.32 40.7771C177.899 41.1132 177.395 41.2813 176.975 41.2813Z"
        fill="#49547A" />
    <path
        d="M213.614 41.2813C213.11 41.2813 212.605 41.1132 212.185 40.6931C211.429 39.9368 209.58 38.9284 206.807 38.9284C204.034 38.9284 202.185 39.8527 201.429 40.6931C200.673 41.4493 199.496 41.5334 198.656 40.7771C197.9 40.0208 197.816 38.8443 198.572 38.004C200.337 36.1553 203.362 35.0629 206.807 35.0629C210.252 35.0629 213.278 36.1553 215.042 38.004C215.799 38.7603 215.715 40.0208 214.958 40.7771C214.538 41.1132 214.118 41.2813 213.614 41.2813Z"
        fill="#49547A" />
    <path
        d="M135.969 192.204H131.347C130.087 192.204 129.078 191.195 129.078 189.935V164.053C129.078 157.078 134.792 151.364 141.767 151.364H156.473C163.447 151.364 169.162 157.078 169.162 164.053V189.935C169.162 191.195 168.153 192.204 166.893 192.204H162.187"
        stroke="#49547A" stroke-width="3.1636" stroke-miterlimit="10" stroke-linecap="round"
        stroke-linejoin="round" />
    <path
        d="M140.087 196.069H137.987C135.886 196.069 134.121 194.305 134.121 192.204C134.121 190.103 135.886 188.338 137.987 188.338H140.087C142.188 188.338 143.953 190.103 143.953 192.204C143.953 194.389 142.188 196.069 140.087 196.069Z"
        fill="#6270A3" />
    <path
        d="M135.968 198.59C134.54 198.59 133.447 197.414 133.447 196.069V188.506C133.447 187.078 134.624 185.985 135.968 185.985C137.397 185.985 138.489 187.162 138.489 188.506V196.069C138.489 197.414 137.313 198.59 135.968 198.59Z"
        fill="#49547A" />
    <path d="M207.732 102.037C220.505 111.112 229.161 129.011 229.161 149.599V180.523"
        stroke="#49547A" stroke-width="4.2182" stroke-miterlimit="10" stroke-linecap="round"
        stroke-linejoin="round" />
    <path d="M147.732 149.599C147.732 129.095 156.388 111.28 169.077 102.121" stroke="#49547A"
        stroke-width="4.2182" stroke-miterlimit="10" stroke-linecap="round" stroke-linejoin="round" />
    <path
        d="M156.473 188.338H158.574C160.675 188.338 162.439 190.103 162.439 192.204C162.439 194.305 160.675 196.069 158.574 196.069H156.473C154.372 196.069 152.607 194.305 152.607 192.204C152.607 190.103 154.372 188.338 156.473 188.338Z"
        fill="#6270A3" />
    <path
        d="M160.676 185.901C162.104 185.901 163.197 187.078 163.197 188.422V195.985C163.197 197.414 162.02 198.506 160.676 198.506C159.247 198.506 158.155 197.33 158.155 195.985V188.422C158.071 187.078 159.247 185.901 160.676 185.901Z"
        fill="#49547A" />
    <path
        d="M229.243 188.927C233.884 188.927 237.646 185.164 237.646 180.523C237.646 175.882 233.884 172.12 229.243 172.12C224.602 172.12 220.84 175.882 220.84 180.523C220.84 185.164 224.602 188.927 229.243 188.927Z"
        fill="#6270A3" />
    <path
        d="M231.851 186.811C235.327 185.379 236.985 181.401 235.553 177.925C234.122 174.449 230.143 172.791 226.667 174.223C223.191 175.654 221.534 179.633 222.965 183.109C224.397 186.585 228.375 188.242 231.851 186.811Z"
        fill="#49547A" />
    <path
        d="M229.245 185.061C231.751 185.061 233.783 183.029 233.783 180.523C233.783 178.017 231.751 175.986 229.245 175.986C226.739 175.986 224.707 178.017 224.707 180.523C224.707 183.029 226.739 185.061 229.245 185.061Z"
        fill="#9BA6CF" />
</svg>