<svg width="519" height="390" viewBox="0 0 519 390" fill="none" xmlns="http://www.w3.org/2000/svg">
<path d="M358.371 114.432C322.611 80.8799 280.67 72.2711 269.633 70.5052C277.138 50.4179 288.617 20.5076 291.487 16.0928C292.369 15.9825 294.246 15.7617 297.115 15.7617C305.283 15.7617 322.611 17.4173 347.886 28.7854C384.308 45.1201 394.02 63.5519 395.896 68.077L358.371 114.432Z" fill="white"/>
<path d="M297.115 17.8591C305.062 17.8591 322.169 19.5147 346.892 30.662C379.782 45.4516 390.377 62.0071 393.247 67.6359L358.149 111.122C336.958 91.9173 314.222 81.2114 298.439 75.6929C287.292 71.7196 278.131 69.733 272.613 68.7396C280.891 46.5553 289.831 23.8191 292.81 18.0799C293.914 17.9695 295.239 17.8591 297.115 17.8591ZM297.115 13.4443C292.7 13.4443 290.382 13.8858 290.382 13.8858C287.844 14.7688 266.653 72.1611 266.653 72.1611C266.653 72.1611 316.981 77.2381 358.591 117.523L398.324 68.2982C398.324 68.2982 391.702 45.8931 348.658 26.5784C323.604 15.3206 306.055 13.4443 297.115 13.4443Z" fill="#A0C6F4"/>
<path d="M274.048 76.6865C274.048 76.6865 323.494 81.6532 353.956 109.687" stroke="#2D2D2D" stroke-width="1.5" stroke-miterlimit="10" stroke-linecap="round" stroke-linejoin="round"/>
<path d="M316.76 74.2579L335.192 38.3877L354.176 75.8031L316.76 74.2579Z" fill="#5564D7"/>
<path d="M320.293 73.8165L338.725 37.9463L357.708 75.3617L320.293 73.8165Z" stroke="#2D2D2D" stroke-width="1.5" stroke-miterlimit="10" stroke-linecap="round" stroke-linejoin="round"/>
<path d="M302.965 11.2354C302.965 11.2354 358.371 16.202 392.916 57.1492" stroke="#2D2D2D" stroke-width="1.5" stroke-miterlimit="10" stroke-linecap="round" stroke-linejoin="round"/>
<path d="M331.33 170.278C328.24 168.07 326.253 166.525 326.253 166.525C327.136 165.421 340.491 151.184 348.217 139.705C348.217 139.705 332.545 171.16 331.33 170.278Z" fill="#2D2D2D"/>
<path d="M142.267 66.6406C143.701 69.0688 144.364 68.0754 148.668 67.7443C152.973 67.4132 159.043 70.5036 161.25 75.8013C163.458 81.0991 162.685 81.8717 161.581 82.5339C160.478 83.1961 152.2 84.1894 151.869 85.845" stroke="#2D2D2D" stroke-width="1.5" stroke-miterlimit="10" stroke-linecap="round" stroke-linejoin="round"/>
<path d="M253.519 335.391L249.656 328.879L235.97 351.615L239.612 354.374L253.519 335.391Z" fill="#ECAC67"/>
<path d="M162.905 278.99C162.905 278.99 155.841 267.512 158.821 261.883L181.337 264.311L162.905 278.99Z" fill="#ECAC67"/>
<path d="M162.906 278.991L164.23 282.082L160.036 298.306C159.484 300.403 160.146 302.5 161.802 303.935L182.441 273.473C184.428 270.603 183.986 266.63 181.448 264.312L176.812 260.008L162.906 278.991Z" fill="#2D2D2D"/>
<path d="M151.868 85.9535C158.38 85.8432 166.547 85.4017 164.892 80.435C163.236 75.4684 157.166 63.2173 143.149 66.9699C143.149 66.9699 138.182 71.0536 144.363 78.4484C150.544 85.8432 151.868 85.9535 151.868 85.9535Z" fill="#2A1E33"/>
<path d="M184.537 264.531C184.537 264.531 173.5 231.972 182.882 217.624C190.608 205.814 215.772 225.019 219.194 227.557L237.184 194.998C237.184 194.998 232.99 189.148 222.836 183.52C212.682 177.78 170.52 160.783 150.654 192.018C143.369 203.607 143.259 253.163 157.276 272.147L184.537 264.531Z" fill="#23D09C"/>
<path d="M184.538 264.533C184.538 264.533 173.501 231.973 182.882 217.625C190.608 205.816 215.772 225.02 219.194 227.559" stroke="#2D2D2D" stroke-width="1.5" stroke-miterlimit="10" stroke-linecap="round" stroke-linejoin="round"/>
<path d="M237.183 195.109C229.016 203.718 204.735 245.659 199.216 265.746C191.932 292.566 194.691 314.861 234.755 358.457L254.18 330.202C254.18 330.202 240.495 309.453 243.033 289.917C246.675 261.662 266.763 234.291 277.027 216.963L237.183 195.109Z" fill="#23D09C"/>
<path d="M240.274 198.752L272.502 224.137L282.215 209.458L240.274 198.752Z" fill="#2D2D2D"/>
<path d="M425.585 172.153C430.662 173.257 434.415 175.133 437.064 177.893C439.713 180.652 438.499 182.087 437.505 182.97C436.512 183.853 432.87 182.859 429.559 179.99C426.468 177.01 425.585 172.153 425.585 172.153Z" fill="#ECAC67"/>
<path d="M326.252 166.523C327.135 165.419 340.49 151.182 348.216 139.703C348.216 139.703 371.614 165.861 374.042 166.744C375.035 167.075 380.664 166.964 387.838 166.854C399.869 166.744 415.872 166.633 419.404 168.399C425.033 171.159 428.454 172.593 429.779 176.567C431.214 180.54 431.766 183.078 428.344 183.299C424.371 183.63 421.832 178.553 421.832 178.553C421.832 178.553 418.632 180.54 410.354 183.63C410.354 183.63 380.444 195.219 360.467 189.59C354.948 188.045 326.252 166.523 326.252 166.523Z" fill="#ECAC67"/>
<path d="M144.915 62.0037C142.377 62.997 140.831 64.1007 142.266 66.6392C143.701 69.0674 144.363 68.074 148.668 67.7429C152.972 67.4118 159.042 70.5022 161.25 75.7999C163.457 81.0977 162.685 81.8703 161.581 82.5325C160.477 83.1947 152.199 84.188 151.868 85.8436C151.537 87.4991 155.179 92.3554 162.795 92.0243L164.561 91.6932C164.561 91.6932 180.565 107.255 182.882 109.573C185.2 111.891 202.197 123.369 211.578 125.687C218.642 127.453 233.101 125.135 241.709 123.48C245.903 122.707 248.773 121.934 248.773 121.934C248.773 121.934 242.261 110.235 240.937 92.245C240.937 92.245 225.375 94.7835 215.11 96.9909C215.11 96.9909 191.05 83.5258 179.24 77.5658C179.24 77.5658 168.976 64.9837 164.23 63.3281C159.484 62.0037 148.447 60.6792 144.915 62.0037Z" fill="#ECAC67"/>
<path d="M241.709 123.7C245.903 122.928 248.773 122.155 248.773 122.155C248.773 122.155 240.936 112.222 239.612 94.2314C239.612 94.2314 236.08 98.0944 237.184 108.248C238.508 121.051 241.709 123.7 241.709 123.7Z" fill="#2D2D2D"/>
<path d="M239.281 92.2454C239.281 92.2454 239.502 114.209 245.352 123.37L247.449 122.487C247.449 122.487 219.636 154.935 210.696 176.237C209.261 179.658 268.309 217.515 277.028 216.963C277.028 216.963 305.834 173.036 315.657 160.012L326.253 168.18C326.253 168.18 347.002 147.099 348.106 139.704C348.106 139.704 328.019 115.313 311.684 108.139C295.239 100.965 280.56 88.7136 263.011 89.0447C247.78 89.3758 239.281 92.2454 239.281 92.2454Z" fill="#F2CC45"/>
<path d="M326.363 168.179L315.768 160.012L317.423 155.376L326.363 168.179Z" fill="#2D2D2D"/>
<path d="M342.476 81.208C340.6 86.9473 335.302 103.613 329.342 105.71C323.382 107.807 317.202 105.158 317.202 105.158L310.8 108.359C310.138 110.456 305.061 112.332 298.549 112.553C293.803 112.774 290.823 106.593 292.258 102.068C292.92 99.9709 295.348 89.9272 295.348 89.9272C295.348 89.9272 300.536 70.9436 305.282 67.0807C310.028 63.2178 314.442 59.2444 327.135 64.4318C346.339 72.3785 342.476 81.208 342.476 81.208Z" fill="#ECAC67"/>
<path d="M304.068 82.0909C303.185 85.6227 299.543 92.6864 297.115 91.4723C294.687 90.1479 293.804 86.9471 295.57 80.6561C297.336 74.365 298.66 60.2376 303.517 57.6991C308.373 55.1606 310.47 58.1406 310.47 58.1406C310.47 58.1406 308.373 47.7659 314.554 46.4414C314.554 46.4414 316.651 45.4481 315.878 52.5118C315.878 52.5118 318.306 45.9999 326.032 46.8829C333.758 47.7659 336.517 58.5821 336.517 58.5821C336.517 58.5821 337.069 55.6021 340.601 55.6021C344.133 55.6021 349.541 60.7895 348.216 66.6391C348.216 66.6391 357.267 63.7695 362.123 71.0539C366.979 78.2279 366.317 86.1746 354.728 89.3753C342.587 92.6864 342.698 78.4487 340.822 76.6827C338.945 74.8065 336.959 72.7094 330.226 75.2479C323.383 77.7864 316.319 70.2813 316.319 70.2813C316.319 70.2813 315.216 79.3316 314.002 80.2146C312.898 81.0975 310.58 82.2012 311.132 77.8968C311.684 73.7028 312.457 74.0339 312.015 72.9302C311.574 71.8265 309.697 68.1843 305.614 71.385C301.199 74.8065 304.068 82.0909 304.068 82.0909Z" fill="#2A3353"/>
<path d="M305.944 83.6382C303.295 81.3204 301.419 77.3471 303.737 73.3738C306.055 69.4005 310.028 68.8486 311.242 70.3938C312.456 71.939 312.897 74.4775 311.794 77.4575" stroke="#2A1E33" stroke-width="1.5" stroke-miterlimit="10" stroke-linecap="round" stroke-linejoin="round"/>
<path d="M239.613 354.374L240.937 357.465L236.743 373.689C236.191 375.786 236.853 377.883 238.509 379.318L259.148 348.856C261.135 345.986 260.693 342.013 258.155 339.695L253.519 335.391L239.613 354.374Z" fill="#2D2D2D"/>
<path d="M310.471 58.1417C310.471 58.1417 308.925 52.9535 304.179 51.6289" stroke="#2A1E33" stroke-width="1.5" stroke-miterlimit="10" stroke-linecap="round" stroke-linejoin="round"/>
<path d="M210.033 174.691L267.205 94.8936" stroke="#2D2D2D" stroke-width="1.5" stroke-miterlimit="10" stroke-linecap="round" stroke-linejoin="round"/>
<path d="M290.825 100.521C288.728 103.17 287.845 114.759 297.336 115.421C306.828 116.084 312.899 112 312.899 112" stroke="#2D2D2D" stroke-width="1.5" stroke-miterlimit="10" stroke-linecap="round" stroke-linejoin="round"/>
<path d="M164.23 63.6582C164.23 63.6582 170.742 72.2671 171.736 75.3574" stroke="#2D2D2D" stroke-width="1.5" stroke-miterlimit="10" stroke-linecap="round" stroke-linejoin="round"/>
<path d="M408.81 179.548C408.81 179.548 413.224 183.19 421.833 178.444C425.034 176.789 422.716 172.815 418.743 173.809C414.77 174.802 410.024 173.257 410.024 173.257" stroke="#2D2D2D" stroke-width="1.5" stroke-miterlimit="10" stroke-linecap="round" stroke-linejoin="round"/>
<path d="M427.131 172.595C427.131 172.595 431.325 177.451 431.215 180.431" stroke="#2D2D2D" stroke-width="1.5" stroke-miterlimit="10" stroke-linecap="round" stroke-linejoin="round"/>
<path d="M365.434 172.042C365.434 172.042 369.186 166.965 374.042 166.634" stroke="#2D2D2D" stroke-width="1.5" stroke-miterlimit="10" stroke-linecap="round" stroke-linejoin="round"/>
<path d="M205.839 105.378C205.839 105.378 208.047 98.5354 215.11 97.2109" stroke="#2D2D2D" stroke-width="1.5" stroke-miterlimit="10" stroke-linecap="round" stroke-linejoin="round"/>
<path d="M225.043 209.9L216.545 226.014C216.545 226.014 188.731 273.142 198.113 303.604" stroke="#2D2D2D" stroke-width="1.5" stroke-miterlimit="10" stroke-linecap="round" stroke-linejoin="round"/>
<path d="M249.656 263.98L277.027 216.963C277.027 216.963 313.008 164.868 316.65 157.474L329.343 133.965" stroke="#2D2D2D" stroke-width="1.5" stroke-miterlimit="10" stroke-linecap="round" stroke-linejoin="round"/>
<path d="M213.896 179.77C213.896 179.77 262.679 215.309 277.138 217.075" stroke="#2D2D2D" stroke-width="1.5" stroke-miterlimit="10" stroke-linecap="round" stroke-linejoin="round"/>
<path d="M239.282 92.2451C239.282 92.2451 239.282 114.54 245.242 123.701" stroke="#2D2D2D" stroke-width="1.5" stroke-miterlimit="10" stroke-linecap="round" stroke-linejoin="round"/>
<path d="M346.67 136.172C345.125 145.333 324.817 164.647 324.817 164.647" stroke="#2D2D2D" stroke-width="1.5" stroke-miterlimit="10" stroke-linecap="round" stroke-linejoin="round"/>
<path d="M194.804 250.627C196.389 250.627 197.674 249.342 197.674 247.757C197.674 246.172 196.389 244.887 194.804 244.887C193.219 244.887 191.934 246.172 191.934 247.757C191.934 249.342 193.219 250.627 194.804 250.627Z" fill="#2D2D2D"/>
<path d="M466.423 310.007L464.767 298.859L474.259 305.15L469.292 306.254L466.423 310.007Z" stroke="#2D2D2D" stroke-width="1.5" stroke-miterlimit="10" stroke-linecap="round" stroke-linejoin="round"/>
<path d="M153.193 120.942C135.313 105.159 105.734 144.561 213.896 269.831C276.366 342.123 325.37 348.635 331.992 323.471C343.912 278.33 300.868 266.962 316.871 284.621C340.159 310.337 406.381 315.745 455.717 291.795C504.39 268.176 474.48 231.422 471.5 229.215" stroke="#2D2D2D" stroke-width="1.5" stroke-miterlimit="10" stroke-linecap="round" stroke-linejoin="round"/>
<path d="M456.6 294.445C458.185 294.445 459.47 293.16 459.47 291.575C459.47 289.99 458.185 288.705 456.6 288.705C455.015 288.705 453.73 289.99 453.73 291.575C453.73 293.16 455.015 294.445 456.6 294.445Z" fill="#2D2D2D"/>
<path d="M414.438 315.195L500.306 266.854" stroke="#2D2D2D" stroke-width="1.5" stroke-miterlimit="10" stroke-linecap="round" stroke-linejoin="round"/>
<path d="M154.959 126.131C156.544 126.131 157.829 124.846 157.829 123.261C157.829 121.676 156.544 120.391 154.959 120.391C153.374 120.391 152.089 121.676 152.089 123.261C152.089 124.846 153.374 126.131 154.959 126.131Z" fill="#2D2D2D"/>
<path d="M228.797 69.7296C232.21 69.7296 234.978 66.9624 234.978 63.5489C234.978 60.1354 232.21 57.3682 228.797 57.3682C225.383 57.3682 222.616 60.1354 222.616 63.5489C222.616 66.9624 225.383 69.7296 228.797 69.7296Z" fill="#E04B43"/>
<path d="M116.109 16.2012C114.564 16.2012 113.35 17.4154 113.35 18.9608C113.35 20.5063 114.564 21.7205 116.109 21.7205C117.655 21.7205 118.869 20.5063 118.869 18.9608C118.869 17.4154 117.655 16.2012 116.109 16.2012Z" fill="#5564D7"/>
<path d="M481.875 355.258C483.399 355.258 484.635 354.022 484.635 352.498C484.635 350.974 483.399 349.738 481.875 349.738C480.351 349.738 479.115 350.974 479.115 352.498C479.115 354.022 480.351 355.258 481.875 355.258Z" fill="#FAD8B0"/>
<path d="M433.091 229.214L403.733 215.418C401.415 214.315 401.415 210.893 403.843 209.9L458.476 185.839C459.249 185.508 460.132 185.508 460.904 185.839L498.43 201.953L433.091 229.214Z" fill="#2A1E33"/>
<path d="M431.326 183.963C431.436 196.104 433.092 229.215 433.092 229.215L498.32 201.954L496.885 155.819C496.775 152.949 493.905 151.184 491.256 152.287L435.078 177.893C432.761 179.107 431.326 181.425 431.326 183.963Z" fill="#5564D7"/>
<path d="M433.091 229.216L498.319 201.954L496.885 155.82C496.885 155.82 496.443 150.743 491.256 152.288" stroke="#2D2D2D" stroke-width="1.5" stroke-miterlimit="10" stroke-linecap="round" stroke-linejoin="round"/>
<path d="M464.656 196.104L469.071 185.619" stroke="#2D2D2D" stroke-width="1.5" stroke-miterlimit="10" stroke-linecap="round" stroke-linejoin="round"/>
<path d="M469.071 196.104L473.486 185.619" stroke="#2D2D2D" stroke-width="1.5" stroke-miterlimit="10" stroke-linecap="round" stroke-linejoin="round"/>
<path d="M127.919 309.674C129.443 309.674 130.679 308.438 130.679 306.914C130.679 305.39 129.443 304.154 127.919 304.154C126.395 304.154 125.16 305.39 125.16 306.914C125.16 308.438 126.395 309.674 127.919 309.674Z" fill="#E04B43"/>
<path d="M358.04 324.243C360.112 324.243 361.792 322.563 361.792 320.491C361.792 318.418 360.112 316.738 358.04 316.738C355.967 316.738 354.287 318.418 354.287 320.491C354.287 322.563 355.967 324.243 358.04 324.243Z" fill="#E04B43"/>
<path d="M156.172 347.421C160.587 349.518 173.5 354.926 190.608 354.816C191.491 354.816 192.263 355.588 192.153 356.582L189.725 375.455C189.614 376.117 189.173 376.669 188.511 376.78C183.654 377.662 164.229 380.311 149.66 368.06C149.219 367.729 148.998 367.067 149.219 366.515L154.075 348.525C154.296 347.421 155.289 346.98 156.172 347.421Z" fill="#FFF7DC"/>
<path d="M157.829 352.941C157.829 352.941 166.217 364.751 169.197 366.407C172.177 368.062 188.401 358.46 188.401 358.46" stroke="#2D2D2D" stroke-width="1.5" stroke-miterlimit="10" stroke-linecap="round" stroke-linejoin="round"/>
<path d="M177.254 364.859L186.083 373.91" stroke="#2D2D2D" stroke-width="1.5" stroke-miterlimit="10" stroke-linecap="round" stroke-linejoin="round"/>
<path d="M165.002 363.096L154.627 365.855" stroke="#2D2D2D" stroke-width="1.5" stroke-miterlimit="10" stroke-linecap="round" stroke-linejoin="round"/>
<path d="M426.8 123.812H416.978V133.634H426.8V123.812Z" fill="#FFE1C0"/>
<path d="M418.301 257.029L421.281 262.106L424.151 267.183H418.301H412.452L415.321 262.106L418.301 257.029Z" fill="#5564D7"/>
<path d="M181.006 31.7622L181.779 8.69487C181.669 6.48747 182.552 5.82526 183.876 5.60452C190.167 4.16971 209.261 -0.0243521 229.9 6.04599C232.549 6.81858 232.439 8.25339 232.439 9.57783L231.666 31.5414C231.666 33.197 229.9 34.3007 228.024 34.0799C221.954 33.197 213.786 32.8659 205.398 32.9762C196.789 33.0866 189.063 33.6384 183.655 34.7421C181.669 35.0733 180.896 33.5281 181.006 31.7622Z" stroke="#2D2D2D" stroke-width="1.5" stroke-miterlimit="10" stroke-linecap="round" stroke-linejoin="round"/>
<path d="M187.959 28.4516L199.989 14.3242L213.344 27.4582C208.709 25.9131 187.959 28.4516 187.959 28.4516Z" stroke="#2D2D2D" stroke-width="1.5" stroke-miterlimit="10" stroke-linecap="round" stroke-linejoin="round"/>
<path d="M207.384 20.8343L217.097 12.998L225.375 18.8477L225.706 28.0084L213.344 27.4565" stroke="#2D2D2D" stroke-width="1.5" stroke-miterlimit="10" stroke-linecap="round" stroke-linejoin="round"/>
<path d="M193.252 13.2491C193.362 12.1573 192.37 11.1628 191.036 11.0279C189.701 10.893 188.53 11.6687 188.42 12.7605C188.309 13.8523 189.301 14.8467 190.636 14.9816C191.97 15.1165 193.141 14.3409 193.252 13.2491Z" stroke="#2D2D2D" stroke-width="1.5" stroke-miterlimit="10" stroke-linecap="round" stroke-linejoin="round"/>
<path d="M414.217 331.639L422.274 346.539C423.157 347.863 422.826 348.636 422.053 349.298C418.632 352.499 408.037 362.322 392.585 366.074C390.598 366.516 390.157 365.633 389.715 364.86L381.989 350.622C381.437 349.629 382.1 348.194 383.314 347.642C387.508 345.987 392.805 343.117 398.103 339.917C403.511 336.605 408.257 333.405 411.237 330.756C412.562 329.763 413.665 330.425 414.217 331.639Z" stroke="#2D2D2D" stroke-width="1.5" stroke-miterlimit="10" stroke-linecap="round" stroke-linejoin="round"/>
<path d="M411.127 336.385L408.698 349.85L395.344 346.428C398.765 345.656 411.127 336.385 411.127 336.385Z" stroke="#2D2D2D" stroke-width="1.5" stroke-miterlimit="10" stroke-linecap="round" stroke-linejoin="round"/>
<path d="M401.524 348.412L398.213 357.021L390.818 356.359L387.287 350.62L395.344 346.426" stroke="#2D2D2D" stroke-width="1.5" stroke-miterlimit="10" stroke-linecap="round" stroke-linejoin="round"/>
<path d="M415.566 348.521C416.453 348.115 416.905 347.202 416.575 346.481C416.246 345.76 415.26 345.505 414.372 345.91C413.485 346.316 413.033 347.229 413.363 347.95C413.692 348.67 414.678 348.926 415.566 348.521Z" stroke="#2D2D2D" stroke-width="1.5" stroke-miterlimit="10" stroke-linecap="round" stroke-linejoin="round"/>
<path d="M374.816 76.4618L407.706 101.626C408.478 102.178 409.472 102.068 410.024 101.295L414.99 94.5625C415.542 93.9002 415.432 92.9069 414.659 92.3551L382.211 66.4181C381.438 65.8663 380.445 65.9767 379.893 66.7493L374.485 74.2544C374.043 74.9166 374.153 75.91 374.816 76.4618Z" fill="white" stroke="#2D2D2D" stroke-width="1.5" stroke-miterlimit="10" stroke-linecap="round" stroke-linejoin="round"/>
<path d="M377.354 75.3575L385.301 80.9864L389.936 75.3575L381.99 68.7354L377.354 75.3575Z" fill="#E04B43"/>
<path d="M388.28 83.1923L396.226 89.4834L400.531 84.1856L392.474 77.6738L388.28 83.1923Z" fill="#FAD8B0"/>
<path d="M398.986 91.9121L406.932 97.5409L410.685 92.6847L403.18 86.2832L398.986 91.9121Z" fill="#5564D7"/>
<path d="M440.486 41.2542L447.991 104.275C448.101 105.71 449.426 106.593 450.75 106.483L463.443 104.717C464.767 104.496 465.761 103.392 465.54 101.958L459.359 38.7156C459.249 37.2808 457.924 36.2875 456.49 36.5082L442.473 38.6053C441.258 38.7156 440.376 39.9297 440.486 41.2542Z" fill="white" stroke="#2D2D2D" stroke-width="1.5" stroke-miterlimit="10" stroke-linecap="round" stroke-linejoin="round"/>
<path d="M444.349 42.7982L446.667 57.4774L457.925 56.7048L456.711 40.8115L444.349 42.7982Z" fill="#E04B43"/>
<path d="M447.55 63.1066L449.095 78.6688L459.47 77.7858L458.035 61.8926L447.55 63.1066Z" fill="#23D09C"/>
<path d="M449.315 84.1877L451.633 98.9773L461.015 97.8736L459.911 82.8633L449.315 84.1877Z" fill="#FAD8B0"/>
<path d="M424.151 54.7172L444.901 115.752C445.232 116.745 446.446 117.297 447.439 116.966L460.463 112.33C461.456 111.999 462.008 110.895 461.677 109.902L442.141 48.3157C441.81 47.212 440.596 46.6601 439.603 47.1016L425.365 52.3994C424.261 52.6201 423.82 53.7238 424.151 54.7172Z" fill="white" stroke="#2D2D2D" stroke-width="1.5" stroke-miterlimit="10" stroke-linecap="round" stroke-linejoin="round"/>
<path d="M428.345 55.823L433.753 69.7296L444.459 66.6393L440.044 51.2979L428.345 55.823Z" fill="#5564D7"/>
<path d="M435.74 75.0269L440.486 89.9268L450.419 86.8365L445.674 71.7158L435.74 75.0269Z" fill="#E04B43"/>
<path d="M441.81 95.3346L447.218 109.241L456.158 106.261L451.964 91.8027L441.81 95.3346Z" fill="#FAD8B0"/>
<path d="M267.757 158.026H163.016C159.705 158.026 156.946 155.267 156.946 151.955V137.828C156.946 134.517 159.705 131.758 163.016 131.758H267.757C271.068 131.758 273.827 134.517 273.827 137.828V151.955C273.827 155.377 271.068 158.026 267.757 158.026Z" fill="#E04B43"/>
<path d="M228.465 143.458H171.293C170.19 143.458 169.307 142.575 169.307 141.471C169.307 140.367 170.19 139.484 171.293 139.484H228.465C229.569 139.484 230.452 140.367 230.452 141.471C230.452 142.575 229.569 143.458 228.465 143.458Z" fill="white"/>
<path d="M169.97 148.645H266.985" stroke="#2D2D2D" stroke-width="1.5" stroke-miterlimit="10" stroke-linecap="round" stroke-linejoin="round"/>
<path d="M121.847 84.1878L120.191 82.4219L114.673 87.3885L116.328 89.1544C116.991 89.927 118.205 89.927 118.977 89.2648L121.737 86.8367C122.509 86.0641 122.619 84.85 121.847 84.1878Z" fill="#23D09C"/>
<path d="M112.355 72.3786L120.192 80.8771C120.633 81.3186 120.523 81.9808 120.081 82.4223L114.673 87.3889C114.232 87.8304 113.57 87.72 113.128 87.2785L105.292 78.7801C104.85 78.3386 104.961 77.6764 105.402 77.2349L110.81 72.2682C111.252 71.9371 111.914 71.9371 112.355 72.3786Z" stroke="#2D2D2D" stroke-width="1.5" stroke-miterlimit="10" stroke-linecap="round" stroke-linejoin="round"/>
<path d="M97.235 117.521H87.4121V126.46H97.235V117.521Z" fill="#E04B43"/>
<path d="M87.414 111.781V117.521H81.5635" stroke="#2D2D2D" stroke-width="1.5" stroke-miterlimit="10" stroke-linecap="round" stroke-linejoin="round"/>
<path d="M419.847 16.6445H410.024V25.5845H419.847V16.6445Z" fill="#FAD8B0"/>
<path d="M410.024 10.9033V16.6434H404.173" stroke="#2D2D2D" stroke-width="1.5" stroke-miterlimit="10" stroke-linecap="round" stroke-linejoin="round"/>
<path d="M145.025 71.8285C43.4844 29.7776 -34.6574 110.789 156.724 234.845C171.845 244.668 194.912 248.089 194.912 248.089" stroke="#2D2D2D" stroke-width="1.5" stroke-miterlimit="10" stroke-linecap="round" stroke-linejoin="round"/>
<path d="M51.6533 77.5682C53.2384 77.5682 54.5233 76.2833 54.5233 74.6982C54.5233 73.1131 53.2384 71.8281 51.6533 71.8281C50.0682 71.8281 48.7832 73.1131 48.7832 74.6982C48.7832 76.2833 50.0682 77.5682 51.6533 77.5682Z" fill="#2D2D2D"/>
<path d="M33.2217 58.8052L36.4224 55.8252L43.7068 59.9089L47.349 71.277L36.2017 66.5311L33.2217 58.8052Z" stroke="#2D2D2D" stroke-width="1.5" stroke-miterlimit="10" stroke-linecap="round" stroke-linejoin="round"/>
<path d="M36.4225 55.8249L33.2212 58.8053L31.4551 56.708L34.4355 53.7275L36.4225 55.8249Z" stroke="#2D2D2D" stroke-width="1.5" stroke-miterlimit="10" stroke-linecap="round" stroke-linejoin="round"/>
<path d="M47.3484 71.2748L40.064 63.2178" stroke="#2D2D2D" stroke-width="1.5" stroke-miterlimit="10" stroke-linecap="round" stroke-linejoin="round"/>
<path d="M64.8974 273.805L72.7337 314.421C72.9544 315.304 73.727 315.856 74.7203 315.746L82.8877 313.98C83.7707 313.759 84.3225 312.986 84.1018 312.103L77.0381 271.156C76.9277 270.273 76.0448 269.611 75.0515 269.832L66.0011 271.818C65.3389 272.15 64.7871 273.033 64.8974 273.805Z" fill="white" stroke="#2D2D2D" stroke-width="1.5" stroke-miterlimit="10" stroke-linecap="round" stroke-linejoin="round"/>
<path d="M67.5459 274.576L69.7533 284.068L77.0377 283.075L75.4925 272.811L67.5459 274.576Z" fill="#E04B43"/>
<path d="M70.5254 287.712L72.2913 297.756L79.0238 296.652L77.3683 286.498L70.5254 287.712Z" fill="#FAD8B0"/>
<path d="M72.7334 301.396L74.9408 310.888L81.0111 309.673L79.5763 299.961L72.7334 301.396Z" fill="#5564D7"/>
<path d="M290.824 375.786L324.155 366.846L325.48 370.378L291.707 379.207L290.824 375.786Z" stroke="#2D2D2D" stroke-width="1.5" stroke-miterlimit="10" stroke-linecap="round" stroke-linejoin="round"/>
<path d="M286.188 371.039L287.181 374.13" stroke="#2D2D2D" stroke-width="1.5" stroke-miterlimit="10" stroke-linecap="round" stroke-linejoin="round"/>
<path d="M285.306 373.025L288.065 372.031" stroke="#2D2D2D" stroke-width="1.5" stroke-miterlimit="10" stroke-linecap="round" stroke-linejoin="round"/>
<path d="M284.644 382.629L286.41 388.369" stroke="#2D2D2D" stroke-width="1.5" stroke-miterlimit="10" stroke-linecap="round" stroke-linejoin="round"/>
<path d="M283.099 386.269L288.066 384.613" stroke="#2D2D2D" stroke-width="1.5" stroke-miterlimit="10" stroke-linecap="round" stroke-linejoin="round"/>
<path d="M276.917 373.246L279.346 380.751" stroke="#2D2D2D" stroke-width="1.5" stroke-miterlimit="10" stroke-linecap="round" stroke-linejoin="round"/>
<path d="M274.6 377.881L281.663 375.674" stroke="#2D2D2D" stroke-width="1.5" stroke-miterlimit="10" stroke-linecap="round" stroke-linejoin="round"/>
<path d="M47.6788 13.5518L26.5981 4.05998L27.4811 1.63184L48.6721 11.3444L47.6788 13.5518Z" stroke="#2D2D2D" stroke-width="1.5" stroke-miterlimit="10" stroke-linecap="round" stroke-linejoin="round"/>
<path d="M48.1196 17.9665L48.8924 15.9795" stroke="#2D2D2D" stroke-width="1.5" stroke-miterlimit="10" stroke-linecap="round" stroke-linejoin="round"/>
<path d="M49.4449 17.3039L47.5684 16.6416" stroke="#2D2D2D" stroke-width="1.5" stroke-miterlimit="10" stroke-linecap="round" stroke-linejoin="round"/>
<path d="M53.8589 12.6701L55.4043 8.91699" stroke="#2D2D2D" stroke-width="1.5" stroke-miterlimit="10" stroke-linecap="round" stroke-linejoin="round"/>
<path d="M56.2877 11.3451L52.9761 10.1309" stroke="#2D2D2D" stroke-width="1.5" stroke-miterlimit="10" stroke-linecap="round" stroke-linejoin="round"/>
<path d="M53.8613 20.7262L55.8483 15.7588" stroke="#2D2D2D" stroke-width="1.5" stroke-miterlimit="10" stroke-linecap="round" stroke-linejoin="round"/>
<path d="M57.062 19.2906L52.5361 17.5244" stroke="#2D2D2D" stroke-width="1.5" stroke-miterlimit="10" stroke-linecap="round" stroke-linejoin="round"/>
<path d="M126.595 191.69C111.695 180.984 97.1258 164.318 103.527 147.211C103.527 147.211 113.792 140.368 130.016 148.866C146.24 157.365 146.24 157.365 146.24 157.365L126.595 191.69Z" fill="#FAD8B0"/>
<path d="M119.861 263.098C113.129 259.897 84.5432 245.108 79.4661 219.612C75.0513 197.649 91.8276 168.07 100.326 154.936C99.7742 172.264 117.213 186.943 125.601 193.013C134.099 199.194 140.39 202.174 148.999 205.375L119.861 263.098Z" fill="white"/>
<path d="M99.0025 160.124C100.879 171.713 109.598 183.633 124.608 194.449C132.665 200.299 138.736 203.279 146.682 206.369L119.09 260.892C110.702 256.698 85.7581 242.46 81.1226 219.282C77.2597 199.968 90.2833 174.472 99.0025 160.124ZM103.528 147.321C103.528 147.321 71.9619 190.034 77.9219 219.945C83.8818 249.855 120.635 265.196 120.635 265.196L151.428 204.493C141.826 200.961 135.535 198.091 126.595 191.69C111.695 180.984 97.1262 164.429 103.528 147.321Z" fill="#FAD8B0"/>
<path d="M95.1392 172.155C95.1392 172.155 97.0155 189.373 114.123 198.534" stroke="#2D2D2D" stroke-width="1.5" stroke-miterlimit="10" stroke-linecap="round" stroke-linejoin="round"/>
<path d="M123.394 204.602L140.501 213.762" stroke="#2D2D2D" stroke-width="1.5" stroke-miterlimit="10" stroke-linecap="round" stroke-linejoin="round"/>
<path d="M97.6777 196.656C97.6777 196.656 103.196 208.907 120.966 216.854" stroke="#2D2D2D" stroke-width="1.5" stroke-miterlimit="10" stroke-linecap="round" stroke-linejoin="round"/>
<path d="M83.5508 198.533C83.5508 198.533 84.213 211.446 92.7115 215.751" stroke="#2D2D2D" stroke-width="1.5" stroke-miterlimit="10" stroke-linecap="round" stroke-linejoin="round"/>
<path d="M103.197 153.723C103.197 153.723 101.651 170.278 126.595 191.69" stroke="#2D2D2D" stroke-width="1.5" stroke-miterlimit="10" stroke-linecap="round" stroke-linejoin="round"/>
<path d="M112.357 156.813C112.357 156.813 120.304 156.15 132.003 164.759" stroke="#2D2D2D" stroke-width="1.5" stroke-miterlimit="10" stroke-linecap="round" stroke-linejoin="round"/>
<path d="M74.8311 209.568C74.2793 217.736 75.383 247.536 118.427 266.409" stroke="#2D2D2D" stroke-width="1.5" stroke-miterlimit="10" stroke-linecap="round" stroke-linejoin="round"/>
<path d="M349.762 193.014L331.551 229.656C331.551 229.656 343.912 234.182 334.2 248.419C334.2 248.419 357.046 257.911 372.057 233.299C387.067 208.576 349.762 193.014 349.762 193.014Z" fill="#23D09C"/>
<path d="M307.931 304.821C298.66 304.821 288.947 301.068 278.904 293.563L313.008 236.943L333.316 249.746H333.426C333.647 249.857 338.172 251.623 344.574 251.623C349.761 251.623 356.163 250.408 362.454 245.994L337.621 288.928C337.51 288.928 326.804 304.821 307.931 304.821Z" fill="white"/>
<path d="M313.671 239.37L332.434 251.18L332.655 251.29L332.875 251.4C333.096 251.511 337.842 253.497 344.575 253.497C348.438 253.497 353.184 252.835 357.929 250.738L336.187 288.043C335.524 289.037 325.37 303.274 307.932 303.274C299.433 303.274 290.383 299.963 281.112 293.231L313.671 239.37ZM372.057 233.189C363.558 247.096 352.632 250.186 344.685 250.186C338.504 250.186 334.2 248.42 334.2 248.42L312.567 234.845L276.808 294.114C288.838 303.385 299.213 306.585 308.042 306.585C328.019 306.585 339.167 289.809 339.167 289.809L372.057 233.189Z" fill="#23D09C"/>
<path d="M331.44 229.656C331.44 229.656 345.016 234.513 334.089 248.419" stroke="#2D2D2D" stroke-width="1.5" stroke-miterlimit="10" stroke-linecap="round" stroke-linejoin="round"/>
<path d="M312.126 233.52C312.126 233.52 330.668 250.517 340.932 250.406C351.197 250.296 363.227 247.868 370.291 235.617" stroke="#2D2D2D" stroke-width="1.5" stroke-miterlimit="10" stroke-linecap="round" stroke-linejoin="round"/>
<path d="M314.444 255.48C314.444 255.48 327.137 266.738 341.375 263.206" stroke="#2D2D2D" stroke-width="1.5" stroke-miterlimit="10" stroke-linecap="round" stroke-linejoin="round"/>
<path d="M327.799 272.369C327.799 272.369 334.531 277.336 343.802 272.59" stroke="#2D2D2D" stroke-width="1.5" stroke-miterlimit="10" stroke-linecap="round" stroke-linejoin="round"/>
<path d="M297.005 279.324C297.005 279.324 312.457 294.666 336.628 284.512" stroke="#2D2D2D" stroke-width="1.5" stroke-miterlimit="10" stroke-linecap="round" stroke-linejoin="round"/>
<path d="M305.393 264.424C305.393 264.424 311.684 268.949 315.657 270.384" stroke="#2D2D2D" stroke-width="1.5" stroke-miterlimit="10" stroke-linecap="round" stroke-linejoin="round"/>
<path d="M352.852 203.719C352.852 203.719 366.869 208.354 368.635 226.896" stroke="#2D2D2D" stroke-width="1.5" stroke-miterlimit="10" stroke-linecap="round" stroke-linejoin="round"/>
<path d="M359.917 226.566C359.917 226.566 366.429 236.61 355.392 246.654" stroke="#2D2D2D" stroke-width="1.5" stroke-miterlimit="10" stroke-linecap="round" stroke-linejoin="round"/>
<path d="M278.022 296.872C278.022 296.872 313.34 327.113 338.946 291.795" stroke="#2D2D2D" stroke-width="1.5" stroke-miterlimit="10" stroke-linecap="round" stroke-linejoin="round"/>
<path d="M23.0669 181.646H31.2343" stroke="#E04B43" stroke-width="1.5" stroke-miterlimit="10" stroke-linecap="round" stroke-linejoin="round"/>
<path d="M481.875 82.5352H490.152" stroke="#E04B43" stroke-width="1.5" stroke-miterlimit="10" stroke-linecap="round" stroke-linejoin="round"/>
<path d="M261.025 26.0234H269.192" stroke="#FAD8B0" stroke-width="1.5" stroke-miterlimit="10"/>
<path d="M497.658 125.247L505.715 126.682" stroke="#FAD8B0" stroke-width="1.5" stroke-miterlimit="10"/>
<path d="M174.053 330.865H182.22" stroke="#5564D7" stroke-width="1.5" stroke-miterlimit="10" stroke-linecap="round" stroke-linejoin="round"/>
<path d="M515.317 230.873C516.841 230.873 518.076 229.637 518.076 228.113C518.076 226.589 516.841 225.354 515.317 225.354C513.793 225.354 512.557 226.589 512.557 228.113C512.557 229.637 513.793 230.873 515.317 230.873Z" fill="#23D09C"/>
<path d="M2.75967 99.9725C4.2838 99.9725 5.51934 98.7369 5.51934 97.2128C5.51934 95.6887 4.2838 94.4531 2.75967 94.4531C1.23555 94.4531 0 95.6887 0 97.2128C0 98.7369 1.23555 99.9725 2.75967 99.9725Z" fill="#23D09C"/>
</svg>
